<?xml version="1.0" encoding="UTF-8" standalone="no"?>
<svg
   xmlns:dc="http://purl.org/dc/elements/1.1/"
   xmlns:cc="http://creativecommons.org/ns#"
   xmlns:rdf="http://www.w3.org/1999/02/22-rdf-syntax-ns#"
   xmlns:svg="http://www.w3.org/2000/svg"
   xmlns="http://www.w3.org/2000/svg"
   id="svg8"
   version="1.1"
   viewBox="0 0 102.38988 41.821201"
   height="41.821201mm"
   width="102.38988mm">
  <defs
     id="defs2" />
  <metadata
     id="metadata5">
    <rdf:RDF>
      <cc:Work
         rdf:about="">
        <dc:format>image/svg+xml</dc:format>
        <dc:type
           rdf:resource="http://purl.org/dc/dcmitype/StillImage" />
        <dc:title></dc:title>
      </cc:Work>
    </rdf:RDF>
  </metadata>
  <g
     transform="translate(-45.941532,-228.19072)"
     id="layer1">
    <path
       id="path890"
       d="M 46.456573,252.19155 60.87768,258.063 81.067234,250.74944 62.628816,250.64643 Z"
       style="fill:#8c8c8c;fill-opacity:1;fill-rule:evenodd;stroke:none;stroke-width:0.26458332px;stroke-linecap:butt;stroke-linejoin:miter;stroke-opacity:1" />
    <path
       id="path886"
       d="m 46.456573,252.19155 14.936147,0.30902 -0.515038,13.18501 -14.93615,-0.41203 z"
       style="fill:#a0a0a0;fill-opacity:1;fill-rule:evenodd;stroke:none;stroke-width:0.26458332px;stroke-linecap:butt;stroke-linejoin:miter;stroke-opacity:1" />
    <path
       id="path888"
       d="m 61.39272,252.50057 19.674514,-1.75113 -0.51504,12.25794 -19.674512,2.6782 z"
       style="fill:#828282;fill-opacity:1;fill-rule:evenodd;stroke:none;stroke-width:0.26458332px;stroke-linecap:butt;stroke-linejoin:miter;stroke-opacity:1" />
    <path
       id="path896"
       d="m 81.273247,253.32464 15.451191,8.34364 16.584272,-9.47673 -15.142162,-0.61805 z"
       style="fill:#8c8c8c;fill-opacity:1;fill-rule:evenodd;stroke:none;stroke-width:0.26458332px;stroke-linecap:butt;stroke-linejoin:miter;stroke-opacity:1" />
    <path
       id="path892"
       d="m 80.655201,266.71566 16.275254,0.51504 0.206015,-13.49403 -15.863221,-0.41203 z"
       style="fill:#a0a0a0;fill-opacity:1;fill-rule:evenodd;stroke:none;stroke-width:0.26458332px;stroke-linecap:butt;stroke-linejoin:miter;stroke-opacity:1" />
    <path
       id="path894"
       d="m 97.13647,253.73667 16.17224,-1.54512 -0.103,12.36095 -16.275255,2.6782 z"
       style="fill:#828282;fill-opacity:1;fill-rule:evenodd;stroke:none;stroke-width:0.26458332px;stroke-linecap:butt;stroke-linejoin:miter;stroke-opacity:1" />
    <path
       id="path902"
       d="m 118.04708,254.86976 17.61435,7.21055 12.56697,-8.34364 -14.93615,-1.03008 z"
       style="fill:#8c8c8c;fill-opacity:1;fill-rule:evenodd;stroke:none;stroke-width:0.26458332px;stroke-linecap:butt;stroke-linejoin:miter;stroke-opacity:1" />
    <path
       id="path898"
       d="m 118.04708,254.86976 -0.10301,13.90608 17.82037,1.23608 -0.10301,-14.11209 z"
       style="fill:#a0a0a0;fill-opacity:1;fill-rule:evenodd;stroke:none;stroke-width:0.26458332px;stroke-linecap:butt;stroke-linejoin:miter;stroke-opacity:1" />
    <path
       id="path900"
       d="m 135.66143,255.89983 12.56697,-2.16316 0.10301,12.87599 -12.56697,3.39926 z"
       style="fill:#828282;fill-opacity:1;fill-rule:evenodd;stroke:none;stroke-width:0.26458332px;stroke-linecap:butt;stroke-linejoin:miter;stroke-opacity:1" />
    <path
       id="path904"
       transform="scale(0.26458333)"
       d="m 236.66016,862.45312 -2.42578,88.71094 3.77929,0.10352 0.25977,-9.50977 12.01562,-3.12695 -0.28711,11.17383 3.7793,0.0976 1.17969,-45.91211 0.10547,-0.1582 -0.0977,-0.18164 1.05859,-41.19727 h -7.11914 l -8.75781,10.67383 0.29102,-10.67383 z m 15.53515,1.94922 -0.83593,32.50782 -10.20118,-19.04883 z m -12.32812,19.04883 10.79297,20.15821 -11.82422,17.59374 z m 11.16015,26.38867 -0.64062,25.00196 -10.16602,-8.92383 z m -12.41992,19.69141 7.23828,6.35156 -7.46484,1.94531 z"
       style="color:#000000;font-style:normal;font-variant:normal;font-weight:normal;font-stretch:normal;font-size:medium;line-height:normal;font-family:sans-serif;font-variant-ligatures:normal;font-variant-position:normal;font-variant-caps:normal;font-variant-numeric:normal;font-variant-alternates:normal;font-feature-settings:normal;text-indent:0;text-align:start;text-decoration:none;text-decoration-line:none;text-decoration-style:solid;text-decoration-color:#000000;letter-spacing:normal;word-spacing:normal;text-transform:none;writing-mode:lr-tb;direction:ltr;text-orientation:mixed;dominant-baseline:auto;baseline-shift:baseline;text-anchor:start;white-space:normal;shape-padding:0;clip-rule:nonzero;display:inline;overflow:visible;visibility:visible;opacity:1;isolation:auto;mix-blend-mode:normal;color-interpolation:sRGB;color-interpolation-filters:linearRGB;solid-color:#000000;solid-opacity:1;vector-effect:none;fill:#555555;fill-opacity:1;fill-rule:evenodd;stroke:none;stroke-width:3.77952766;stroke-linecap:butt;stroke-linejoin:miter;stroke-miterlimit:4;stroke-dasharray:none;stroke-dashoffset:0;stroke-opacity:1;color-rendering:auto;image-rendering:auto;shape-rendering:auto;text-rendering:auto;enable-background:accumulate" />
    <path
       id="path908"
       transform="scale(0.26458333)"
       d="m 297.06445,862.45312 65.1875,67.44727 -0.0234,0.041 0.68554,0.66797 -0.20508,25.07226 3.7793,0.0293 0.082,-10.06446 9.14453,-2.87304 -0.15429,10.56054 3.77343,0.0527 0.17188,-11.80469 0.0703,-0.0215 -0.0684,-0.0664 1.15821,-79.04102 h -5.83204 l -7.67382,10.82813 0.0898,-10.82813 h -3.7793 l -0.51367,62.73829 -60.64453,-62.73829 z m 79.76758,3.72266 -0.48633,33.32227 -8.49804,-20.64649 z m -9.78125,20.67383 8.32617,20.23633 -8.61328,14.97265 z m 9.0918,26.49414 -0.35742,24.52539 -8.81641,-8.58594 z m -9.47852,20.91992 5.73828,5.5918 -5.79882,1.81836 z"
       style="color:#000000;font-style:normal;font-variant:normal;font-weight:normal;font-stretch:normal;font-size:medium;line-height:normal;font-family:sans-serif;font-variant-ligatures:normal;font-variant-position:normal;font-variant-caps:normal;font-variant-numeric:normal;font-variant-alternates:normal;font-feature-settings:normal;text-indent:0;text-align:start;text-decoration:none;text-decoration-line:none;text-decoration-style:solid;text-decoration-color:#000000;letter-spacing:normal;word-spacing:normal;text-transform:none;writing-mode:lr-tb;direction:ltr;text-orientation:mixed;dominant-baseline:auto;baseline-shift:baseline;text-anchor:start;white-space:normal;shape-padding:0;clip-rule:nonzero;display:inline;overflow:visible;visibility:visible;opacity:1;isolation:auto;mix-blend-mode:normal;color-interpolation:sRGB;color-interpolation-filters:linearRGB;solid-color:#000000;solid-opacity:1;vector-effect:none;fill:#555555;fill-opacity:1;fill-rule:evenodd;stroke:none;stroke-width:3.77952766;stroke-linecap:butt;stroke-linejoin:miter;stroke-miterlimit:4;stroke-dasharray:none;stroke-dashoffset:0;stroke-opacity:1;color-rendering:auto;image-rendering:auto;shape-rendering:auto;text-rendering:auto;enable-background:accumulate" />
    <path
       id="path912"
       transform="scale(0.26458333)"
       d="m 428.2832,862.45312 70.97852,74.04688 -0.0977,24.63672 3.7793,0.0156 0.0137,-3.35156 8.26172,-0.78711 0.0137,3.36328 3.78125,-0.0156 -0.38476,-97.90821 h -4.03711 l -7.3125,13.48438 0.0527,-13.48438 h -3.7793 l -0.0801,20.50586 -0.14649,0.26954 0.14453,0.30078 -0.1875,47.53906 -65.77148,-68.61524 z m 82.59571,7.39258 0.11132,29.00196 -7.42773,-15.51563 z m -7.66016,21.52149 7.1582,14.96679 -7.29101,18.83594 z m 7.83789,23.6914 0.125,32.98243 -8.01758,-12.59961 z m -8.03906,27.18946 7.05273,11.08203 -7.09961,0.67383 z"
       style="color:#000000;font-style:normal;font-variant:normal;font-weight:normal;font-stretch:normal;font-size:medium;line-height:normal;font-family:sans-serif;font-variant-ligatures:normal;font-variant-position:normal;font-variant-caps:normal;font-variant-numeric:normal;font-variant-alternates:normal;font-feature-settings:normal;text-indent:0;text-align:start;text-decoration:none;text-decoration-line:none;text-decoration-style:solid;text-decoration-color:#000000;letter-spacing:normal;word-spacing:normal;text-transform:none;writing-mode:lr-tb;direction:ltr;text-orientation:mixed;dominant-baseline:auto;baseline-shift:baseline;text-anchor:start;white-space:normal;shape-padding:0;clip-rule:nonzero;display:inline;overflow:visible;visibility:visible;opacity:1;isolation:auto;mix-blend-mode:normal;color-interpolation:sRGB;color-interpolation-filters:linearRGB;solid-color:#000000;solid-opacity:1;vector-effect:none;fill:#555555;fill-opacity:1;fill-rule:evenodd;stroke:none;stroke-width:3.77952766;stroke-linecap:butt;stroke-linejoin:miter;stroke-miterlimit:4;stroke-dasharray:none;stroke-dashoffset:0;stroke-opacity:1;color-rendering:auto;image-rendering:auto;shape-rendering:auto;text-rendering:auto;enable-background:accumulate" />
  </g>
</svg>
