<svg id="Layer_6" enable-background="new 0 0 64 64" height="512" viewBox="0 0 64 64" width="512" xmlns="http://www.w3.org/2000/svg"><path d="m16.15 51.78 1.51 2.22h-3.66v-7l.07-.05 1.02 1.5c.02 1.16.36 2.32 1.06 3.33z" fill="#ccd1d9"/><path d="m38 39 5.85 2.92c-1.04 1.03-2.39 1.78-3.85 2.08v4.5l-4 .26v-4.76c-1.45-.29-2.8-1.04-3.84-2.08z" fill="#ccd1d9"/><path d="m38 39-5.84 2.92c-1.09-1.06-1.85-2.43-2.08-3.93-.05-.32-.08-.65-.08-.99v-3l.72.45z" fill="#e6e9ed"/><path d="m46 34v3c0 .34-.03.67-.08.99-.23 1.51-.99 2.87-2.07 3.93l-5.85-2.92z" fill="#e6e9ed"/><path d="m40 48.5 15.03-.96 6.94-.45c.02.3.03.6.03.9v4.15c.06 1.1-.72 2.06-1.75 2.13l-27.19 1.73c-.57.03-1.1-.21-1.47-.63-.3-.33-.5-.78-.53-1.27l-.09-3c-.07-1.11.72-2.07 1.75-2.13l3.28-.21z" fill="#f0d0b4"/><path d="m61.97 47.09-6.94.45-.03-.54v-5-4-1l.02-.55c3.99 2.3 6.64 6.07 6.95 10.64z" fill="#ccd1d9"/><path d="m55 47 .03.54-15.03.96v-4.5c1.46-.3 2.81-1.05 3.85-2.08l.15.08h11z" fill="#ff826e"/><path d="m55.02 36.45-.02.55v1h-9l-.08-.01c.05-.32.08-.65.08-.99v-3c3.38.1 6.47.98 9.02 2.45z" fill="#ff826e"/><path d="m55 38v4h-11l-.15-.08c1.08-1.06 1.84-2.42 2.07-3.93l.08.01z" fill="#fcd770"/><path d="m55 14v4h-4-26-4v-4h2 7 6 4 6 7z" fill="#fcd770"/><path d="m52.5 20c1.38 0 2.5 1.34 2.5 3s-1.12 3-2.5 3h-1.5-.28c.18-.76.28-1.56.28-2.37v-3.63z" fill="#f0d0b4"/><path d="m53 14h-7v-4-4-2l.06-.12c4.17 2.13 6.94 5.87 6.94 10.12z" fill="#ffeaa7"/><path d="m51 20v3.63c0 .81-.1 1.61-.28 2.37h-6.72c-.63 0-1.22-.3-1.6-.8l-1.8-2.4c-.38-.5-.97-.8-1.6-.8h-2c-.63 0-1.22.3-1.6.8l-1.8 2.4c-.38.5-.97.8-1.6.8h-6.72c-.18-.77-.28-1.56-.28-2.38v-3.62-2h26z" fill="#69d6f4"/><path d="m46 32.59c-.29.2-.6.39-.91.57l-.09-.16v-2c0-2.76-2.24-5-5-5h-2-2c-2.76 0-5 2.24-5 5v1 1 .21c-2.88-1.61-4.98-4.18-5.72-7.21h6.72c.63 0 1.22-.3 1.6-.8l1.8-2.4c.38-.5.97-.8 1.6-.8h2c.63 0 1.22.3 1.6.8l1.8 2.4c.38.5.97.8 1.6.8h6.72c-.65 2.66-2.36 4.98-4.72 6.59z" fill="#f0d0b4"/><path d="m46.06 3.88-.06.12v2h-6v-3.89c2.21.23 4.27.85 6.06 1.77z" fill="#ffc729"/><path d="m46 32.59v1.41l-8 5-7.28-4.55.28-.45v-.79c2.02 1.13 4.42 1.79 7 1.79 2.62 0 5.05-.67 7.09-1.84.31-.18.62-.37.91-.57z" fill="#f0d0b4"/><path d="m40 10h6v4h-6z" fill="#ffc729"/><path d="m40 6h6v4h-6z" fill="#ffc729"/><path d="m45 33 .09.16c-2.04 1.17-4.47 1.84-7.09 1.84-2.58 0-4.98-.66-7-1.79v-.21-1-1c0-2.76 2.24-5 5-5h2 2c2.76 0 5 2.24 5 5z" fill="#cf9e76"/><path d="m40 10v4h-4v-4-4-3.89c.65-.07 1.32-.11 2-.11s1.35.04 2 .11v3.89z" fill="#ffeaa7"/><path d="m32.16 41.92-.16.08h-3l-.07.06c.16.18.31.37.45.57l2.27 3.33c.47.69.46 1.57.04 2.24l1.03.77 3.28-.21v-4.76c-1.45-.29-2.8-1.04-3.84-2.08z" fill="#ff826e"/><g fill="#ffc729"><path d="m30 10h6v4h-6z"/><path d="m30 6h6v4h-6z"/><path d="m36 2.11v3.89h-6v-2l-.06-.12c1.79-.92 3.85-1.54 6.06-1.77z"/></g><path d="m32.16 41.92-.16.08h-3l-.07.06c-.63-.73-1.4-1.28-2.25-1.62h-.01l-1.66-2.44h4.99l.08-.01c.23 1.5.99 2.87 2.08 3.93z" fill="#fcd770"/><path d="m22.05 55.07-.01.01-.83.57c-.91.62-2.16.39-2.78-.52l-.77-1.13-1.51-2.22c-.7-1.01-1.04-2.17-1.06-3.33-.02-1.64.61-3.26 1.83-4.45l.01-.01 2.22 3.27 4.96-3.44-2.23-3.27c1.54-.72 3.28-.73 4.79-.11h.01c.85.34 1.62.89 2.25 1.62.16.18.31.37.45.57l2.27 3.33c.47.69.46 1.57.04 2.24z" fill="#969faa"/><path d="m30.08 37.99-.08.01h-4.99l-1-1.47-.52-.76c1.9-.91 4.18-1.7 6.51-1.77v3c0 .34.03.67.08.99z" fill="#ff826e"/><path d="m30 10v4h-7c0-4.25 2.77-7.99 6.94-10.12l.06.12v2z" fill="#ffeaa7"/><path d="m29 57.31v4.69h-4v-4l.04-.15c.31.09.63.14.95.15 1.06.03 2.15-.26 3.01-.69z" fill="#969faa"/><path d="m25.28 26h-.28-1.5c-1.38 0-2.5-1.34-2.5-3s1.12-3 2.5-3h1.5v3.62c0 .82.1 1.61.28 2.38z" fill="#f0d0b4"/><path d="m9.69 24.15c.73.14 1.42.59 1.9 1.28l.03.05 2.27 3.33 2.27 3.34 2.27 3.33 2.27 3.34 1.18 1.73c-.3.14-.59.32-.87.51l-3.31 2.29c-.28.19-.53.41-.77.64l-1.19-1.74-2.27-3.33-2.27-3.34-2.27-3.33-2.27-3.34-.03-.04c-.48-.7-.64-1.5-.52-2.24.11-.7.48-1.35 1.08-1.76l.24-.17.25-.18c.6-.41 1.32-.53 2.01-.37z" fill="#e6e9ed"/><path d="m14.75 22.94c-1.05-1.54-2.62-2.51-4.31-2.82-1.7-.32-3.51.01-5.03 1.07l-.25.17-.25.17c-1.52 1.06-2.48 2.64-2.79 4.35-.32 1.71.01 3.54 1.06 5.08l.17.25 11.74 17.24c-.02-1.64.61-3.26 1.83-4.45l.01-.01-10.27-15.08-.03-.04c-.48-.7-.64-1.5-.52-2.24.11-.7.48-1.35 1.08-1.76l.24-.17.25-.18c.6-.41 1.32-.53 2.01-.37.73.14 1.42.59 1.9 1.28l.03.05 10.26 15.07c1.54-.72 3.28-.73 4.79-.11z" fill="#cf9e76"/><path d="m38 32c1.654 0 3-1.346 3-3h-2c0 .551-.448 1-1 1s-1-.449-1-1h-2c0 1.654 1.346 3 3 3z"/><circle cx="31" cy="22" r="1"/><circle cx="45" cy="22" r="1"/><path d="m20.414 49.591h2.011v2h-2.011z" transform="matrix(.822 -.57 .57 .822 -24.999 21.205)"/><path d="m25.374 46.156h2.011v2h-2.011z" transform="matrix(.822 -.569 .569 .822 -22.153 23.403)"/><path d="m35 60c0 .552-.448 1-1 1h-4v-3.113c.026-.016.057-.028.082-.045.454-.295 1.042-.768 1.545-1.192.406.222.852.35 1.316.35.059 0 .118-.002.178-.006l27.188-1.727c1.583-.101 2.787-1.533 2.687-3.131l.004-4.148c0-8.089-6.664-14.228-15.975-14.918 2.098-1.569 3.661-3.672 4.433-6.071h1.042c1.93 0 3.5-1.794 3.5-4s-1.57-4-3.5-4h3.5v-6h-2.062c-.633-6.7-7.531-11.999-15.938-11.999s-15.305 5.299-15.938 12h-2.062v6h3.5c-1.93 0-3.5 1.794-3.5 4s1.57 4 3.5 4h1.043c.772 2.4 2.336 4.504 4.436 6.073-1.615.175-3.335.657-5.136 1.436l-8.264-12.133c-1.168-1.715-2.933-2.868-4.968-3.246-2.03-.377-4.078.063-5.773 1.237l-.494.343c-3.504 2.427-4.397 7.276-1.991 10.81l10.647 15.632v7.848h4.131l.467.687c.449.663 1.131 1.111 1.92 1.261.188.036.378.054.566.054.601 0 1.187-.181 1.694-.529l.035-.025.508.7c.442.61 1.013 1.064 1.679 1.377v4.475h5 1 4c1.654 0 3-1.346 3-3 0-.552.448-1 1-1h25v-2h-25c-1.654 0-3 1.346-3 3zm-31.997-32.934 2.098.393c.034.382.12.762.265 1.132l-1.72 1.191c-.443-.859-.652-1.792-.643-2.716zm1.926-4.27 1.16 1.704c-.278.29-.489.627-.655.986l-2.07-.388c.319-.866.846-1.66 1.565-2.302zm1.467 7.514 1.145 1.682-1.663 1.152-1.145-1.682zm2.272 3.335 1.145 1.682-1.663 1.152-1.145-1.682zm2.271 3.335 1.145 1.682-1.663 1.152-1.145-1.682zm2.272 3.335 1.145 1.682-1.663 1.152-1.145-1.682zm1.338 5.56-.731-1.073 1.663-1.152.178.261c-.473.591-.845 1.255-1.11 1.964zm-7.098-17.568c-.614-.902-.479-2.078.304-2.62l.493-.342c.255-.177.559-.269.878-.269.104 0 .208.01.313.029.519.096 1 .421 1.32.891l9.692 14.231c-.005.003-.009.005-.013.008l-3.298 2.291c-.001.001-.002.001-.002.002zm12.364 7.433 1.663-1.152 1.145 1.682-1.663 1.152zm-1.126-1.653-1.146-1.682 1.663-1.152 1.146 1.682zm-2.272-3.335-1.145-1.682 1.663-1.152 1.145 1.682zm1.857 13.423 3.297-2.29c.002-.002.004-.002.006-.004l1.146 1.682-3.316 2.297-1.143-1.677c.004-.002.007-.006.01-.008zm3.812-5.1 1.663-1.152.734 1.078c-.751-.009-1.5.101-2.22.335zm5.267.588-.451-.663h2.378c.196.702.495 1.374.875 2h-.863c-.572-.56-1.225-1.011-1.939-1.337zm-1.353-16.038v-4.625h24v4.625c0 .467-.048.924-.118 1.375h-5.882c-.313 0-.612-.149-.8-.4l-1.8-2.4c-.563-.751-1.46-1.2-2.4-1.2h-2c-.94 0-1.837.449-2.399 1.2l-1.802 2.401c-.187.25-.486.399-.799.399h-5.882c-.07-.451-.118-.908-.118-1.375zm15 23.811v-2.66c1.185-.365 2.256-.985 3.158-1.775h9.842v3.601zm-4.801-4.415c-.79-.161-1.527-.482-2.192-.906l3.993-1.997 4.005 2.003c-.665.419-1.405.736-2.205.9l-.8.163v4.38l-2 .128v-4.509zm-5.199-7.217 4.958 3.099-3.56 1.78c-.865-1.058-1.398-2.352-1.398-3.683zm23 5.196h-8.158c.381-.627.68-1.298.877-2h7.281zm-10.379-.308-3.579-1.789 4.958-3.099v1.193c0 1.352-.522 2.643-1.379 3.695zm-5.621-2.871-3.602-2.251c1.152.271 2.355.43 3.602.43s2.45-.159 3.602-.43zm9-.821c0-.001 0-.002 0-.003v-1.94c2.594.208 4.943.894 6.952 1.943zm-5.924-11.898c-.349-.064-.708-.102-1.076-.102h-4c-.368 0-.727.038-1.077.102l1.278-1.703c.187-.25.486-.399.799-.399h2c.313 0 .612.149.8.4zm-9.076 5.898c0-2.206 1.794-4 4-4h4c2.206 0 4 1.794 4 4v1.596c-1.767.887-3.813 1.404-6 1.404s-4.233-.517-6-1.404v-.596zm-.162 12c.903.792 1.975 1.411 3.162 1.776v3.044l-2.122.136c.251-.859.115-1.798-.406-2.556l-1.63-2.4zm29.16 9.197c.034.552-.339 1.044-.815 1.074l-27.188 1.727c-.221.009-.435-.07-.61-.235-.194-.185-.312-.441-.327-.69l-.091-3.033c-.034-.551.339-1.042.815-1.072l28.218-1.812zm-.136-6.036-4.862.312v-8.186c2.624 1.97 4.377 4.699 4.862 7.874zm-14.862-14.825v-.336c0-1.538-.586-2.937-1.54-4h4.876c-.674 1.684-1.833 3.169-3.336 4.336zm8-8.336c0 1.084-.687 2-1.5 2h-.592c.057-.452.092-.91.092-1.375v-2.625h.5c.813 0 1.5.916 1.5 2zm-2.064-10h-4.936v-7.414c2.748 1.818 4.593 4.447 4.936 7.414zm-10.936-6h4v2h-4zm4-2h-4v-1.739c1.428.246 2.771.667 4 1.228zm-4 6h4v2h-4zm-2-7.96v9.96h-2v-9.96c.332-.019.662-.04 1-.04s.668.021 1 .04zm-8 3.96h4v2h-4zm4-2h-4v-.512c1.229-.561 2.572-.981 4-1.228zm-4 6h4v2h-4zm-2-5.414v7.414h-4.936c.343-2.967 2.188-5.596 4.936-7.414zm-7 11.414v-2h32v2zm1.5 8c-.813 0-1.5-.916-1.5-2s.687-2 1.5-2h.5v2.625c0 .465.035.923.092 1.375zm3.165 2h4.876c-.955 1.063-1.541 2.462-1.541 4v.336c-1.503-1.167-2.662-2.652-3.335-4.336zm2.335 8.081v1.919h-3.461l-.549-.806c1.412-.581 2.755-.956 4.01-1.113zm-13.191-8.816-1.663 1.152-1.145-1.682 1.663-1.152zm-2.327-3.297-1.707 1.183c-.284-.261-.603-.474-.943-.644l.392-2.128c.875.33 1.638.879 2.258 1.589zm-4.225-1.957-.384 2.089c-.395.027-.781.106-1.141.259l-1.148-1.686c.83-.438 1.738-.672 2.673-.662zm5.743 31.989v-1.21c.105.187.202.378.324.555l.446.655zm4.89 1.982c-.262-.05-.487-.198-.637-.419l-2.278-3.349c-.561-.814-.867-1.777-.885-2.777-.012-.984.273-1.938.776-2.755l2.024 2.971 6.604-4.576-2.035-2.988c.31-.06.625-.096.942-.096.646 0 1.295.126 1.908.379.896.357 1.675.988 2.247 1.818l2.267 3.338c.199.289.231.669.096.989l-9.451 6.739-.821.567c-.225.154-.495.207-.757.159zm3.553.305 6.542-4.654c-.017.163-.028.328-.018.497l.091 3.033c.022.348.109.68.237.993-.457.383-.953.78-1.305 1.009-.83.54-1.989.875-2.953.832-.928-.041-1.634-.386-2.098-1.025zm2.557 5.713v-2.003c.056.002.113.003.17.003.595 0 1.22-.099 1.83-.262v2.262z"/></svg>