<svg id="Layer_6" enable-background="new 0 0 64 64" height="512" viewBox="0 0 64 64" width="512" xmlns="http://www.w3.org/2000/svg"><path d="m56.77 37.95c3.09 2.11 5.23 5.1 5.23 8.05v5h-6v-8-4-1c.27 0 .53-.02.77-.05z" fill="#b4dd7f"/><path d="m42 38 5 2 .08.06c-.75.99-1.88 1.66-3.08 1.94v1 12h-4v-12-1c-1.14-.28-2.29-.96-3.06-1.96l.06-.04z" fill="#b4dd7f"/><path d="m56 51h6v4h-6z" fill="#f0d0b4"/><g fill="#ff826e"><path d="m32 51v4h-4v-12h4v4z"/><path d="m40 43v12h-4v-4-4-4z"/><path d="m48 51v4h-4v-12h4v4z"/><path d="m56 51v4h-4v-4-4-4h4z"/></g><path d="m36.94 40.04c.77 1 1.92 1.68 3.06 1.96v1h-4-4-4v-4h8l.3-.1c.16.42.38.8.64 1.14z" fill="#fcd770"/><path d="m44 42c1.2-.28 2.33-.95 3.08-1.94.27-.35.48-.74.63-1.16l.29.1h8v4h-4-4-4z" fill="#fcd770"/><path d="m48 43v4 4 4h4v-4-4-4z" fill="#e6e9ed"/><path d="m32 43v4 4 4h4v-4-4-4z" fill="#e6e9ed"/><path d="m36 37.29c0 .58.11 1.12.3 1.61l-.3.1h-8v-1.54c2.36-1.43 5.18-2.38 8-2.46z" fill="#ff826e"/><path d="m48 35c3.13.09 6.27 1.23 8.77 2.95-.24.03-.5.05-.77.05v1h-8l-.29-.1c.19-.49.29-1.03.29-1.61z" fill="#ff826e"/><path d="m48 35v2.29c0 .58-.1 1.12-.29 1.61-.15.42-.36.81-.63 1.16l-.08-.06-5-2z" fill="#ffeaa7"/><path d="m42 38-5 2-.06.04c-.26-.34-.48-.72-.64-1.14-.19-.49-.3-1.03-.3-1.61v-2.29z" fill="#ffeaa7"/><path d="m37.09 31.83-.09.17-1 3c-2.82.08-5.64 1.03-8 2.46v-12.46c0-.66-.33-1.26-.83-1.62.67-2.56.83-5.38.83-5.38h4v6c0 3.36 2.05 6.3 5.09 7.83z" fill="#b27946"/><path d="m62 32.5s-.9 4.92-5.23 5.45c-2.5-1.72-5.64-2.86-8.77-2.95l-1-3-.09-.17c3.04-1.53 5.09-4.47 5.09-7.83v-6h4s0 14.5 6 14.5z" fill="#b27946"/><path d="m47 32 1 3-6 3-6-3 1-3 .09-.17c1.45.75 3.13 1.17 4.91 1.17s3.46-.42 4.91-1.17z" fill="#f0d0b4"/><path d="m32 18h20v6c0 3.36-2.05 6.3-5.09 7.83-1.45.75-3.13 1.17-4.91 1.17s-3.46-.42-4.91-1.17c-3.04-1.53-5.09-4.47-5.09-7.83z" fill="#f0d0b4"/><path d="m40 2.14v11.86h-4v-4h-2v-5.7c1.79-1.11 3.85-1.87 6-2.16z" fill="#ffeaa7"/><path d="m32 10v4h-4c0-3.99 2.47-7.52 6-9.7v5.7z" fill="#ffeaa7"/><path d="m50 4.3c3.53 2.18 6 5.71 6 9.7h-4v-4h-2z" fill="#ffeaa7"/><path d="m50 4.3v5.7h-2v4h-4v-11.86c2.15.29 4.21 1.05 6 2.16z" fill="#ffeaa7"/><path d="m58 14v4h-2-4-20-4-2v-4h2 4 4 4 4 4 4 4z" fill="#fcd770"/><path d="m44 2.14v11.86h-4v-11.86c.66-.09 1.33-.14 2-.14s1.34.05 2 .14z" fill="#ffc729"/><path d="m36 10v4h-4v-4h2z" fill="#ffc729"/><path d="m52 10v4h-4v-4h2z" fill="#ffc729"/><path d="m27.17 23.38c-.33-.24-.73-.38-1.17-.38h-22c-1.1 0-2 .9-2 2v35c0 1.1.9 2 2 2h22c1.1 0 2-.9 2-2v-5-12-4-1.54-12.46c0-.66-.33-1.26-.83-1.62z" fill="#969faa"/><path d="m23 42v20h-16v-20z" fill="#e6e9ed"/><path d="m7 28h16v10h-4c0-2.21-1.79-4-4-4s-4 1.79-4 4h-4z" fill="#69d6f4"/><path d="m19 38h-4v-4c2.21 0 4 1.79 4 4z" fill="#fcd770"/><path d="m15 34v4h-4c0-2.21 1.79-4 4-4z" fill="#fcd770"/><path d="m58.885 38.362c2.585-1.244 3.797-4.023 4.099-5.683l.215-1.179h-1.199c-3.738 0-4.823-8.404-4.978-12.5h1.978v-6h-2.063c-.634-6.498-7.335-12-14.937-12s-14.303 5.502-14.937 12h-2.063v6h1.912c-.08.777-.221 1.893-.457 3.046-.15-.023-.299-.046-.455-.046h-22c-1.654 0-3 1.346-3 3v35c0 1.654 1.346 3 3 3h22c1.654 0 3-1.346 3-3v-4h34v-10c0-2.722-1.626-5.461-4.115-7.638zm-23.885 5.638v2h-2v-2zm0 6h-2v-2h2zm-2 2h2v2h-2zm4-8h2v10h-2zm-8-2v-2h6.715c.471.822 1.138 1.491 1.888 2zm6.062-4h-5.951c1.868-1.035 3.903-1.715 5.888-1.93v1.224c.001.245.034.475.063.706zm-2.062-19h18v5c0 4.411-4.037 8-9 8s-9-3.589-9-8zm16 18.294v-1.224c2.076.223 4.122.928 5.926 1.93h-5.986c.028-.231.06-.46.06-.706zm-7-3.294c1.541 0 3.008-.292 4.341-.815l.436 1.308-4.777 2.389-4.777-2.389.436-1.308c1.333.523 2.8.815 4.341.815zm-4.655 4.785c-.213-.444-.345-.939-.345-1.491v-.676l2.561 1.28zm9.655-2.167v.676c0 .558-.125 1.055-.329 1.497l-2.232-.893zm1.314 3.382h6.686v2h-8.541c.747-.505 1.398-1.174 1.855-2zm2.686 10h-2v-2h2zm0-6v2h-2v-2zm-2 8h2v2h-2zm4-8h2v10h-2zm7.725-10.678c-.45 1.216-1.51 3.144-3.762 3.582-2.398-1.566-5.28-2.626-8.224-2.851l-.589-1.766c2.924-1.799 4.85-4.842 4.85-8.287v-5h2.018c.106 3.336.838 12.899 5.707 14.322zm-5.789-20.322h-1.936v-4h-2v-2.772c2.162 1.795 3.63 4.184 3.936 6.772zm-7.936-4v4h-2v-9.664c1.428.311 2.78.827 4 1.517v4.147zm2 2h2v2h-2zm-6-7.954v9.954h-2v-9.954c.332-.024.664-.046 1-.046s.668.022 1 .046zm-8 7.954v2h-2v-2zm0-2v-4.147c1.22-.69 2.572-1.206 4-1.517v9.664h-2v-4zm-2-2.772v2.772h-2v4h-1.936c.306-2.588 1.774-4.977 3.936-6.772zm-6 8.772h30v2h-30zm4 4v5c0 3.445 1.926 6.488 4.851 8.287l-.586 1.759c-2.096.162-4.253.764-6.265 1.744v-10.79c0-.738-.278-1.406-.722-1.929.362-1.558.552-3.114.644-4.071zm-9 42h-14v-18h14zm5-1c0 .552-.448 1-1 1h-2v-20h-18v20h-2c-.552 0-1-.448-1-1v-35c0-.552.448-1 1-1h22c.552 0 1 .448 1 1zm2-16h2v10h-2zm14-2.797v12.797h-2v-12.786l-.765-.186c-.499-.121-1.005-.35-1.469-.658l3.188-1.275.046.023.046-.023 3.216 1.286c-.463.303-.972.526-1.486.643zm2 2.797h2v10h-2zm12 10v-2h4v2zm4-4h-4v-10.632c2.394 1.87 4 4.283 4 6.632z"/><path d="m10 49h2v2h-2z"/><path d="m14 49h2v2h-2z"/><path d="m18 49h2v2h-2z"/><path d="m10 53h2v2h-2z"/><path d="m14 53h2v2h-2z"/><path d="m18 53h2v2h-2z"/><path d="m10 57h2v2h-2z"/><path d="m14 57h2v2h-2z"/><path d="m18 57h2v2h-2z"/><path d="m6 39h18v-12h-18zm10-3.816c.847.302 1.514.969 1.816 1.816h-1.816zm-2 1.816h-1.816c.302-.847.969-1.514 1.816-1.816zm-6-8h14v8h-2.101c-.399-1.956-1.943-3.5-3.899-3.899v-2.101h-2v2.101c-1.956.399-3.5 1.943-3.899 3.899h-2.101z"/><circle cx="15" cy="46" r="1"/><path d="m41 23h2v2h-2z"/><path d="m42 30c1.654 0 3-1.346 3-3h-2c0 .552-.448 1-1 1s-1-.448-1-1h-2c0 1.654 1.346 3 3 3z"/><circle cx="48" cy="22" r="1"/><circle cx="36" cy="22" r="1"/></svg>