<svg id="Layer_6" enable-background="new 0 0 64 64" height="512" viewBox="0 0 64 64" width="512" xmlns="http://www.w3.org/2000/svg"><path d="m56 42.33c3.62 2.51 6 6.8 6 11.67v6h-6v-12-4z" fill="#b4dd7f"/><path d="m38 43s0 3 4 3 4-3 4-3v1c0 1.54-.61 2.94-1.59 4-1.11 1.23-2.71 2-4.41 2v7l-.01.04c-.23-.04-.39-.04-.39-.04h-1.6-2v-7c-1.7 0-3.3-.77-4.41-2-.98-1.06-1.59-2.46-1.59-4v-1s0 3 4 3 4-3 4-3z" fill="#b4dd7f"/><path d="m56 44v4h-11.59c.98-1.06 1.59-2.46 1.59-4z" fill="#e6e9ed"/><path d="m31.59 48h-6.59v-4h5c0 1.54.61 2.94 1.59 4z" fill="#e6e9ed"/><g fill="#ff826e"><path d="m56 48v12h-14l-.04-.01c.03-.15.04-.31.04-.49 0-1.86-1.33-2.34-2.01-2.46l.01-.04v-7c1.7 0 3.3-.77 4.41-2z"/><path d="m36 50v7h-2-9v-9h6.59c1.11 1.23 2.71 2 4.41 2z"/><path d="m30 43v1h-5v-3.78c.77-.14 1.57-.22 2.39-.22h2.61z"/><path d="m55.48 41.99c.18.11.35.22.52.34v1.67h-10v-1-3h2.61c2.51 0 4.86.73 6.87 1.99z"/></g><path d="m25 32h-7.02c2.02-5.29 2.02-14 2.02-14 0-9.94 8.06-16 18-16s18 6.06 18 16c0 0 0 19 6 19 0 0-1.87 4.68-6.52 4.99-2.01-1.26-4.36-1.99-6.87-1.99h-2.61l-.24-.88-1.07-3.82c3.18-1.74 5.61-4.67 6.69-8.19.4-1.3.62-2.68.62-4.11v-4c-10 0-14-6-14-6s-4 6-14 6v4c0 1.43.22 2.81.62 4.11 1.08 3.53 3.51 6.46 6.7 8.19l-1.07 3.82-.25.88h-2.61c-.82 0-1.62.08-2.39.22z" fill="#656d78"/><path d="m46 40v3s0 3-4 3-4-3-4-3l7.76-3.88z" fill="#ffeaa7"/><path d="m30 40 .25-.88 7.75 3.88s0 3-4 3-4-3-4-3z" fill="#ffeaa7"/><path d="m21 36v21h-.62l-1.75 1h-12.63v-22h4 7z" fill="#e6e9ed"/><path d="m10 45h6v6h-6z" fill="#ff826e"/><path d="m21 57v5h-.62l-4.38-2.5 2.63-1.5 1.75-1z" fill="#aab2bd"/><path d="m38 62v-5h1.6s.16 0 .39.04c.68.12 2.01.6 2.01 2.46 0 .18-.01.34-.04.49-.29 2.01-2.36 2.01-2.36 2.01z" fill="#aab2bd"/><path d="m38 57v5h-4v-5h2z" fill="#ffc729"/><path d="m34 57v5h-13v-5h4z" fill="#fcd770"/><path d="m10 32h7v4h-7z" fill="#fcd770"/><path d="m20.38 62h-18.38v-30h8v4h-4v22h12.63l-2.63 1.5z" fill="#cf9e76"/><path d="m17.98 32h7.02v8.22 3.78 4 9h-4v-21h-4v-4z" fill="#cf9e76"/><path d="m45.76 39.12-7.76 3.88-7.75-3.88 1.07-3.82c1.99 1.08 4.26 1.7 6.68 1.7s4.7-.62 6.69-1.7z" fill="#f0d0b4"/><path d="m51 27 .38.11c-1.08 3.52-3.51 6.45-6.69 8.19-1.99 1.08-4.27 1.7-6.69 1.7s-4.69-.62-6.68-1.7c-3.19-1.73-5.62-4.66-6.7-8.19l.38-.11h7c.63 0 1.22-.3 1.6-.8l1.8-2.4c.38-.5.97-.8 1.6-.8h2c.63 0 1.22.3 1.6.8l1.8 2.4c.38.5.97.8 1.6.8z" fill="#f0d0b4"/><path d="m32 27h-7l-.38.11c-.4-1.3-.62-2.68-.62-4.11v-4c10 0 14-6 14-6s4 6 14 6v4c0 1.43-.22 2.81-.62 4.11l-.38-.11h-7c-.63 0-1.22-.3-1.6-.8l-1.8-2.4c-.38-.5-.97-.8-1.6-.8h-2c-.63 0-1.22.3-1.6.8l-1.8 2.4c-.38.5-.97.8-1.6.8z" fill="#69d6f4"/><path d="m18.707 43.707-1.414-1.414-1.707 1.707h-6.586v8h8v-6.586zm-3.707 6.293h-4v-4h2.586l-1.293 1.293 1.414 1.414 1.293-1.293z"/><path d="m37 27h2v2h-2z"/><path d="m38 34c1.654 0 3-1.346 3-3h-2c0 .552-.449 1-1 1s-1-.448-1-1h-2c0 1.654 1.346 3 3 3z"/><circle cx="30" cy="23" r="1"/><circle cx="46" cy="23" r="1"/><path d="m57.825 42.493c3.551-1.348 5.029-4.935 5.104-5.122l.548-1.371h-1.477c-3.446 0-4.999-10.526-5-18 0-10.01-7.813-17-19-17s-19 6.99-19 17c0 .082-.025 7.886-1.728 13h-16.272v32h38.6c1.055 0 2.497-.565 3.105-2h20.295v-7c0-4.619-2.016-8.753-5.175-11.507zm-39.462 14.507h-11.363v-20h13v19.065zm5.637-24v23h-2v-21h-4v-2zm-8 2h-5v-2h5zm6 23h11v3h-11zm3-35v-3.02c7.323-.285 11.382-3.666 13-5.408 1.618 1.742 5.677 5.123 13 5.408v3.02c0 1.034-.134 2.035-.363 3h-6.637c-.313 0-.612-.149-.8-.399l-1.801-2.401c-.564-.752-1.461-1.2-2.399-1.2h-2c-.938 0-1.835.448-2.4 1.2l-1.799 2.4c-.189.251-.488.4-.801.4h-6.637c-.229-.965-.363-1.966-.363-3zm7 5c.938 0 1.835-.448 2.4-1.2l1.799-2.399c.189-.252.488-.401.801-.401h2c.313 0 .612.149.8.399l1.801 2.401c.564.752 1.461 1.2 2.399 1.2h5.997c-1.963 4.693-6.6 8-11.997 8s-10.034-3.307-11.997-8zm3 28h-9v-7h5.157c1.037 1.006 2.374 1.704 3.843 1.925zm-6-13h-3v-1.909c.468-.054.934-.091 1.39-.091h1.61zm-3 4v-2h3.082c.106.703.315 1.376.62 2zm5-4.014v-2.368l5.878 2.939c-.23.593-.902 1.443-2.878 1.443-2.799 0-2.99-1.678-3-2.014zm11 2.014c-1.973 0-2.648-.832-2.88-1.442l5.88-2.94v2.382c0 .082-.034 2-3 2zm2.613-6.425-6.613 3.307-6.613-3.307.476-1.903c1.876.846 3.949 1.328 6.137 1.328s4.261-.482 6.137-1.327zm-14.379-2.766-.204-.051-.811 3.242h-1.829c-.458 0-.923.028-1.39.075v-7.113c1.152 1.538 2.587 2.845 4.234 3.847zm4.766 22.191h2v3h-2zm4-9v7h-2v-7h-1c-1.74 0-3.298-.95-4.196-2.343.607.212 1.328.343 2.196.343 1.994 0 3.246-.665 4-1.502.754.837 2.006 1.502 4 1.502.868 0 1.589-.131 2.196-.343-.898 1.393-2.456 2.343-4.196 2.343zm7.918-4h8.082v2h-8.703c.306-.624.515-1.297.621-2zm.082-2v-2h1.609c2.34 0 4.522.696 6.391 1.884v.116zm-26-25c0-8.832 6.991-15 17-15s17 6.168 17 15c0 .197.009 4.884.762 9.656.896 5.676 2.486 9.038 4.738 10.031-.759 1.19-2.318 2.974-4.832 3.255-2.088-1.231-4.494-1.942-7.059-1.942h-1.828l-.811-3.242-.204.051c4.328-2.634 7.234-7.382 7.234-12.809v-5h-1c-9.294 0-13.016-5.331-13.168-5.555l-.832-1.248-.832 1.248c-.037.056-3.812 5.555-13.168 5.555h-1v5c0 2.943.864 5.681 2.333 8h-5.964c1.606-5.378 1.631-12.665 1.631-13zm-18 43v-28h6v2h-4v24h9.859l-.876.5 2.628 1.5zm15.893-2h.107v-.061l1-.571v2.264l-1.983-1.132zm20.707 2h-.6v-3h.59c.424.01 1.41.175 1.41 1.5s-.986 1.49-1.4 1.5zm1.4-4.689v-5.387c1.469-.221 2.806-.919 3.843-1.925h10.157v10h-12.051c-.168-1.44-1.014-2.285-1.949-2.688zm20 2.689h-4v-14.538c2.453 2.377 4 5.767 4 9.538z"/></svg>