<svg id="Layer_6" enable-background="new 0 0 64 64" height="512" viewBox="0 0 64 64" width="512" xmlns="http://www.w3.org/2000/svg"><path d="m16 47v4h-7.86c.67-4.85 3.71-8.9 7.86-10.81v2.81z" fill="#b4dd7f"/><path d="m28 51h6v7h-6v-1c.8 0 2-1 2-2v-2c0-1.1-.9-2-2-2z" fill="#b4dd7f"/><path d="m48 40.19c4.15 1.91 7.2 5.96 7.86 10.81h-7.86v-4-4z" fill="#b4dd7f"/><path d="m56 53v5h-8v-7h7.86c.09.65.14 1.32.14 2z" fill="#f0d0b4"/><path d="m16 43h8v4h-8z" fill="#ff826e"/><path d="m37.95 46.93c1.22-.9 2.05-2.18 2.05-3.93h8v4h-10z" fill="#ff826e"/><path d="m30 53v2c0 1-1.2 2-2 2h-4-14c-1.1 0-2-.9-2-2v-2c0-.68.14-2 .14-2h7.86 8 4c1.1 0 2 .9 2 2z" fill="#f0d0b4"/><path d="m28 58v4h-4v-5h4z" fill="#b27946"/><path d="m28 39v12h-4v-4-4-4z" fill="#b27946"/><path d="m16 47h8v4h-8z" fill="#fcd770"/><path d="m16 40.19c1.65-.77 3.47-1.19 5.39-1.19h2.61v4h-8z" fill="#fcd770"/><path d="m48 51v7h-14v-7h2v-3c.7-.27 1.37-.62 1.95-1.07l.05.07h10z" fill="#fcd770"/><path d="m48 40.19v2.81h-8v-4h2.61c1.92 0 3.74.42 5.39 1.19z" fill="#fcd770"/><path d="m36 48v3h-2-6v-12h8z" fill="#e6e9ed"/><path d="m17 20c-1.66 0-3 1.34-3 3v-5c0-9.94 8.06-16 18-16s18 6.06 18 16v5c0-1.66-1.34-3-3-3h-1v-2c-6 0-10-4-10-4-1 3-3.01 5-5 5l-1-6s-5 5-12 5v2z" fill="#b27946"/><g fill="#f0d0b4"><path d="m40 43c0 1.75-.83 3.03-2.05 3.93-.58.45-1.25.8-1.95 1.07v-9h-8-4l.98-4.89c2.24 1.31 4.89 2 7.7 1.87 2.31-.11 4.46-.79 6.33-1.91l.99 4.93z"/><path d="m47 20c1.66 0 3 1.34 3 3s-1.34 3-3 3h-1.68c.44-1.4.68-2.88.68-4.4v-1.6z"/><path d="m45.32 26c-1.06 3.39-3.33 6.28-6.31 8.07-1.87 1.12-4.02 1.8-6.33 1.91-2.81.13-5.46-.56-7.7-1.87-3.05-1.77-5.37-4.66-6.4-8.11h.42 7.17c.53 0 1.04-.21 1.42-.59l1.82-1.82c.38-.38.89-.59 1.42-.59h2.34c.53 0 1.04.21 1.42.59l1.82 1.82c.38.38.89.59 1.42.59h7.17z"/><path d="m18.58 26h-1.58c-1.66 0-3-1.34-3-3s1.34-3 3-3h1v2c0 1.39.2 2.73.58 4z"/></g><path d="m45 26h-7.17c-.53 0-1.04-.21-1.42-.59l-1.82-1.82c-.38-.38-.89-.59-1.42-.59h-2.34c-.53 0-1.04.21-1.42.59l-1.82 1.82c-.38.38-.89.59-1.42.59h-7.17-.42c-.38-1.27-.58-2.61-.58-4v-2-2c7 0 12-5 12-5l1 6c1.99 0 4-2 5-5 0 0 4 4 10 4v2 1.6c0 1.52-.24 3-.68 4.4z" fill="#69d6f4"/><path d="m31 26h2v2h-2z"/><path d="m35 30h-2c0 .552-.449 1-1 1s-1-.448-1-1h-2c0 1.654 1.346 3 3 3s3-1.346 3-3z"/><circle cx="24" cy="22" r="1"/><circle cx="40" cy="22" r="1"/><path d="m57 53c0-8.271-6.456-15-14.391-15h-1.789l-.691-3.454c2.693-1.782 4.781-4.421 5.915-7.546h.956c2.206 0 4-1.794 4-4v-5c0-10.01-7.813-17-19-17s-19 6.99-19 17v5c0 2.206 1.794 4 4 4h.865c.773 2.192 2.042 4.194 3.782 5.854.69.658 1.432 1.241 2.213 1.748l-.68 3.398h-.18-1.61c-7.113 0-13.235 5.53-14.245 12.895-.005.055-.145 1.38-.145 2.105v2c0 1.654 1.346 3 3 3h13v5h6v-4h28zm-2.346-3h-5.654v-8.116c2.801 1.779 4.876 4.683 5.654 8.116zm-23.838 2h2.184v5h-2.918c.536-.542.918-1.248.918-2v-2c0-.352-.072-.686-.184-1zm-7.816-6h-6v-2h6zm-6 2h6v2h-6zm8-8h2v10h-2zm4 0h6v10h-6zm6 12h2v-3.357c.418-.195.81-.407 1.166-.643h8.834v9h-12zm5.916-8h6.084v2h-6.849c.378-.613.645-1.278.765-2zm1.693-4c1.548 0 3.024.312 4.391.859v1.141h-6v-2zm-23.609-18v-3.031c4.7-.295 8.401-2.601 10.304-4.062l.849 5.093h.847c2.127 0 4.158-1.664 5.414-4.342 1.542 1.172 4.579 3.033 8.586 3.308v2.639c0 1.175-.159 2.309-.433 3.396h-6.739c-.267 0-.519-.104-.708-.293l-1.828-1.828c-.565-.568-1.319-.88-2.121-.88h-2.343c-.801 0-1.555.312-2.122.879l-1.828 1.828c-.188.189-.44.293-.707.293h-6.813c-.228-.972-.358-1.974-.358-3zm28 3h-.377c.238-1.094.377-2.227.377-3.396v-.604c1.103 0 2 .897 2 2s-.897 2-2 2zm-15-22c10.009 0 17 6.168 17 15v1.556c-.591-.344-1.268-.556-2-.556v-2h-1c-5.491 0-9.257-3.672-9.293-3.707l-1.144-1.145-.512 1.535c-.698 2.094-1.951 3.667-3.231 4.156l-1.153-6.921-1.374 1.374c-.047.048-4.783 4.708-11.293 4.708h-1v2c-.732 0-1.409.212-2 .556v-1.556c0-8.832 6.991-15 17-15zm-15 22c-1.103 0-2-.897-2-2s.897-2 2-2v1c0 1.021.102 2.024.299 3zm2.996 2h6.176c.801 0 1.555-.312 2.122-.879l1.828-1.828c.188-.189.44-.293.707-.293h2.343c.267 0 .519.104.708.293l1.828 1.828c.565.567 1.319.879 2.121.879h6.069c-1.924 4.524-6.188 7.746-11.268 7.985-3.593.166-7.006-1.102-9.602-3.578-1.331-1.269-2.35-2.768-3.032-4.407zm11.997 10c.243 0 .486-.005.731-.017 1.989-.094 3.87-.583 5.576-1.389l.7 3.505v3.901c0 1.616-.92 2.676-2 3.374v-8.374h-8-1-2.78l.479-2.396c1.951.907 4.082 1.396 6.294 1.396zm-8.993 3v2h-6v-1.137c1.374-.553 2.853-.863 4.39-.863zm-8 1.895v8.105h-5.663c.779-3.446 2.879-6.331 5.663-8.105zm-6 13.105v-2c0-.256.024-.64.053-1h18.947c.551 0 1 .448 1 1v2c0 .397-.703.992-1 1h-18c-.551 0-1-.448-1-1zm16 6v-3h2v3zm30-4h-6v-5h5.952c.024.331.048.662.048 1z"/></svg>