<svg id="Layer_6" enable-background="new 0 0 64 64" height="512" viewBox="0 0 64 64" width="512" xmlns="http://www.w3.org/2000/svg"><path d="m51.23 44.68c3.5 2.54 5.77 6.67 5.77 11.32v6h-6v-17z" fill="#ff826e"/><path d="m13 45v17h-6v-6c0-4.65 2.27-8.78 5.77-11.32z" fill="#ff826e"/><path d="m37 51h.31c-.55.37-1.16.64-1.81.81-.88.23-1.5 1.02-1.5 1.93v8.26h-4v-8.26c0-.91-.62-1.7-1.5-1.93-.65-.17-1.26-.44-1.81-.81h.31l5-4z" fill="#ff826e"/><path d="m28.5 51.81c-.65-.17-1.26-.44-1.81-.81-1.62-1.07-2.69-2.91-2.69-5v-4h-3c-3.07 0-5.92.99-8.23 2.68l.23.32v17h17v-8.26c0-.91-.62-1.7-1.5-1.93z" fill="#e6e9ed"/><path d="m43 42h-3v4c0 2.09-1.07 3.93-2.69 5-.55.37-1.16.64-1.81.81-.88.23-1.5 1.02-1.5 1.93v8.26h17v-17l.23-.32c-2.31-1.69-5.16-2.68-8.23-2.68z" fill="#e6e9ed"/><g fill="#fcd770"><path d="m32 47-5 4h-.31c-1.62-1.07-2.69-2.91-2.69-5v-4z"/><path d="m40 42v4c0 2.09-1.07 3.93-2.69 5h-.31l-5-4z"/><path d="m17 55h9v7h-9z"/><path d="m38 55h9v7h-9z"/></g><path d="m39.03 38.1.97 3.9-8 5-8-5 .97-3.9c2.07 1.21 4.47 1.9 7.03 1.9s4.96-.69 7.03-1.9z" fill="#f0d0b4"/><path d="m50 29c0 1.66-1.34 3-3 3h-2l-.29-.13c.83-1.78 1.29-3.77 1.29-5.87h1c1.66 0 3 1.34 3 3z" fill="#f0d0b4"/><path d="m17 32c-1.66 0-3-1.34-3-3s1.34-3 3-3h1c0 2.1.46 4.09 1.29 5.87l-.29.13z" fill="#f0d0b4"/><path d="m46 24v2c0 2.1-.46 4.09-1.29 5.87-1.21 2.62-3.2 4.8-5.68 6.23l-.03-.1v-2c0-2.76-2.24-5-5-5h-2-2c-2.76 0-5 2.24-5 5v2l-.03.1c-2.48-1.43-4.47-3.61-5.68-6.23-.83-1.78-1.29-3.77-1.29-5.87v-2-1h28z" fill="#f0d0b4"/><path d="m34 31c2.76 0 5 2.24 5 5v2l.03.1c-2.07 1.21-4.47 1.9-7.03 1.9s-4.96-.69-7.03-1.9l.03-.1v-2c0-2.76 2.24-5 5-5h2z" fill="#cf9e76"/><path d="m17 26c-1.66 0-3 1.34-3 3v-6h4v1 2z" fill="#656d78"/><path d="m50 23v6c0-1.66-1.34-3-3-3h-1v-2-1z" fill="#656d78"/><path d="m30 14v5h-6v-1c0-2.21-1.79-4-4-4h-5l-.19-.06c2.09-6.34 8-11.09 15.19-11.83v6.89z" fill="#ffeaa7"/><path d="m34 14v-5-6.89c7.19.74 13.1 5.49 15.19 11.83l-.19.06h-5c-2.21 0-4 1.79-4 4v1h-6z" fill="#ffeaa7"/><path d="m14 19h10 6 4 6 10 2v4h-2-4-28-4-2v-4z" fill="#fcd770"/><path d="m24 18v1h-10c0-1.76.28-3.46.81-5.06l.19.06h5c2.21 0 4 1.79 4 4z" fill="#fcd770"/><path d="m50 19h-10v-1c0-2.21 1.79-4 4-4h5l.19-.06c.53 1.6.81 3.3.81 5.06z" fill="#fcd770"/><path d="m34 14v5h-4v-5-5-6.89c.66-.07 1.32-.11 2-.11s1.34.04 2 .11v6.89z" fill="#fcd770"/><path d="m32 35c-.551 0-1-.449-1-1h-2c0 1.654 1.346 3 3 3s3-1.346 3-3h-2c0 .551-.449 1-1 1z"/><circle cx="24" cy="27" r="1"/><circle cx="40" cy="27" r="1"/><path d="m43 41h-2.219l-.61-2.438c2.131-1.391 3.888-3.304 5.085-5.562h1.744c2.206 0 4-1.794 4-4v-5h2v-6h-2.053c-.553-9.459-8.827-17-18.947-17s-18.394 7.541-18.947 17h-2.053v6h2v5c0 2.206 1.794 4 4 4h1.744c1.197 2.258 2.954 4.171 5.085 5.562l-.61 2.438h-2.219c-8.271 0-15 6.729-15 15v7h24 1 2 1 24v-7c0-8.271-6.729-15-15-15zm-5.834 8.853-3.44-2.752 5.274-3.297v2.196c0 1.534-.707 2.925-1.834 3.853zm-5.166-10.853c-2.172 0-4.218-.542-6.02-1.489l.02-1.511c0-2.206 1.794-4 4-4h4c2.206 0 4 1.794 4 4v1.521c-1.797.94-3.835 1.479-6 1.479zm15-8h-.875c.449-1.265.732-2.605.825-4h.05c1.103 0 2 .897 2 2s-.897 2-2 2zm2-5.444c-.591-.344-1.268-.556-2-.556v-1h2zm-.054-7.556h-7.946c0-1.654 1.346-3 3-3h4.441c.266.969.437 1.97.505 3zm-1.198-5h-3.748c-2.757 0-5 2.243-5 5h-4v-3h2v-2h-2v-3h4v-2h-4v-4.735c5.8.977 10.584 4.722 12.748 9.735zm-14.748-9.952v14.952h-2v-14.952c.333-.019.662-.048 1-.048s.667.029 1 .048zm-4 .217v4.735h-4v2h4v3h-2v2h2v3h-4c0-2.757-2.243-5-5-5h-3.748c2.164-5.013 6.948-8.758 12.748-9.735zm-13.441 11.735h4.441c1.654 0 3 1.346 3 3h-7.946c.068-1.03.239-2.031.505-3zm-2.559 5h38v2h-38zm4 4v1c-.732 0-1.409.212-2 .556v-1.556zm0 7c-1.103 0-2-.897-2-2s.897-2 2-2h.051c.093 1.395.375 2.735.825 4zm2-5v-2h26v2c0 4.151-1.962 7.844-5 10.226v-.226c0-3.309-2.691-6-6-6h-1v-2h-2v2h-1c-3.309 0-6 2.691-6 6v.226c-3.038-2.382-5-6.075-5-10.226zm13 15c2.283 0 4.439-.528 6.378-1.443l.48 1.978-6.858 4.286-6.853-4.283.493-1.972c1.934.91 4.084 1.434 6.36 1.434zm-5.166 8.853c-1.127-.928-1.834-2.319-1.834-3.853v-2.196l5.274 3.296zm-18.834 6.147c0-3.675 1.54-6.992 4-9.359v14.359h-4zm17 5h-7v-5h7zm4 0h-2v-7h-11v7h-2v-15.937c2.023-1.3 4.422-2.063 7-2.063h2v3c0 1.476.477 2.854 1.277 4h-8.277v2h10.428c.56.333 1.161.609 1.817.778.444.115.755.51.755.962zm2 0v-7.26c0-1.35-.911-2.529-2.218-2.885l3.218-2.575 3.217 2.574c-1.306.356-2.217 1.536-2.217 2.886v7.26zm4-7.26c0-.452.311-.847.755-.962.655-.169 1.257-.445 1.817-.778h10.428v-2h-8.277c.8-1.146 1.277-2.524 1.277-4v-3h2c2.578 0 4.977.763 7 2.063v15.937h-2v-7h-11v7h-2zm11 7.26h-7v-5h7zm10 0h-4v-14.359c2.46 2.367 4 5.684 4 9.359z"/></svg>