<svg id="Layer_6" enable-background="new 0 0 64 64" height="512" viewBox="0 0 64 64" width="512" xmlns="http://www.w3.org/2000/svg"><path d="m18 36v10h-6v-3.24c0-3.19 2.5-6.33 6-8.39z" fill="#b4dd7f"/><path d="m32 35 5 2 .08.06c-.75.99-1.88 1.66-3.08 1.94v9 1h-4v-1-9c-1.2-.28-2.33-.95-3.08-1.94l.08-.06z" fill="#b4dd7f"/><path d="m46 34.37c3.5 2.06 6 5.2 6 8.39v3.24h-6v-10z" fill="#b4dd7f"/><path d="m46 36v10h-4v-2.45s0-1.55-2-1.55-2 1.55-2 1.55v2.45h-2c-1.1 0-2 .9-2 2v-9c1.2-.28 2.33-.95 3.08-1.94.27-.35.48-.74.63-1.16l.29.1z" fill="#e6e9ed"/><path d="m28 46h-2v-2.45s0-1.55-2-1.55-2 1.55-2 1.55v2.45h-4v-10h8l.29-.1c.15.42.36.81.63 1.16.75.99 1.88 1.66 3.08 1.94v9c0-1.1-.9-2-2-2z" fill="#e6e9ed"/><path d="m38 34.29c0 .58-.1 1.12-.29 1.61-.15.42-.36.81-.63 1.16l-.08-.06-5-2 6-3z" fill="#ffeaa7"/><path d="m32 35-5 2-.08.06c-.27-.35-.48-.74-.63-1.16-.19-.49-.29-1.03-.29-1.61v-2.29z" fill="#ffeaa7"/><path d="m26 34.29c0 .58.1 1.12.29 1.61l-.29.1h-8v-1.63c2.36-1.39 5.18-2.29 8-2.37z" fill="#ff826e"/><path d="m38 32c2.82.08 5.64.98 8 2.37v1.63h-8l-.29-.1c.19-.49.29-1.03.29-1.61z" fill="#ff826e"/><path d="m52 46v4c0 1.1-.9 2-2 2h-8-4-2c-1.1 0-2-.9-2-2v-1-1c0-1.1.9-2 2-2h2 4 4z" fill="#f0d0b4"/><path d="m30 48v1 1c0 1.1-.9 2-2 2h-2-4-8c-1.1 0-2-.9-2-2v-4h6 4 4 2c1.1 0 2 .9 2 2z" fill="#f0d0b4"/><path d="m26 57-2 4-2-4z" fill="#fcd770"/><path d="m22 52h4v5h-4z" fill="#838f9b"/><path d="m26 43.55v2.45h-4v-2.45s0-1.55 2-1.55 2 1.55 2 1.55z" fill="#838f9b"/><path d="m42 43.55v2.45h-4v-2.45s0-1.55 2-1.55 2 1.55 2 1.55z" fill="#838f9b"/><g fill="#f0d0b4"><path d="m32 35-6-3 .78-2.33c1.52.85 3.31 1.33 5.22 1.33s3.7-.48 5.22-1.33l.78 2.33z"/><path d="m46 21c0 1.66-1.12 3-2.5 3h-1.5l-.23-.06c.15-.62.23-1.27.23-1.94v-1-3h1.5c1.38 0 2.5 1.34 2.5 3z"/><path d="m22 16v2 3 1c0 .67.08 1.32.23 1.94.6 2.42 2.27 4.48 4.55 5.73 1.52.85 3.31 1.33 5.22 1.33s3.7-.48 5.22-1.33c2.28-1.25 3.95-3.31 4.55-5.73.15-.62.23-1.27.23-1.94v-1-3-2z"/><path d="m22 22c0 .67.08 1.32.23 1.94l-.23.06h-1.5c-1.38 0-2.5-1.34-2.5-3s1.12-3 2.5-3h1.5v3z"/></g><path d="m41 21c0 1.66-1.34 3-3 3s-3-1.34-3-3c0-.33.05-.65.16-.94.39-1.2 1.51-2.06 2.84-2.06 1.66 0 3 1.34 3 3z" fill="#69d6f4"/><path d="m28.84 20.06c.11.29.16.61.16.94 0 1.66-1.34 3-3 3s-3-1.34-3-3 1.34-3 3-3c1.33 0 2.45.86 2.84 2.06z" fill="#69d6f4"/><path d="m30 8v4h-10c0-4.52 3.97-9.04 10-9.86z" fill="#ffeaa7"/><path d="m34 8v-5.86c6.03.82 10 5.34 10 9.86h-10z" fill="#ffeaa7"/><path d="m46 12v4h-4-20-4v-4h2 10 4 10z" fill="#fcd770"/><path d="m32 2c-.69 0-1.35.05-2 .14v5.86 4h4v-4-5.86c-.65-.09-1.31-.14-2-.14z" fill="#ffc729"/><path d="m38.738 31.052-.316-.949c1.9-1.248 3.352-3.027 4.071-5.102h1.007c1.93 0 3.5-1.794 3.5-4s-1.57-4-3.5-4h3.5v-6h-2.059c-.578-4.986-5.416-10.001-12.941-10.001s-12.363 5.015-12.941 10h-2.059v6h3.5c-1.93 0-3.5 1.794-3.5 4s1.57 4 3.5 4h1.007c.72 2.076 2.171 3.854 4.071 5.102l-.316.949c-7.426.543-14.262 6.072-14.262 11.714v2.235 1 4c0 1.654 1.346 3 3 3h7v4.236l3 6 3-6v-4.236h1c1.654 0 3-1.346 3-3h2c0 1.654 1.346 3 3 3h.484l-2.536 5.916 1.082 4.326 1.939-.484-.918-3.674 2.608-6.084h2.682l2.607 6.084-.918 3.674 1.939.484 1.082-4.326-2.535-5.916h6.484c1.654 0 3-1.346 3-3v-4-1-2.235c0-5.642-6.836-11.171-14.262-11.713zm4.262 13.948v-1.45c0-1.025-.799-2.55-3-2.55s-3 1.524-3 2.55v1.45h-1c-.352 0-.686.072-1 .184v-5.439c1.329-.482 2.576-1.412 3.314-2.745h6.686v8zm-4 0-.001-1.422c.018-.264.205-.578 1.001-.578s.983.314 1 .55v1.45zm-10 .184c-.314-.112-.648-.184-1-.184h-1v-1.45c0-1.025-.799-2.55-3-2.55s-3 1.524-3 2.55v1.45h-2v-8h6.686c.738 1.333 1.985 2.264 3.314 2.745zm-6-.184-.001-1.422c.018-.264.205-.578 1.001-.578s.983.314 1 .55v1.45zm4.329-9.209c-.204-.442-.329-.939-.329-1.497v-.676l2.561 1.28zm9.671-1.497c0 .558-.125 1.055-.329 1.497l-2.232-.893 2.561-1.28zm2-1.227c2.122.215 4.189.9 6 1.878v.055h-6.06c.028-.231.06-.46.06-.706zm-1-16.067c-1.474 0-2.75.81-3.444 2h-5.112c-.694-1.19-1.97-2-3.444-2-1.201 0-2.266.542-3 1.382v-1.382h3 12 3v1.382c-.734-.84-1.799-1.382-3-1.382zm2 4c0 1.103-.897 2-2 2s-2-.897-2-2 .897-2 2-2 2 .897 2 2zm-12 0c0 1.103-.897 2-2 2s-2-.897-2-2 .897-2 2-2 2 .897 2 2zm17 0c0 1.084-.687 2-1.5 2h-.556c.036-.329.056-.662.056-1v-3h.5c.813 0 1.5.916 1.5 2zm-2.082-10h-7.918v-2h2v-2h-2v-3.661c4.549 1.031 7.431 4.328 7.918 7.661zm-11.918 0v-2h2v2zm2-7.957v3.957h-2v-3.957c.328-.023.658-.043 1-.043s.672.02 1 .043zm-4 .296v3.661h-2v2h2v2h-7.918c.487-3.333 3.369-6.63 7.918-7.661zm-10 11.661v-2h26v2zm1.5 8c-.813 0-1.5-.916-1.5-2s.687-2 1.5-2h.5v3c0 .338.02.671.056 1zm2.769.907c.716.673 1.673 1.093 2.731 1.093 2.206 0 4-1.794 4-4h4c0 2.206 1.794 4 4 4 1.058 0 2.015-.42 2.731-1.093-.966 3.492-4.509 6.093-8.731 6.093s-7.765-2.601-8.731-6.093zm8.731 8.093c1.656 0 3.222-.344 4.632-.943l.145.436-4.777 2.389-4.777-2.389.145-.436c1.41.599 2.976.943 4.632.943zm-6.94 3h-6.06v-.055c1.811-.978 3.878-1.663 6-1.878v1.227c0 .246.032.475.06.706zm-12.06 7.765c0-2.349 1.596-4.718 4-6.538v8.773h-4zm10.618 15.235h.764l-.382.764zm1.382-2h-2v-3h2zm4-6c0 .552-.448 1-1 1h-14c-.552 0-1-.448-1-1v-3h15c.552 0 1 .448 1 1zm2-2v-9.797l-.776-.178c-.513-.118-1.023-.341-1.486-.643l3.216-1.286.046.022.046-.023 3.216 1.286c-.463.303-.972.526-1.486.643l-.776.179v9.797zm20 2c0 .552-.448 1-1 1h-14c-.552 0-1-.448-1-1v-2c0-.552.448-1 1-1h15zm-4-5v-8.773c2.404 1.82 4 4.188 4 6.538v2.235z"/><path d="m35 25h-2c0 .552-.448 1-1 1s-1-.448-1-1h-2c0 1.654 1.346 3 3 3s3-1.346 3-3z"/></svg>