<svg id="Layer_6" enable-background="new 0 0 64 64" height="512" viewBox="0 0 64 64" width="512" xmlns="http://www.w3.org/2000/svg"><path d="m26.15 41.95c1.26 1.19 3.15 2.05 5.85 2.05h-13-2v8h-4v-12.91c2.35-1.32 5.08-2.09 8-2.09h2.94.06c0 1.52.61 3.49 2.15 4.95z" fill="#4fc1e9"/><path d="m17 44h30v18h-30z" fill="#e6e9ed"/><path d="m37.85 41.95c1.54-1.46 2.15-3.43 2.15-4.95h.06 2.94c2.92 0 5.65.77 8 2.09v12.91h-4v-8h-2-13c2.7 0 4.59-.86 5.85-2.05z" fill="#4fc1e9"/><path d="m13 39.09v12.91h-8c.07-5.33 3.26-10.24 8-12.91z" fill="#ccd1d9"/><path d="m59 52h-8v-12.91c4.74 2.67 7.93 7.58 8 12.91z" fill="#ccd1d9"/><path d="m24 55c0 .33-.05.65-.16.94-.14.45-.39.85-.72 1.18-.54.54-1.29.88-2.12.88h-4-10c-1.1 0-2-.9-2-2v-1-2.83c0-.06 0-.11 0-.17h8 4 4c1.66 0 3 1.34 3 3z" fill="#f0d0b4"/><path d="m59 55v1c0 1.1-.9 2-2 2h-10-4c-.83 0-1.58-.34-2.12-.88-.33-.33-.58-.73-.72-1.18l-.16-.94c0-1.66 1.34-3 3-3h4 4 8v.17z" fill="#f0d0b4"/><path d="m40 55 .16.94-.16.06h-1c-2.21 0-4-1.79-4-4s1.79-4 4-4 4 1.79 4 4c-1.66 0-3 1.34-3 3z" fill="#ff826e"/><path d="m31 56v6h-10v-4c.83 0 1.58-.34 2.12-.88.33-.33.58-.73.72-1.18l.16.06z" fill="#fcd770"/><path d="m32 40 5.85 1.95c-1.26 1.19-3.15 2.05-5.85 2.05s-4.59-.86-5.85-2.05z" fill="#ffeaa7"/><path d="m32 40 8-3c0 1.52-.61 3.49-2.15 4.95z" fill="#ccd1d9"/><path d="m32 40-5.85 1.95c-1.54-1.46-2.15-3.43-2.15-4.95z" fill="#ccd1d9"/><path d="m32.68 35.98c2.32-.11 4.47-.8 6.34-1.92l.98 2.94-8 3-8-3 .97-2.9c2.25 1.31 4.89 2.01 7.71 1.88z" fill="#f0d0b4"/><path d="m34 27c2.76 0 5 2.24 5 5v2l.02.06c-1.87 1.12-4.02 1.81-6.34 1.92-2.82.13-5.46-.57-7.71-1.88l.03-.1v-2c0-2.76 2.24-5 5-5h2z" fill="#cf9e76"/><g fill="#f0d0b4"><path d="m47 19c1.66 0 3 1.34 3 3s-1.34 3-3 3h-1.4c.26-1.1.4-2.24.4-3.4v-2.6z"/><path d="m39 32c0-2.76-2.24-5-5-5h-2-2c-2.76 0-5 2.24-5 5v2l-.03.1c-3.34-1.93-5.8-5.21-6.65-9.1-.21-.97-.32-1.97-.32-3v-3-1c7 0 12-5 12-5l1 6c1.99 0 4-2 5-5 0 0 4 4 10 4v1 2.6c0 1.16-.14 2.3-.4 3.4-.91 3.81-3.31 7.1-6.58 9.06l-.02-.06z"/><path d="m18.32 25h-1.32c-1.66 0-3-1.34-3-3s1.34-3 3-3h1v3c0 1.03.11 2.03.32 3z"/></g><path d="m17 19c-1.66 0-3 1.34-3 3v-8.62c0-7.38 8-14.38 18-9.38 10-5 18 2 18 9.38v8.62c0-1.66-1.34-3-3-3h-1v-1c-6 0-10-4-10-4-1 3-3.01 5-5 5l-1-6s-5 5-12 5v1z" fill="#656d78"/><path d="m32 31c-.552 0-1-.449-1-1h-2c0 1.654 1.346 3 3 3s3-1.346 3-3h-2c0 .551-.448 1-1 1z"/><circle cx="24" cy="22" r="1"/><circle cx="40" cy="22" r="1"/><path d="m59.936 51c-.655-8.242-8.134-15-16.936-15h-2.28l-.504-1.513c2.934-1.972 5.15-4.96 6.165-8.487h.619c2.206 0 4-1.794 4-4v-8.617c0-4.101-2.226-8.024-5.807-10.238-3.837-2.37-8.503-2.456-13.193-.256-4.689-2.199-9.358-2.113-13.193.257-3.581 2.213-5.807 6.136-5.807 10.237v8.617c0 2.206 1.794 4 4 4h.551c.71 2.586 2.094 4.946 4.096 6.855.662.632 1.374 1.189 2.12 1.682l-.487 1.463h-2.28c-8.802 0-16.281 6.758-16.936 15h-.064v1.167 2.833 1c0 1.654 1.346 3 3 3h9v4h32v-4h9c1.654 0 3-1.346 3-3v-1-2.833-1.167zm-2.001 0h-5.935v-10.058c3.298 2.387 5.565 6.007 5.935 10.058zm-7.935-11.299v11.299h-2v-8h-2v-3h-2v3h-5.861c1.682-1.4 2.541-3.307 2.782-5h2.079c2.509 0 4.896.621 7 1.701zm-26.062-2.701v-.021l.062.021zm2.505 3.798c-.616-.715-.995-1.516-1.211-2.268l3.772 1.414zm1.941 1.462 3.616-1.206 3.616 1.205c-.949.453-2.132.741-3.616.741s-2.667-.288-3.616-.74zm11.616-5.26.062-.021v.021zm-2.443 3.798-2.561-.854 3.772-1.414c-.215.752-.595 1.553-1.211 2.268zm-4.927-5.813c-2.356.113-4.618-.402-6.63-1.454v-1.531c0-2.206 1.794-4 4-4h4c2.206 0 4 1.794 4 4v1.491c-1.618.865-3.432 1.403-5.37 1.494zm14.37-10.985h-.197c.119-.783.197-1.579.197-2.396v-1.604c1.103 0 2 .897 2 2s-.897 2-2 2zm-27.142-19.153c3.346-2.068 7.497-2.051 11.694.047l.448.224.447-.224c4.196-2.099 8.35-2.115 11.694-.047 2.998 1.852 4.859 5.123 4.859 8.536v5.173c-.591-.344-1.268-.556-2-.556v-1h-1c-5.49 0-9.257-3.671-9.293-3.707l-1.145-1.144-.511 1.535c-.698 2.093-1.951 3.667-3.231 4.156l-1.153-6.921-1.374 1.374c-.047.047-4.782 4.707-11.293 4.707h-1v1c-.732 0-1.409.212-2 .556v-5.173c0-3.413 1.861-6.684 4.858-8.536zm-2.858 19.153c-1.103 0-2-.897-2-2s.897-2 2-2v2c0 .677.06 1.342.147 2zm2-2v-3.031c4.7-.295 8.4-2.601 10.304-4.062l.849 5.093h.847c2.127 0 4.158-1.664 5.414-4.341 1.541 1.171 4.579 3.033 8.586 3.307v2.639c0 4.293-1.953 8.11-5 10.563v-.168c0-3.309-2.691-6-6-6h-1v-2h-2v2h-1c-3.309 0-6 2.691-6 6v.247c-.334-.263-.659-.541-.972-.839-2.597-2.478-4.028-5.819-4.028-9.408zm12.99 15c.244 0 .488-.006.733-.017 2.049-.096 3.982-.616 5.728-1.466l.295.885-6.746 2.53-6.747-2.53.289-.868c1.993.953 4.179 1.466 6.448 1.466zm-8.91 1c.241 1.693 1.1 3.6 2.782 5h-5.862v-3h-2v3h-2v8h-2v-11.299c2.104-1.08 4.491-1.701 7-1.701zm-11.08 2.942v10.058h-5.935c.37-4.051 2.637-7.671 5.935-10.058zm-6 15.058v-1-2h15c1.103 0 2 .897 2 2s-.897 2-2 2h-14c-.552 0-1-.449-1-1zm18.444 1h5.556v4h-8v-2.142c1.043-.271 1.913-.949 2.444-1.858zm-6.444 2h2v2h-2zm28 2h-14v-6h-7c0-2.206-1.794-4-4-4h-3v-6h28v6h-2.101c-.465-2.279-2.484-4-4.899-4-2.757 0-5 2.243-5 5s2.243 5 5 5h.556c.694 1.19 1.97 2 3.444 2h3zm-7-6c-1.654 0-3-1.346-3-3s1.346-3 3-3c1.369 0 2.513.927 2.872 2.182-1.654.49-2.872 2.007-2.872 3.818zm19 1c0 .551-.448 1-1 1h-14c-1.103 0-2-.897-2-2s.897-2 2-2h15v2z"/><path d="m20 47h8v2h-8z"/><path d="m30 47h2v2h-2z"/><path d="m26 51h6v2h-6z"/></svg>