<svg id="Layer_6" enable-background="new 0 0 64 64" height="512" viewBox="0 0 64 64" width="512" xmlns="http://www.w3.org/2000/svg"><path d="m28 50v4l-1.79-.89c-1.35-.68-2.21-2.07-2.21-3.58v-7.53-4h4z" fill="#ccd1d9"/><path d="m36 54v-4-12h4v4 7.53c0 1.51-.86 2.9-2.21 3.58z" fill="#ccd1d9"/><path d="m34 54v7l-2 1-2-1v-7z" fill="#e6e9ed"/><path d="m36 50v4h-2-4-2v-4z" fill="#ff826e"/><path d="m28 38h8v12h-8z" fill="#ff826e"/><path d="m27 30h10v4h-10z" fill="#b27946"/><path d="m40 34v4h-4-8-4v-4z" fill="#cf9e76"/><path d="m32 21 4 5h-8z" fill="#ccd1d9"/><g fill="#fcd770"><path d="m18 33v9h6v-4-4-1z"/><path d="m46 33v9h-6v-4-4-1z"/><path d="m42 19.09c-.32-.06-.66-.09-1-.09h-2.59l-2.41 7h-8l-2.41-7h-2.59c-.34 0-.68.03-1 .09-4.06.68-6.62 5.52-6.95 9.91h6.95 5c.55 0 1.05.22 1.41.59.14.13.26.29.35.46l.24-.05h6l.24.05c.09-.17.21-.33.35-.46.36-.37.86-.59 1.41-.59h5 6.95c-.33-4.39-2.89-9.23-6.95-9.91z"/></g><path d="m15.05 29h6.95 5c.55 0 1.05.22 1.41.59.14.13.26.29.35.46.15.28.24.61.24.95 0 1.1-.9 2-2 2h-9-1c-.55 0-1.05-.22-1.41-.59-.37-.36-.59-.86-.59-1.41v-1c0-.33.01-.66.05-1z" fill="#f0d0b4"/><path d="m42 29h6.95c.04.34.05.67.05 1v1c0 .55-.22 1.05-.59 1.41-.36.37-.86.59-1.41.59h-1-6-3c-1.1 0-2-.9-2-2 0-.34.09-.67.24-.95.09-.17.21-.33.35-.46.36-.37.86-.59 1.41-.59z" fill="#f0d0b4"/><path d="m38.41 19-2.41 7-4-5c2.66 0 4.85-.71 6.4-2.01z" fill="#ff826e"/><path d="m32 21-4 5-2.41-7 .01-.01c1.55 1.3 3.74 2.01 6.4 2.01z" fill="#ff826e"/><path d="m38 2c2.21 0 4 1.79 4 4v3h-1-3-4-4-4-3-1v-3c0-2.21 1.79-4 4-4z" fill="#656d78"/><path d="m45 12c0 1.66-1.12 3-2.5 3h-1.5l-.2-.04c.13-.61.2-1.27.2-1.96v-4h1 .5c1.38 0 2.5 1.34 2.5 3z" fill="#f0d0b4"/><path d="m35.62 17h4.38l.04.02c-.42.77-.97 1.43-1.64 1.97-1.55 1.3-3.74 2.01-6.4 2.01s-4.85-.71-6.4-2.01c-.67-.54-1.22-1.2-1.64-1.97l.04-.02h4.38c.38 0 .73-.21.9-.55l1.44-2.9c.17-.34.52-.55.9-.55h.76c.38 0 .73.21.9.55l1.44 2.9c.17.34.52.55.9.55z" fill="#f0d0b4"/><path d="m23 13c0 .69.07 1.35.2 1.96l-.2.04h-1.5c-1.38 0-2.5-1.34-2.5-3s1.12-3 2.5-3h.5 1z" fill="#f0d0b4"/><path d="m34 9h4 3v4c0 .69-.07 1.35-.2 1.96-.16.75-.42 1.44-.76 2.06l-.04-.02h-4.38c-.38 0-.73-.21-.9-.55l-1.44-2.9c-.17-.34-.52-.55-.9-.55h-.76c-.38 0-.73.21-.9.55l-1.44 2.9c-.17.34-.52.55-.9.55h-4.38l-.04.02c-.34-.62-.6-1.31-.76-2.06-.13-.61-.2-1.27-.2-1.96v-4h3 4z" fill="#69d6f4"/><circle cx="37" cy="13" r="1"/><circle cx="27" cy="13" r="1"/><path d="m31 45h2v2h-2z"/><path d="m31 41h2v2h-2z"/><path d="m41 18h-.404c.399-.609.721-1.276.952-2h.952c1.93 0 3.5-1.794 3.5-4 0-2.01-1.308-3.662-3-3.942v-2.058c0-2.757-2.243-5-5-5h-12c-2.757 0-5 2.243-5 5v2.058c-1.692.28-3 1.932-3 3.942 0 2.206 1.57 4 3.5 4h.952c.232.724.553 1.391.952 2h-.404c-5.384 0-9 6.205-9 12v1c0 1.654 1.346 3 3 3v9h6v6.528c0 1.905 1.059 3.618 2.764 4.472l2 1h1.236v6.618l3 1.5 3-1.5v-6.618h1.236l2-1c1.705-.854 2.764-2.566 2.764-4.472v-6.528h6v-9c1.654 0 3-1.346 3-3v-1c0-5.795-3.616-12-9-12zm6.836 10h-4.836v-2-1-4.56c2.514 1.127 4.304 4.276 4.836 7.56zm-18.836 23h6v2h-6zm6-2h-6v-10h6zm-10-12v-2h14v2zm4.22-4c.48-.532.78-1.229.78-2h4c0 .771.301 1.468.78 2zm5.56-4h-5.56c-.549-.609-1.337-1-2.22-1h-4v-1h18v1h-4c-.883 0-1.67.391-2.22 1zm-10.78-16v-3h16v3c0 1.121-.198 2.124-.573 3h-3.809l-1.447-2.894c-.34-.682-1.025-1.106-1.789-1.106h-.764c-.764 0-1.449.424-1.789 1.105l-1.447 2.895h-3.809c-.375-.876-.573-1.879-.573-3zm8 7c-2.599 0-4.649-.71-6.025-2h2.407c.764 0 1.449-.424 1.789-1.105l1.447-2.895h.764l1.447 2.894c.34.682 1.025 1.106 1.789 1.106h2.407c-1.376 1.29-3.426 2-6.025 2zm1.97 1.861c1.131-.158 2.168-.45 3.09-.872l-1.321 3.083zm-.051 3.139h-3.838l1.919-2.398zm-3.889-3.139-1.769 2.211-1.321-3.083c.922.422 1.959.714 3.09.872zm10.97 3.139h-3.484l2.143-5h1.341zm3-13c0 1.084-.687 2-1.5 2h-.545c.03-.326.045-.659.045-1v-3h.5c.813 0 1.5.916 1.5 2zm-22.5 2c-.813 0-1.5-.916-1.5-2s.687-2 1.5-2h.5v3c0 .341.015.674.045 1zm1.5-8c0-1.654 1.346-3 3-3h12c1.654 0 3 1.346 3 3v2h-2v-3h-2v3h-2v-3h-2v3h-2v-3h-2v3h-2v-3h-2v3h-2zm1.341 14 2.143 5h-3.484v-5zm-3.341.44v5.56 2h-4.836c.532-3.284 2.322-6.433 4.836-7.56zm-5 10.56v-1h11c.552 0 1 .448 1 1s-.448 1-1 1h-10c-.552 0-1-.448-1-1zm3 10v-7h4v7zm6 8.528v-10.528h2v13.382l-.342-.171c-1.022-.512-1.658-1.54-1.658-2.683zm8 10.854-1 .5-1-.5v-5.382h2zm4.342-8.171-.342.171v-13.382h2v10.528c0 1.143-.636 2.171-1.658 2.683zm7.658-11.211h-4v-7h4zm3-10c0 .552-.448 1-1 1h-10c-.552 0-1-.448-1-1s.448-1 1-1h11z"/></svg>