<svg id="Layer_6" enable-background="new 0 0 64 64" height="512" viewBox="0 0 64 64" width="512" xmlns="http://www.w3.org/2000/svg"><path d="m8 38 .8 4h-4.8c-1.1 0-2-.9-2-2 0-.55.22-1.05.59-1.41.36-.37.86-.59 1.41-.59z" fill="#fcd770"/><path d="m32 48-1.19 5.96-.81 4.04h-5c0-2.21-1.79-4-4-4s-4 1.79-4 4h-5l-2-10h2 18z" fill="#e6e9ed"/><path d="m21 54c2.21 0 4 1.79 4 4s-1.79 4-4 4-4-1.79-4-4 1.79-4 4-4z" fill="#838f9b"/><path d="m26 40v2h-1-9v-2c0-2.21 1.38-4 3.08-4h3.84c1.44 0 2.65 1.28 2.98 3.02.07.31.1.64.1.98z" fill="#cf9e76"/><path d="m30 46v2h-18v-2c0-2.21 1.79-4 4-4h9 1c1.1 0 2.1.45 2.83 1.17.72.73 1.17 1.73 1.17 2.83z" fill="#cf9e76"/><path d="m29 39v4l-.17.17c-.73-.72-1.73-1.17-2.83-1.17v-2c0-.34-.03-.67-.1-.98l.1-.02c.9-.73 1.91-1.41 3-1.99z" fill="#4fc1e9"/><path d="m43 46c.34 0 .67-.03.99-.09l.01.09v8h-4v-8l.01-.09c.32.06.65.09.99.09z" fill="#4fc1e9"/><path d="m55.07 36.86c3.99 2.02 6.93 5.44 6.93 8.9v4.24h-7v-7-4-2z" fill="#4fc1e9"/><path d="m55 50h7v4h-7z" fill="#f0d0b4"/><path d="m47 44 .24.24c-.86.87-1.99 1.47-3.25 1.67-.32.06-.65.09-.99.09h-2c-.34 0-.67-.03-.99-.09-1.02-.16-1.95-.58-2.72-1.2l4.71-4.71z" fill="#ccd1d9"/><path d="m35.81 43h-6.81v-4h6v1c0 1.1.29 2.12.81 3z" fill="#e6e9ed"/><path d="m55 39v4h-6.81c.52-.88.81-1.9.81-3v-1z" fill="#e6e9ed"/><g fill="#fcd770"><path d="m55 50v4h-11v-8l-.01-.09c1.26-.2 2.39-.8 3.25-1.67.37-.37.69-.78.95-1.24h6.81z"/><path d="m37.29 44.71c.77.62 1.7 1.04 2.72 1.2l-.01.09v8h-9l-.19-.04 1.19-5.96h-2v-2c0-1.1-.45-2.1-1.17-2.83l.17-.17h6.81c.38.66.88 1.24 1.48 1.71z"/><path d="m29 37.01c1.84-1 3.91-1.72 6-1.93v3.92h-6z"/><path d="m55.07 36.86-.07.14v2h-6v-3.93c2.12.2 4.21.84 6.07 1.79z"/></g><path d="m42 40-4.71 4.71c-.6-.47-1.1-1.05-1.48-1.71-.52-.88-.81-1.9-.81-3v-1-3.92c.33-.05.67-.07 1-.08h1c0 2.76 2.24 5 5 5z" fill="#ff826e"/><path d="m49 35.07v3.93 1c0 1.1-.29 2.12-.81 3-.26.46-.58.87-.95 1.24l-.24-.24-5-4c2.76 0 5-2.24 5-5h1c.33.01.67.03 1 .07z" fill="#ff826e"/><path d="m38 5.92 3.99-3.84 4 3.84 4-3.84 4 3.84 4.01-2.92v17c0-1.66-1.12-3-2.5-3h-1.5v1c0-3.31-2.69-6-6-6s-6 2.69-6 6c0-3.31-2.69-6-6-6s-6 2.69-6 6v-1h-1.5c-1.38 0-2.5 1.34-2.5 3 0-.17 0-17 0-17l4 2.92 4-3.84z" fill="#656d78"/><path d="m46.09 31.35.91 3.65c0 2.76-2.24 5-5 5s-5-2.24-5-5l.91-3.65c1.26.42 2.64.65 4.09.65s2.83-.23 4.09-.65z" fill="#f0d0b4"/><path d="m55.5 17c1.38 0 2.5 1.34 2.5 3s-1.12 3-2.5 3h-1.5l-.33-.07c.22-.93.33-1.91.33-2.93v-2-1z" fill="#f0d0b4"/><path d="m48 12c-3.31 0-6 2.69-6 6 0-3.31-2.69-6-6-6s-6 2.69-6 6v2c0 1.02.11 2 .33 2.93.74 3.24 2.72 5.88 5.45 7.45l.22-.38v-3c0-1.1.45-2.1 1.17-2.83.73-.72 1.73-1.17 2.83-1.17h2 2c2.21 0 4 1.79 4 4v3l.22.38c2.73-1.57 4.71-4.21 5.45-7.45.22-.93.33-1.91.33-2.93v-2c0-3.31-2.69-6-6-6z" fill="#f0d0b4"/><path d="m30 20c0 1.02.11 2 .33 2.93l-.33.07h-1.5c-1.38 0-2.5-1.34-2.5-3s1.12-3 2.5-3h1.5v1z" fill="#f0d0b4"/><path d="m44 23c2.21 0 4 1.79 4 4v3l.22.38c-.67.39-1.38.71-2.13.97-1.26.42-2.64.65-4.09.65s-2.83-.23-4.09-.65c-.75-.26-1.46-.58-2.13-.97l.22-.38v-3c0-1.1.45-2.1 1.17-2.83.73-.72 1.73-1.17 2.83-1.17h2z" fill="#cf9e76"/><circle cx="21" cy="58" r="1"/><path d="m42 29c1.654 0 3-1.346 3-3h-2c0 .552-.449 1-1 1s-1-.448-1-1h-2c0 1.654 1.346 3 3 3z"/><circle cx="36" cy="19" r="1"/><circle cx="48" cy="19" r="1"/><path d="m63 45.765c0-5.822-7.275-11.539-15-11.765h-.219l-.51-2.042c3.451-1.449 6.047-4.313 7.148-7.958h1.081c1.93 0 3.5-1.794 3.5-4v-18.967l-4.918 3.585-4.093-3.924-3.999 3.839-3.998-3.84-3.998 3.84-3.999-3.84-4.086 3.924-4.909-3.586v18.969c0 2.206 1.57 4 3.5 4h1.082c1.101 3.646 3.697 6.51 7.148 7.958l-.511 2.042h-.249c-3.179.093-6.6 1.34-9.563 3.444-.712-1.457-2-2.444-3.484-2.444h-3.846c-2.248 0-4.077 2.243-4.077 5v1.101c-2.279.465-4 2.484-4 4.899v1h-.18l-2-10h-4.82c-1.654 0-3 1.346-3 3s1.346 3 3 3h3.98l3.2 16h4.921c.465 2.279 2.484 4 4.899 4s4.434-1.721 4.899-4h4.921l.8-4h31.38zm-59-4.765c-.551 0-1-.448-1-1s.449-1 1-1h3.18l.4 2zm57 4.765v3.235h-5v-10.479c2.958 1.884 5 4.58 5 7.244zm-31-5.765h4c0 .695.105 1.366.295 2h-4.295zm4-2h-4v-.382c1.315-.65 2.675-1.112 4-1.374zm2-2h.083c.362 2.147 1.869 3.905 3.868 4.634l-2.673 2.673c-.785-.884-1.278-2.034-1.278-3.307zm6.074 5.34 3.592 2.874c-.773.491-1.684.786-2.666.786h-2c-.754 0-1.463-.18-2.105-.481zm.926 5.66v6h-2v-6zm2-.295c1.531-.457 2.841-1.425 3.736-2.705h5.264v9h-9zm9-8.705h-4v-1.785c1.39.237 2.744.656 4 1.227zm-4 2h4v2h-4.295c.19-.634.295-1.305.295-2zm-2-3.998v3.998c0 1.045-.325 2.015-.876 2.819l-2.85-2.28c1.884-.777 3.295-2.475 3.643-4.538h.054c.009-.001.019.001.029.001zm-4-12.002c1.654 0 3 1.346 3 3v2.866c-1.486.723-3.175 1.134-5 1.134-1.826 0-3.514-.411-5-1.134v-2.866c0-1.654 1.346-3 3-3zm11.5-2h-.656c.093-.651.156-1.315.156-2v-2h.5c.813 0 1.5.916 1.5 2s-.687 2-1.5 2zm-25.414-14.777 3.91-3.756 3.004 2.884v2.649h2v-2.659l2.993-2.875 3.007 2.889v2.645h2v-2.663l2.99-2.871 3.917 3.756 3.093-2.255v11.434c-.456-.25-.961-.401-1.5-.401h-.5v-5h-2v2.111c-1.272-1.301-3.042-2.111-5-2.111-2.543 0-4.774 1.363-6 3.397-1.226-2.034-3.457-3.397-6-3.397-1.958 0-3.728.81-5 2.111v-2.111h-2v5h-.5c-.539 0-1.044.151-1.5.401v-11.432zm-1.586 14.777c-.813 0-1.5-.916-1.5-2s.687-2 1.5-2h.5v2c0 .685.063 1.349.156 2zm2.5-2v-2c0-2.757 2.243-5 5-5s5 2.243 5 5h2c0-2.757 2.243-5 5-5s5 2.243 5 5v2c0 3.564-1.53 6.627-4 8.609v-1.609c0-2.757-2.243-5-5-5h-1v-2h-2v2h-1c-2.757 0-5 2.243-5 5v1.609c-2.47-1.982-4-5.045-4-8.609zm11 13c1.175 0 2.297-.155 3.365-.421l.627 2.508c-.049 2.165-1.816 3.913-3.992 3.913s-3.943-1.748-3.991-3.912l.627-2.508c1.068.265 2.189.42 3.364.42zm-14 5.781v2.65c-.319-.141-.65-.26-1-.331v-1.1c0-.162-.027-.314-.039-.472.338-.261.684-.511 1.039-.747zm-15 7.219c0-1.654 1.346-3 3-3h3v-2h-2v-1c0-1.626.951-3 2.077-3h3.846c1.126 0 2.077 1.374 2.077 3v3h1c1.654 0 3 1.346 3 3v1h-16zm8 15c-1.654 0-3-1.346-3-3s1.346-3 3-3 3 1.346 3 3-1.346 3-3 3zm8.18-4h-3.281c-.465-2.279-2.484-4-4.899-4s-4.434 1.721-4.899 4h-3.281l-1.6-8h19.56zm1.82-10v-1c0-.714-.165-1.385-.436-2h4.7c.895 1.28 2.206 2.248 3.736 2.705v6.295h-6.98l1.2-6zm25 6v-2h5v2z"/><path d="m21 41h2v2h-2z"/></svg>