<svg id="Layer_6" enable-background="new 0 0 64 64" height="512" viewBox="0 0 64 64" width="512" xmlns="http://www.w3.org/2000/svg"><g fill="#ff826e"><path d="m53 48v4c0 1.1-.9 2-2 2h-9v-6h3z"/><path d="m22 35v4.31c0 3.7-1 6.69-3 8.69v2h-8v-5c0-3.32 3.09-6.69 7.11-8.8 1.2-.64 2.48-1.16 3.79-1.53z"/><path d="m53 45v3h-8c-2-2-3-4.99-3-8.69v-4.31l.1-.33c1.31.37 2.59.89 3.79 1.53 4.02 2.11 7.11 5.48 7.11 8.8z"/><path d="m33.4 39.4c.38.38.91.6 1.45.6h2.99c-.65 2.12-3.24 4-5.84 4v-6z"/><path d="m32 38v6c-2.6 0-5.19-1.88-5.84-4h2.99c.54 0 1.07-.22 1.45-.6z"/></g><path d="m32 52c0 1.1.9 2 2 2h-15v-4-2c2-2 3-4.99 3-8.69v-4.31l-.1-.33c1.36-.4 2.75-.63 4.1-.67v5c0 .33.05.67.16 1 .65 2.12 3.24 4 5.84 4s5.19-1.88 5.84-4c.11-.33.16-.67.16-1v-5c1.35.04 2.74.27 4.1.67l-.1.33v4.31c0 3.7 1 6.69 3 8.69h-3-4-4c-1.1 0-2 .9-2 2z" fill="#b4dd7f"/><path d="m32 38c3 0 6-2.01 6-4v5c0 .33-.05.67-.16 1h-2.99c-.54 0-1.07-.22-1.45-.6z" fill="#ccd1d9"/><path d="m32 38-1.4 1.4c-.38.38-.91.6-1.45.6h-2.99c-.11-.33-.16-.67-.16-1v-5c0 1.99 3 4 6 4z" fill="#ccd1d9"/><path d="m11 50h8v4h-8z" fill="#f0d0b4"/><path d="m38 48v6h-4c-1.1 0-2-.9-2-2v-2c0-1.1.9-2 2-2z" fill="#f0d0b4"/><path d="m38 48h4v6h-4z" fill="#f0d0b4"/><path d="m27.09 30.83-.09.17-1 3c-1.35.04-2.74.27-4.1.67-1.31.37-2.59.89-3.79 1.53l-.11-.2v-19h4v6c0 3.36 2.05 6.3 5.09 7.83z" fill="#656d78"/><path d="m46 17v19l-.11.2c-1.2-.64-2.48-1.16-3.79-1.53-1.36-.4-2.75-.63-4.1-.67l-1-3-.09-.17c3.04-1.53 5.09-4.47 5.09-7.83v-6z" fill="#656d78"/><path d="m37 31 1 3c0 1.99-3 4-6 4s-6-2.01-6-4l1-3 .09-.17c1.45.75 3.13 1.17 4.91 1.17s3.46-.42 4.91-1.17z" fill="#f0d0b4"/><path d="m22 17h20v6c0 3.36-2.05 6.3-5.09 7.83-1.45.75-3.13 1.17-4.91 1.17s-3.46-.42-4.91-1.17c-3.04-1.53-5.09-4.47-5.09-7.83z" fill="#f0d0b4"/><path d="m40.14 4.18c3.46 2.01 5.86 5.21 5.86 8.82h-4v-2c0-.55-.22-1.05-.59-1.41-.36-.37-.86-.59-1.41-.59v-4.46z" fill="#ffeaa7"/><path d="m18 13c0-5.51 5.6-10.07 12-10.87v10.02.85h-4v-2c0-.55-.22-1.05-.59-1.41-.36-.37-.86-.59-1.41-.59-1.1 0-2 .9-2 2v2z" fill="#ffeaa7"/><path d="m40.14 4.18-.14.36v4.46c-1.1 0-2 .9-2 2v2h-4v-.85-10.02c2.21.27 4.32 1 6.14 2.05z" fill="#ffeaa7"/><path d="m48 13v4h-2-4-20-4-2v-4h2 4 4 4 4 4 4 4z" fill="#fcd770"/><path d="m24 9c.55 0 1.05.22 1.41.59.37.36.59.86.59 1.41v2h-4v-2c0-1.1.9-2 2-2z" fill="#ffc729"/><path d="m34 12.15v.85h-4v-.85-10.02c.66-.09 1.33-.13 2-.13s1.34.04 2 .13z" fill="#ffc729"/><path d="m40 9c.55 0 1.05.22 1.41.59.37.36.59.86.59 1.41v2h-4v-2c0-1.1.9-2 2-2z" fill="#ffc729"/><path d="m41 59v1l-3 2-3-2v-1l1-1h2 2z" fill="#fcd770"/><path d="m31 22h2v2h-2z"/><path d="m32 29c1.654 0 3-1.346 3-3h-2c0 .552-.449 1-1 1s-1-.448-1-1h-2c0 1.654 1.346 3 3 3z"/><circle cx="38" cy="21" r="1"/><circle cx="26" cy="21" r="1"/><path d="m47 35.676v-17.676h2v-6h-2.068c-.683-5.965-7.362-11-14.932-11s-14.249 5.035-14.932 11h-2.068v6h2v17.676c-3.96 2.252-7 5.674-7 9.324v10h27v2h-1.414l-1.586 1.586v1.949l4 2.667 4-2.667v-1.949l-1.586-1.586h-1.414v-2h12c1.654 0 3-1.346 3-3v-7c0-3.65-3.04-7.072-7-9.324zm-7 23.738-2 1.384-2-1.333.414-.465h3.172zm5-24.75c-2.032-.889-4.195-1.454-6.262-1.611l-.589-1.766c2.925-1.799 4.851-4.843 4.851-8.287v-5h2zm-22-16.664h18v5c0 4.411-4.038 8-9 8s-9-3.589-9-8zm4 19.346c.801.605 1.786 1.084 2.86 1.367-.194.18-.448.287-.711.287h-2.149zm5-4.346c1.541 0 3.008-.292 4.341-.815l.646 1.937c-.142 1.29-2.49 2.878-4.987 2.878s-4.845-1.588-4.986-2.878l.646-1.937c1.332.523 2.799.815 4.34.815zm5 4.346v1.654h-2.149c-.263 0-.518-.107-.711-.286 1.073-.283 2.059-.762 2.86-1.368zm-7.851 3.654c.681 0 1.32-.232 1.851-.641v2.527c-1.234-.267-2.404-.991-3.157-1.886zm3.851-.641c.531.409 1.17.641 1.851.641h1.306c-.753.895-1.923 1.619-3.157 1.886zm11.928-28.359h-1.928v-1c0-1.302-.839-2.402-2-2.816v-2.25c2.134 1.611 3.597 3.748 3.928 6.066zm-5.928-3.816c-1.161.414-2 1.514-2 2.816v1h-2v-8.694c1.428.282 2.78.752 4 1.379zm0 2.816c0-.552.449-1 1-1s1 .448 1 1v1h-2zm-6-7.958v8.958h-2v-8.958c.332-.022.664-.042 1-.042s.668.02 1 .042zm-9 6.958c.551 0 1 .448 1 1v1h-2v-1c0-.552.449-1 1-1zm1-1.816v-3.5c1.22-.627 2.572-1.097 4-1.379v8.695h-2v-1c0-1.302-.839-2.402-2-2.816zm-2-2.25v2.25c-1.161.414-2 1.514-2 2.816v1h-1.928c.331-2.318 1.794-4.455 3.928-6.066zm-6 8.066h30v2h-30zm2 4h2v5c0 3.444 1.926 6.488 4.85 8.287l-.589 1.766c-2.067.157-4.23.722-6.262 1.611v-16.664zm2 18.018v3.296c0 3.449-.936 6.208-2.707 7.979l-.293.293v1.414h-6v-4c0-3.423 4.122-7.21 9-8.982zm-9 14.982h6v2h-6zm19.171 2h-11.171v-4.6c1.964-2.15 3-5.28 3-9.087v-3.894c.664-.157 1.333-.282 2-.351v3.932c0 3.028 3.467 6 7 6s7-2.972 7-6v-3.932c.667.069 1.336.194 2 .351v3.894c0 3.05.67 5.661 1.945 7.687h-8.945c-1.654 0-3 1.346-3 3v2c0 .351.061.688.171 1zm2.829 0c-.551 0-1-.448-1-1v-2c0-.552.449-1 1-1h3v4zm5-4h2v4h-2zm13 3c0 .552-.449 1-1 1h-8v-4h9zm0-5h-6.551c-1.597-1.776-2.449-4.415-2.449-7.687v-3.296c4.878 1.772 9 5.559 9 8.982z"/></svg>