<svg id="Layer_6" enable-background="new 0 0 64 64" height="512" viewBox="0 0 64 64" width="512" xmlns="http://www.w3.org/2000/svg"><path d="m25 45.7v16.3h-9v-8-4-2.52c0-4.43 2.92-8.34 7.18-9.59l1.82-.54z" fill="#fcd770"/><path d="m62 47.48v14.52h-11v-7h2v-17.65l1.82.54c4.26 1.25 7.18 5.16 7.18 9.59z" fill="#fcd770"/><path d="m38.5 62h-13.5v-16.3c0 1.12.34 2.26 1.04 3.24 1.44 2.03 4.17 3.12 6.46 2.48l3.32 4.84c-.51.6-.82 1.39-.82 2.24 0 1.93 1.57 3.5 3.5 3.5z" fill="#ffeaa7"/><path d="m33 35s0 .01.02.02c.09.14.96 1.35 2.6 2.17.9.46 2.02.81 3.38.81 1.34 0 2.46-.34 3.35-.79 1.77-.88 2.65-2.21 2.65-2.21l8 2.35v17.65h-2-11l-4.34-5.75c.68-.92 1-2.07 1-3.25-.01-1.25-.4-2.53-1.15-3.58-1.22-1.72-3.24-2.57-5.24-2.4.67.93 1.77 2.48 1.77 2.48.92 1.29.6 3.05-.71 3.95-1.31.91-3.11.59-4.03-.69 0 0-1.1-1.55-1.75-2.49-.36.76-.55 1.59-.55 2.43v-8.35z" fill="#ffeaa7"/><path d="m35.82 56.26c.07-.08.14-.16.21-.23.63-.64 1.51-1.03 2.47-1.03h1.5 11v7h-9-3.5c-1.93 0-3.5-1.57-3.5-3.5 0-.85.31-1.64.82-2.24z" fill="#f0d0b4"/><path d="m30.27 40.02c2-.17 4.02.68 5.24 2.4.75 1.05 1.14 2.33 1.15 3.58 0 1.18-.32 2.33-1 3.25l4.34 5.75h-1.5c-.96 0-1.84.39-2.47 1.03-.07.07-.14.15-.21.23l-3.32-4.84c-2.29.64-5.02-.45-6.46-2.48-.7-.98-1.04-2.12-1.04-3.24 0-.84.19-1.67.55-2.43.65.94 1.75 2.49 1.75 2.49.92 1.28 2.72 1.6 4.03.69 1.31-.9 1.63-2.66.71-3.95 0 0-1.1-1.55-1.77-2.48z" fill="#969faa"/><path d="m55 23c0 1.66-1.12 3-2.5 3h-1.5-.07c.05-.33.07-.66.07-1v-5h1.5c1.38 0 2.5 1.34 2.5 3z" fill="#f0d0b4"/><path d="m45 35s-.88 1.33-2.65 2.21c-.89.45-2.01.79-3.35.79-1.36 0-2.48-.35-3.38-.81-1.64-.82-2.51-2.03-2.6-2.17-.02-.01-.02-.02-.02-.02v-2l.08-.17c1.75.75 3.77 1.17 5.92 1.17s4.17-.42 5.92-1.17l.08.17z" fill="#f0d0b4"/><path d="m42.38 25.4c.3.38.75.6 1.24.6h7.31c-.44 2.93-2.75 5.44-6.01 6.83-1.75.75-3.77 1.17-5.92 1.17s-4.17-.42-5.92-1.17c-3.26-1.39-5.57-3.9-6.01-6.83h7.31c.49 0 .94-.22 1.24-.6l1.38-2.8c.29-.38.75-.6 1.23-.6h1.54c.48 0 .94.22 1.23.6z" fill="#f0d0b4"/><path d="m27 25c0 .34.02.67.07 1h-.07-1.5c-1.38 0-2.5-1.34-2.5-3s1.12-3 2.5-3h1.5z" fill="#f0d0b4"/><path d="m25 14c0-4.81 4.35-10.4 11.02-11.71l.65 7.74.33 3.97z" fill="#ff826e"/><path d="m41.98 2.29c6.67 1.31 11.02 6.9 11.02 11.71h-12l.33-3.97z" fill="#ff826e"/><path d="m55 14v4h-4-24-4v-4h2 12 4 12z" fill="#fc6e51"/><path d="m39 2c-1.04 0-2.03.1-2.98.29l.65 7.74.33 3.97h4l.33-3.97.65-7.74c-.95-.19-1.94-.29-2.98-.29z" fill="#fcd770"/><path d="m50.93 26h-7.31c-.49 0-.94-.22-1.24-.6l-1.38-2.8c-.29-.38-.75-.6-1.23-.6h-1.54c-.48 0-.94.22-1.23.6l-1.38 2.8c-.3.38-.75.6-1.24.6h-7.31c-.05-.33-.07-.66-.07-1v-5-2h24v2 5c0 .34-.02.67-.07 1z" fill="#69d6f4"/><path d="m6 54v8h-4v-61h4v5 8 6 8 8 4 10z" fill="#b27946"/><g fill="#aab2bd"><path d="m10 8v4c-.78.78-1.22 1.22-2 2h-2v-8h2c.78.78 1.22 1.22 2 2z"/><path d="m10 22v4c-.78.78-1.22 1.22-2 2h-2v-8h2z"/><path d="m12 34 2 2v4c-.78.78-1.22 1.22-2 2h-2v-2-4-2z"/><path d="m6 36h4v4h-4z"/><path d="m6 50h6v4h-6z"/><path d="m14 48 2 2v4c-.78.78-1.22 1.22-2 2h-2v-2-4-2z"/></g><path d="m42 28h-2c0 .551-.449 1-1 1s-1-.449-1-1h-2c0 1.654 1.346 3 3 3s3-1.346 3-3z"/><circle cx="45" cy="22" r="1"/><circle cx="33" cy="22" r="1"/><path d="m55.104 36.93-9.104-2.678v-.839c2.904-1.435 5.026-3.726 5.738-6.413h.762c1.93 0 3.5-1.794 3.5-4s-1.57-4-3.5-4h3.5v-6h-2.062c-.618-5.868-6.575-12-14.938-12s-14.32 6.132-14.938 12h-2.062v6h3.5c-1.93 0-3.5 1.794-3.5 4s1.57 4 3.5 4h.762c.712 2.687 2.834 4.979 5.738 6.413v.839l-9.104 2.678c-4.649 1.367-7.896 5.707-7.896 10.552v.104l-.586-.586h-3.414v2h-4v-8h2v2h3.414l2.586-2.586v-4.828l-2.586-2.586h-3.414v2h-2v-6h1.414l2.586-2.586v-4.828l-2.586-2.586h-1.414v-4h1.414l2.586-2.586v-4.828l-2.586-2.586h-3.414v56h-2v-60h-2v62h6v-8h4v2h3.414l.586-.586v6.586h23.5 3.5 21v-15.518c0-4.845-3.247-9.185-7.896-10.552zm-48.104-29.93h.586l1.414 1.414v3.172l-1.414 1.414h-.586zm33.498 47-3.622-4.799c.515-.934.784-2.027.784-3.209-.012-1.489-.487-2.964-1.334-4.149-1.378-1.943-3.734-3.023-6.139-2.817l-1.758.149 1.031 1.432c.668.927 1.765 2.473 1.767 2.476.285.399.396.882.312 1.356-.085.481-.36.903-.779 1.19-.854.594-2.041.391-2.644-.447 0 0-1.095-1.543-1.742-2.479l-.374-.542v-4.06l6.647-1.955c.471.533 1.293 1.322 2.518 1.935 1.193.609 2.483.919 3.835.919 1.345 0 2.624-.302 3.795-.895 1.228-.611 2.08-1.416 2.563-1.958l6.642 1.955v15.898zm-14.498-3.582c1.604 1.605 3.924 2.435 6.051 2.117l2.559 3.743c-.377.658-.61 1.41-.61 2.222 0 .925.282 1.784.762 2.5h-8.762zm9.998 4.345-3.077-4.499-.69.193c-1.851.514-4.16-.384-5.376-2.1-.572-.8-.86-1.747-.853-2.701.283.4.485.687.487.688 1.239 1.723 3.668 2.14 5.408.93.86-.591 1.432-1.475 1.611-2.488.178-1.008-.054-2.025-.652-2.864 0 0-.188-.266-.457-.643.917.323 1.727.918 2.298 1.723.612.857.955 1.925.963 2.998 0 1.025-.278 1.944-.804 2.655l-.444.601 3.617 4.792c-.744.079-1.44.318-2.031.715zm-7.998-35.763h22v6h-6.385c-.148 0-.289-.057-.39-.155l-1.329-2.688-.104-.166c-.476-.621-1.232-.991-2.023-.991h-1.538c-.791 0-1.547.37-2.024.991l-1.433 2.854c-.101.098-.241.155-.389.155h-6.385zm26 4c0 1.084-.687 2-1.5 2h-.5v-4h.5c.813 0 1.5.916 1.5 2zm-2.068-10h-9.845l.788-9.451c4.991 1.439 8.534 5.502 9.057 9.451zm-11.519-4h-2.826l-.167-2h3.16zm-2.493 4-.167-2h2.493l-.167 2zm2.981-9.856-.154 1.856h-3.493l-.155-1.856c.62-.085 1.25-.144 1.901-.144s1.281.059 1.901.144zm-5.775.405.787 9.451h-9.845c.523-3.949 4.066-8.012 9.058-9.451zm-11.126 13.451v-2h30v2zm1.5 8c-.813 0-1.5-.916-1.5-2s.687-2 1.5-2h.5v4zm2.862 2h6.023c.79 0 1.546-.37 2.023-.991l1.433-2.854c.101-.098.242-.155.39-.155h1.538c.148 0 .289.057.39.155l1.329 2.688.104.166c.477.621 1.233.991 2.023.991h6.023c-1.226 3.445-5.524 6-10.638 6s-9.412-2.555-10.638-6zm10.638 8c1.771 0 3.46-.276 5-.771v.433c-.3.363-1.003 1.111-2.101 1.656-1.793.908-4.001.915-5.832-.021-1.099-.55-1.792-1.299-2.067-1.636v-.431c1.54.494 3.229.77 5 .77zm-28 0h.586l1.414 1.414v3.172l-1.414 1.414h-.586zm-2 2v2h-2v-2zm-1.414-16 1.414 1.414v3.172l-1.414 1.414h-.586v-6zm-.586 32v-2h4v2zm6.586 2h-.586v-6h.586l1.414 1.414v3.172zm3.414-.586v-4.828-2.104c0-3.965 2.657-7.516 6.46-8.635l.54-.158v22.311h-7zm21.5 6.586c-1.378 0-2.5-1.121-2.5-2.5s1.122-2.5 2.5-2.5h11.5v5h-8zm22.5 0h-9v-5h2v-17.311l.54.158c3.804 1.119 6.46 4.67 6.46 8.635z"/><path d="m29 9h4v2h-4z"/><path d="m45 9h4v2h-4z"/></svg>