<svg id="Layer_6" enable-background="new 0 0 64 64" height="512" viewBox="0 0 64 64" width="512" xmlns="http://www.w3.org/2000/svg"><path d="m56 48h6v4h-6z" fill="#f0d0b4"/><path d="m56 34.45c3.5 2.13 6 5.36 6 8.55v5h-6v-8-4z" fill="#b4dd7f"/><path d="m36 32s2 3 6 3 6-3 6-3v2.29c0 .58-.1 1.12-.29 1.61-.6 1.62-2.08 2.72-3.71 3.1v1 12h-4v-12-1c-1.63-.38-3.11-1.48-3.71-3.1-.19-.49-.29-1.03-.29-1.61z" fill="#b4dd7f"/><path d="m28 40v10l-.13.13-2.36-2.35c-.63-.63-1.4-1.33-2.23-1.65-.4-.15-.84-.16-1.27-.06l-.01-.07c1.04-2.62 1.56-5.54 1.8-8.02l.2.02c1.04-1.31 2.42-2.51 4-3.49v1.49z" fill="#b4dd7f"/><path d="m36 34.29c0 .58.1 1.12.29 1.61l-.29.1h-8v-1.49c2.36-1.46 5.18-2.43 8-2.51z" fill="#e6e9ed"/><path d="m28 50v-10h12v12h-10l-.03.04c-.4-.27-.78-.59-1.13-.94l-.97-.97z" fill="#e6e9ed"/><path d="m56 48v4h-12v-12h12z" fill="#e6e9ed"/><path d="m48 32c2.82.08 5.64 1.01 8 2.45v1.55h-8l-.29-.1c.19-.49.29-1.03.29-1.61z" fill="#e6e9ed"/><path d="m40 40h-12v-4h8l.29-.1c.6 1.62 2.08 2.72 3.71 3.1z" fill="#ff826e"/><path d="m44 39c1.63-.38 3.11-1.48 3.71-3.1l.29.1h8v4h-12z" fill="#ff826e"/><path d="m38 58 2 4h-38v-2.7c0-1.12.91-2.03 2.03-2.03h.33c.95 0 1.77-.68 1.96-1.61l.2-1c.22-1.11.71-2.2 1.51-2.96.09-.1.19-.18.29-.26.36-.29.82-.44 1.29-.44h.02c.24 0 .49-.05.69-.19.53-.39.95-.99 1.28-1.54l1.09-1.81c.75-1.27 2.32-1.79 3.68-1.25l1.8.72c.36.15.8.18 1.22.14.21 0 .42-.03.61-.07l1.45-.72c.18-.09.37-.16.56-.21.43-.1.87-.09 1.27.06.83.32 1.6 1.02 2.23 1.65l2.36 2.35.97.97c.35.35.73.67 1.13.94.33.23.68.44 1.04.61.34.16.72.25 1.1.28l.89.07c1.91.17 4.39 3.18 5 5z" fill="#d3a06c"/><path d="m10.32 50.81c-.2.14-.45.19-.69.19h-.02c-.47 0-.93.15-1.29.44l-.32-.44c-5.5-5.54-6-18.9-6-18.9h7.02l1.98 8.9h4l1.98-8.9h7.02s.14 2.55-.2 5.88c-.24 2.48-.76 5.4-1.8 8.02l.01.07c-.19.05-.38.12-.56.21l-1.45.72c-.19.04-.4.07-.61.07-.42.04-.86.01-1.22-.14l-1.8-.72c-1.36-.54-2.93-.02-3.68 1.25l-1.09 1.81c-.33.55-.75 1.15-1.28 1.54z" fill="#ccd1d9"/><path d="m9.02 32.1h1.98 4 1.98l-1.98 8.9h-4z" fill="#fcd770"/><path d="m14 16h-3v5 11 .1h4v-.1-11-5z" fill="#aab2bd"/><path d="m21 10v4.66l-6 6.34v-5-1l2-2v-2c0-.55-.45-1-1-1h-6c-.55 0-1 .45-1 1v2l2 2.08v.92 5l-6-6.39v-4.61c0-2.21 1.79-4 4-4h8c2.21 0 4 1.79 4 4z" fill="#838f9b"/><g fill="#f0d0b4"><path d="m47 29 1 3s-2 3-6 3-6-3-6-3l1-3 .09-.17c1.45.75 3.13 1.17 4.91 1.17s3.46-.42 4.91-1.17z"/><path d="m56 20c0 1.66-1.12 3-2.5 3h-1.5l-.23-.06c.15-.62.23-1.27.23-1.94v-4h1.5c1.38 0 2.5 1.34 2.5 3z"/><path d="m49 19c0-.55-.45-1-1-1s-1 .45-1 1 .45 1 1 1 1-.45 1-1zm-13-1c-.55 0-1 .45-1 1s.45 1 1 1 1-.45 1-1-.45-1-1-1zm-4-3h20v2 4c0 .67-.08 1.32-.23 1.94-.62 2.53-2.42 4.66-4.86 5.89-1.45.75-3.13 1.17-4.91 1.17s-3.46-.42-4.91-1.17c-2.44-1.23-4.24-3.36-4.86-5.89-.15-.62-.23-1.27-.23-1.94v-4z"/><path d="m32 21c0 .67.08 1.32.23 1.94l-.23.06h-1.5c-1.38 0-2.5-1.34-2.5-3s1.12-3 2.5-3h1.5z"/></g><path d="m40 2.12v8.88h-5v-2c0-1.1-.9-2-2-2h-1.7c1.62-2.44 4.71-4.39 8.7-4.88z" fill="#ffeaa7"/><path d="m52.7 7h-1.7c-1.1 0-2 .9-2 2v2h-5v-8.88c3.99.49 7.08 2.44 8.7 4.88z" fill="#ffeaa7"/><path d="m54 11h-5v-2c0-1.1.9-2 2-2h1.7c.84 1.25 1.3 2.62 1.3 4z" fill="#fcd770"/><path d="m56 11v4h-4-20-4v-4h2 5 5 4 5 5z" fill="#fcd770"/><path d="m44 2.12v8.88h-4v-8.88c.65-.08 1.31-.12 2-.12s1.35.04 2 .12z" fill="#fcd770"/><path d="m35 9v2h-5c0-1.38.46-2.75 1.3-4h1.7c1.1 0 2 .9 2 2z" fill="#fcd770"/><path d="m9 57h2v2h-2z"/><path d="m13 51h2v2h-2z"/><path d="m21 49h2v2h-2z"/><path d="m17 55h2v2h-2z"/><path d="m29 57h2v2h-2z"/><path d="m25 53h2v2h-2z"/><path d="m41 20h2v2h-2z"/><path d="m45 24h-2c0 .551-.449 1-1 1s-1-.449-1-1h-2c0 1.654 1.346 3 3 3s3-1.346 3-3z"/><circle cx="48" cy="19" r="1"/><circle cx="36" cy="19" r="1"/><path d="m63 43c0-5.652-6.958-11.39-14.261-11.946l-.589-1.767c2.037-1.253 3.588-3.111 4.343-5.287h1.007c1.93 0 3.5-1.794 3.5-4s-1.57-4-3.5-4h3.5v-6h-2.076c-.63-4.501-5.449-9-12.924-9s-12.294 4.499-12.924 9h-2.076v6h3.5c-1.93 0-3.5 1.794-3.5 4s1.57 4 3.5 4h1.007c.755 2.176 2.306 4.034 4.343 5.287l-.585 1.756c-3.662.289-7.484 1.975-10.273 4.466.084-1.974.015-3.334.007-3.466l-.055-.943h-8.944v-9.702l6-6.343v-5.055c0-2.757-2.243-5-5-5h-8c-2.757 0-5 2.243-5 5v5.011l6 6.385v9.704h-9.038l.038 1.037c.021.551.561 13.315 5.974 19.227-.868 1.01-1.26 2.218-1.435 3.1l-.2.996c-.096.469-.508.81-.98.81h-.329c-1.671 0-3.03 1.359-3.03 3.03v3.7h40.618l-2.694-5.389c-.464-1.308-1.884-3.382-3.545-4.611h27.621zm-2 0v4h-4v-10.632c2.394 1.87 4 4.283 4 6.632zm-12.686-6h6.686v2h-8.541c.747-.505 1.398-1.175 1.855-2zm.686-3.93c2.077.223 4.123.928 5.927 1.93h-5.987c.028-.231.06-.46.06-.706zm6-13.07c0 1.084-.687 2-1.5 2h-.556c.036-.329.056-.662.056-1v-3h.5c.813 0 1.5.916 1.5 2zm-7-11v1h-3v-6.686c2.277.477 4.171 1.471 5.541 2.732-1.436.223-2.541 1.457-2.541 2.954zm2 0c0-.551.449-1 1-1h1.131c.377.648.631 1.322.761 2h-2.892zm-7-5.961v6.961h-2v-6.961c.329-.021.66-.039 1-.039s.671.018 1 .039zm-9.541 3.007c1.37-1.261 3.263-2.255 5.541-2.732v6.686h-3v-1c0-1.497-1.105-2.731-2.541-2.954zm-1.59 1.954h1.131c.551 0 1 .449 1 1v1h-2.892c.13-.678.385-1.352.761-2zm-2.869 6v-2h26v2zm1.5 8c-.813 0-1.5-.916-1.5-2s.687-2 1.5-2h.5v3c0 .338.02.671.056 1zm2.5-1v-5h18v5c0 4.411-4.038 8-9 8s-9-3.589-9-8zm9 10c1.541 0 3.008-.292 4.341-.815l.539 1.618c-.618.702-2.243 2.197-4.88 2.197-2.642 0-4.26-1.49-4.88-2.196l.539-1.619c1.333.523 2.8.815 4.341.815zm-11.743 20c-.247-.19-.491-.384-.711-.608l-.546-.544v-8.848h10v10zm-1.257-12v-2h6.686c.457.825 1.108 1.495 1.855 2zm6.06-4h-5.916c1.826-1.019 3.857-1.708 5.856-1.928v1.222c0 .246.032.475.06.706zm-10.276 3.62c.63-.796 1.384-1.527 2.216-2.188v11.421l-.783-.781c-.709-.709-1.57-1.487-2.588-1.88-.08-.03-.167-.04-.25-.062.729-2.195 1.141-4.487 1.372-6.536zm-9.053-5.52-1.533 6.9h-2.396l-1.534-6.9zm-2.145-18.1h-1.268l-2.318-2.404v-1.596h6v1.586zm-1.586 2h2v3h-2zm-6-2.781v-4.219c0-1.654 1.346-3 3-3h8c1.654 0 3 1.346 3 3v4.259l-4 4.229v-3.074l2-2v-2.414c0-1.103-.897-2-2-2h-6c-1.103 0-2 .897-2 2v2.404l2 2.074v2.998zm6 7.781h2v9.1h-2zm-3.78 11.1 1.978 8.9h5.604l1.978-8.9h5.247c.025 2.164-.111 7.649-1.838 12.213-.061.027-.124.041-.184.072l-1.327.659c-.111.018-.227.028-.383.031-.3.029-.571.004-.754-.072l-1.802-.721c-1.84-.731-3.906-.029-4.906 1.664l-1.09 1.811c-.363.605-.695 1.014-.985 1.229-.01.002-.053.014-.148.014-.349 0-.692.058-1.013.168-4.203-4.385-5.285-13.911-5.531-17.068zm28.832 25.218 1.33 2.682h-35.382v-1.7c0-.568.462-1.03 1.03-1.03h.33c1.418 0 2.654-1.013 2.94-2.414l.201-1.002c.201-1.011.633-1.874 1.273-2.486.052-.058.112-.101.172-.149.176-.141.412-.219.684-.219.481 0 .918-.128 1.283-.384.716-.527 1.225-1.297 1.544-1.83l1.094-1.817c.491-.833 1.543-1.188 2.448-.83l1.787.715c.604.251 1.26.254 1.604.216.254 0 .529-.031.816-.091l1.697-.807c.346-.176.731-.215 1.017-.108.662.255 1.354.895 1.884 1.425l3.323 3.313c.707.719 1.531 1.307 2.457 1.753.437.206.923.331 1.448.373l.88.069c1.313.116 3.588 2.675 4.14 4.321zm5.948-20.115v12.797h-2v-12.797l-.776-.178c-1.581-.362-3.17-1.631-3.215-3.646 1.134.826 2.793 1.621 4.991 1.621s3.857-.795 4.992-1.621c-.046 2.016-1.634 3.284-3.215 3.646zm2 2.797h10v10h-10zm12 10v-2h4v2z"/></svg>