<svg id="Layer_6" enable-background="new 0 0 64 64" height="512" viewBox="0 0 64 64" width="512" xmlns="http://www.w3.org/2000/svg"><path d="m51 39.32c4.16 2.59 6.93 7.12 6.99 12.48-.1-1.01-.96-1.8-1.99-1.8h-5z" fill="#ffeaa7"/><path d="m13 39.32c2.37-1.48 5.19-2.32 8.22-2.32h2.78c0 1.64.79 3.09 2 4l-.03.22-8-1.22-.97 5.67 4.01.61-.64 3.72h-7.37z" fill="#fcd770"/><path d="m6.01 51.8c.06-5.36 2.83-9.89 6.99-12.48v10.68h-5c-1.03 0-1.89.79-1.99 1.8z" fill="#ffeaa7"/><path d="m42 44.47-4 .64.69 4.89h-.69c-1.1 0-2 .9-2 2v1h-8v-1c0-1.1-.9-2-2-2h-1.51l.53-3.11 4.01.61.94-5.5h.03 5c2.76 0 5-2.24 5-5h2.78c3.03 0 5.85.84 8.22 2.32v10.68h-8.22z" fill="#fcd770"/><g fill="#969faa"><path d="m43.63 56 .37 2.65-1.69 2.35-2.31-1.72-.46-3.28z"/><path d="m42 44.47.78 5.53h-4.09l-.69-4.89z"/><path d="m23.46 56-1.03 6-4.01-.61.92-5.39z"/><path d="m25.02 46.89-.53 3.11h-4.12l.64-3.72z"/></g><path d="m30 41.83-.03.17-.94 5.5-4.01-.61-4.01-.61-4.01-.61.97-5.67 8 1.22z" fill="#aab2bd"/><path d="m28 53v1c0 1.1-.9 2-2 2h-2.54-4.12-11.34c-1.1 0-2-.9-2-2v-2c0-.07 0-.13.01-.2.1-1.01.96-1.8 1.99-1.8h5 7.37 4.12 1.51c1.1 0 2 .9 2 2z" fill="#f0d0b4"/><path d="m58 52v2c0 1.1-.9 2-2 2h-12.37-4.09-1.54c-1.1 0-2-.9-2-2v-1-1c0-1.1.9-2 2-2h.69 4.09 8.22 5c1.03 0 1.89.79 1.99 1.8.01.07.01.13.01.2z" fill="#f0d0b4"/><path d="m39.02 34.06.98 2.94c0 2.76-2.24 5-5 5h-5-.03l.03-.17-4.03-.61.03-.22c-1.21-.91-2-2.36-2-4l.97-2.9c2.25 1.31 4.89 2.01 7.71 1.88 2.31-.11 4.47-.8 6.34-1.92z" fill="#f0d0b4"/><path d="m34 27c2.76 0 5 2.24 5 5v2l.02.06c-1.87 1.12-4.03 1.81-6.34 1.92-2.82.13-5.46-.57-7.71-1.88l.03-.1v-2c0-2.76 2.24-5 5-5h2z" fill="#cf9e76"/><path d="m39 32c0-2.76-2.24-5-5-5h-2-2c-2.76 0-5 2.24-5 5v2l-.03.1c-3.05-1.77-5.36-4.65-6.39-8.1-.38-1.27-.58-2.61-.58-4v-2-2c7 0 12-5 12-5l1 6c1.99 0 4-2 5-5 0 0 4 4 10 4v2 1.6c0 1.52-.24 3-.68 4.4-1.06 3.39-3.32 6.27-6.3 8.06l-.02-.06z" fill="#f0d0b4"/><path d="m47.5 20c1.38 0 2.5 1.34 2.5 3s-1.12 3-2.5 3h-2.18c.44-1.4.68-2.88.68-4.4v-1.6z" fill="#f0d0b4"/><path d="m18.58 26h-2.08c-1.38 0-2.5-1.34-2.5-3s1.12-3 2.5-3h1.5v2c0 1.39.2 2.73.58 4z" fill="#f0d0b4"/><path d="m14 23v-5c0-9.94 8.06-16 18-16s18 6.06 18 16v5c0-1.66-1.12-3-2.5-3h-1.5v-2c-6 0-10-4-10-4-1 3-3.01 5-5 5l-1-6s-5 5-12 5v2h-1.5c-1.38 0-2.5 1.34-2.5 3z" fill="#656d78"/><path d="m32 31c-.552 0-1-.449-1-1h-2c0 1.654 1.346 3 3 3s3-1.346 3-3h-2c0 .551-.448 1-1 1z"/><circle cx="24" cy="23" r="1"/><circle cx="40" cy="23" r="1"/><path d="m42.782 36h-2.062l-.504-1.512c2.651-1.782 4.706-4.396 5.827-7.488h1.457c1.93 0 3.5-1.794 3.5-4v-5c0-10.009-7.813-17-19-17s-19 6.991-19 17v5c0 2.206 1.57 4 3.5 4h1.365c.773 2.192 2.042 4.194 3.782 5.854.662.632 1.374 1.189 2.121 1.682l-.488 1.464h-2.062c-9.094 0-16.218 7.028-16.218 16v2c0 1.654 1.346 3 3 3h10.155l-.892 5.225 5.986.912 1.054-6.137h1.697c1.654 0 3-1.346 3-3h6c0 1.654 1.346 3 3 3h.67l.397 2.833 3.46 2.576 2.519-3.5-.267-1.909h11.221c1.654 0 3-1.346 3-3v-2c0-8.972-7.124-16-16.218-16zm13.921 13.092c-.227-.055-.46-.092-.703-.092h-4v-7.731c2.367 1.964 4.054 4.684 4.703 7.823zm-24.073-14.107c-2.347.108-4.613-.406-6.63-1.459v-1.526c0-2.206 1.794-4 4-4h4c2.206 0 4 1.794 4 4v1.491c-1.618.866-3.432 1.403-5.37 1.494zm14.87-9.985h-.877c.238-1.094.377-2.227.377-3.396v-.604h.5c.813 0 1.5.916 1.5 2s-.687 2-1.5 2zm-31 0c-.813 0-1.5-.916-1.5-2s.687-2 1.5-2h.5v1c0 1.021.102 2.024.299 3zm.5-8v2h-.5c-.539 0-1.044.151-1.5.401v-1.401c0-8.832 6.99-15 17-15s17 6.168 17 15v1.401c-.456-.25-.961-.401-1.5-.401h-.5v-2h-1c-5.49 0-9.257-3.671-9.293-3.707l-1.145-1.144-.511 1.535c-.698 2.093-1.951 3.667-3.231 4.156l-1.153-6.921-1.374 1.374c-.047.047-4.782 4.707-11.293 4.707zm2 5v-3.031c4.7-.295 8.4-2.601 10.304-4.062l.849 5.093h.847c2.127 0 4.158-1.664 5.414-4.341 1.541 1.171 4.579 3.033 8.586 3.307v2.639c0 4.293-1.953 8.11-5 10.563v-.168c0-3.309-2.691-6-6-6h-1v-2h-2v2h-1c-3.309 0-6 2.691-6 6v.246c-.335-.263-.66-.541-.973-.839-2.596-2.478-4.027-5.819-4.027-9.407zm12.992 15.001c.243 0 .487-.006.731-.018 2.049-.096 3.982-.616 5.728-1.467l.536 1.607c-.067 2.148-1.823 3.877-3.987 3.877h-3.844l.001-.008-4.624-.702.067-.09c-.985-.739-1.551-1.858-1.587-3.08l.529-1.586c1.994.954 4.18 1.467 6.45 1.467zm-10.435 11.999.273-1.587 2.034.309-.218 1.278zm-3.4-4.168.633-3.696 10.053 1.528-.633 3.696zm4.935-6.832c.11.659.325 1.287.639 1.864l-6.582-1-1.307 7.64 4.009.609-.323 1.887h-5.528v-9.105c2.106-1.2 4.562-1.895 7.218-1.895zm-11.092 3.269v7.731h-4c-.243 0-.476.037-.703.092.649-3.139 2.336-5.859 4.703-7.823zm9.61 19.594-2.033-.309.606-3.554h2.091zm5.39-6.863c0 .552-.448 1-1 1h-18c-.552 0-1-.448-1-1v-2c0-.552.448-1 1-1h18c.552 0 1 .448 1 1zm2-2c0-1.654-1.346-3-3-3h-.326l.166-.977 4.01.609.964-5.632h4.186c2.967 0 5.431-2.167 5.91-5h1.873c2.656 0 5.112.695 7.218 1.895v9.105h-6.351l-.521-3.693 2.028-.32-.312-1.975-10 1.578.312 1.975 1.995-.315.395 2.795c-1.439.222-2.547 1.456-2.547 2.955zm10.559-3-.432-3.061 2.025-.32.477 3.381zm3.395 9.392-.862 1.199-1.159-.863-.243-1.728h2.07zm14.046-4.392c0 .552-.448 1-1 1h-18c-.552 0-1-.448-1-1v-2c0-.552.448-1 1-1h18c.552 0 1 .448 1 1z"/></svg>