<svg id="Layer_6" enable-background="new 0 0 64 64" height="512" viewBox="0 0 64 64" width="512" xmlns="http://www.w3.org/2000/svg"><g fill="#dfb28b"><path d="m6 20h8v6h-8z"/><path d="m6 32h8v6h-8z"/><path d="m6 44h8v6h-8z"/><path d="m6 56h8v6h-8z"/></g><path d="m6 56v6h-4v-49h4v7 6 6 6 6 6z" fill="#b27946"/><path d="m18 13v30.58c-2.44 2.57-4 5.85-4 9.42v-3-6-6-6-6-6-7z" fill="#b27946"/><path d="m18 43.58c.59-.62 1.22-1.19 1.89-1.72l.11.14v20h-6v-6-3c0-3.57 1.56-6.85 4-9.42z" fill="#b4dd7f"/><path d="m62 53v9h-6.02l.02-20 .11-.14c3.49 2.75 5.89 6.72 5.89 11.14z" fill="#b4dd7f"/><path d="m56.11 41.86-.11.14-.02 20h-6v-4l.01-4v-4-4l.01-4v-3l.08-.27c2.18.65 4.25 1.73 6.03 3.13z" fill="#ff826e"/><path d="m50 20h-24-4v-4h2 4 4 6 6 4 4 2v4z" fill="#fcd770"/><path d="m51.5 22c1.38 0 2.5 1.34 2.5 3s-1.12 3-2.5 3h-1.5-.92c.59-1.35.92-2.82.92-4.37v-1.63z" fill="#f0d0b4"/><path d="m52 16h-4v-2c0-.55-.22-1.05-.59-1.41-.36-.37-.86-.59-1.41-.59v-7.79c3.74 2.39 6 6.58 6 11.79z" fill="#ffeaa7"/><path d="m50.08 38.73-.08.27v3h-.02-3.96v-3.98c1.37.06 2.73.3 4.06.71z" fill="#ff826e"/><path d="m26.92 28c-.59-1.35-.92-2.82-.92-4.37v-1.63-2h24v2 1.63c0 1.55-.33 3.02-.92 4.37-1.16 2.65-3.35 4.79-6.09 5.98-1.52.65-3.21 1.02-4.99 1.02s-3.47-.37-4.99-1.02c-2.74-1.19-4.93-3.33-6.09-5.98z" fill="#f0d0b4"/><path d="m50 42-.01 4h-.01-3.97l.01-4h3.96z" fill="#fcd770"/><path d="m49.99 46v4h-.01-3.97v-4h3.97z" fill="#ff826e"/><path d="m49.99 50v4h-.01-3.97v-4h3.97z" fill="#fcd770"/><path d="m49.99 54-.01 4h-3.98l.01-4h3.97z" fill="#ff826e"/><path d="m46 58h3.98v4h-3.98z" fill="#fcd770"/><path d="m48 14v2h-4v-2c0-1.1.9-2 2-2 .55 0 1.05.22 1.41.59.37.36.59.86.59 1.41z" fill="#ffc729"/><path d="m46.02 42-.01 4v4 4l-.01 4v4h-8v-14c2.53 0 4.26-4 5.19-6.94.54-1.71.81-3.06.81-3.06h1.3c.24 0 .48.01.72.02z" fill="#b4dd7f"/><path d="m38 8v-6c3.07 0 5.79.79 8 2.21v7.79c-1.1 0-2 .9-2 2v2h-6v-4z" fill="#ffeaa7"/><path d="m43 34 1 4s-.27 1.35-.81 3.06l-.19-.06h-10l-.19.06c-.54-1.71-.81-3.06-.81-3.06l1-4 .01-.02c1.52.65 3.21 1.02 4.99 1.02s3.47-.37 4.99-1.02z" fill="#f0d0b4"/><path d="m43 41 .19.06c-.93 2.94-2.66 6.94-5.19 6.94s-4.26-4-5.19-6.94l.19-.06z" fill="#ccd1d9"/><path d="m29.99 54v-4-4l-.01-4v-3.98c.24-.01.48-.02.72-.02h1.3s.27 1.35.81 3.06c.93 2.94 2.66 6.94 5.19 6.94v14h-8v-4z" fill="#b4dd7f"/><path d="m38 12v4h-6v-2c0-.55-.22-1.05-.59-1.41-.36-.37-.86-.59-1.41-.59v-7.79c2.21-1.42 4.93-2.21 8-2.21v6z" fill="#ffeaa7"/><path d="m32 14v2h-4v-2c0-1.1.9-2 2-2 .55 0 1.05.22 1.41.59.37.36.59.86.59 1.41z" fill="#ffc729"/><path d="m30 4.21v7.79c-1.1 0-2 .9-2 2v2h-4c0-5.21 2.26-9.4 6-11.79z" fill="#ffeaa7"/><path d="m26.02 58h3.98v4h-3.98z" fill="#fcd770"/><path d="m29.99 54 .01 4h-3.98l-.01-4h.01z" fill="#ff826e"/><path d="m29.99 50v4h-3.97-.01v-4h.01z" fill="#fcd770"/><path d="m29.99 46v4h-3.97-.01v-4h.01z" fill="#ff826e"/><path d="m29.98 42 .01 4h-3.97-.01l-.01-4h.02z" fill="#fcd770"/><path d="m29.98 38.02v3.98h-3.96-.02v-3l-.08-.27c1.33-.41 2.69-.65 4.06-.71z" fill="#ff826e"/><path d="m26.92 28h-.92-1.5c-1.38 0-2.5-1.34-2.5-3s1.12-3 2.5-3h1.5v1.63c0 1.55.33 3.02.92 4.37z" fill="#f0d0b4"/><path d="m26.02 58v4h-6.02v-20l-.11-.14c1.78-1.4 3.85-2.48 6.03-3.13l.08.27v3l.01 4v4 4z" fill="#ff826e"/><path d="m37 25h2v2h-2z"/><path d="m41 29h-2c0 .551-.449 1-1 1s-1-.449-1-1h-2c0 1.654 1.346 3 3 3s3-1.346 3-3z"/><circle cx="32" cy="24" r="1"/><circle cx="46" cy="24" r="1"/><path d="m45.304 37h-.523l-.62-2.481c2.401-1.235 4.337-3.175 5.531-5.519h1.808c1.93 0 3.5-1.794 3.5-4s-1.57-4-3.5-4h3.5v-6h-2.044c-.452-8.289-6.464-14-14.956-14s-14.504 5.711-14.956 14h-2.044v6h3.5c-1.93 0-3.5 1.794-3.5 4s1.57 4 3.5 4h1.808c1.194 2.344 3.13 4.283 5.531 5.519l-.62 2.481h-.523c-4.063 0-8.353 1.629-11.696 4.346v-28.346h-2v30.244c-.76.835-1.431 1.738-2 2.701v-32.945h-2v6h-6v-6h-2v48h-2v-48h-2v50h62v-10c0-9.157-9.343-16-17.696-16zm-16.308 20h-1.979l-.002-2h1.979zm-.004-4h-1.979l-.002-2h1.979zm-.003-4h-1.979l-.002-2h1.98zm-.004-4h-1.98l-.002-2h1.98zm-.003-4h-1.98l-.002-1.515c.658-.165 1.318-.291 1.98-.37zm-3.962 20h-4.02v-18.715c1.235-.893 2.588-1.63 4.001-2.175zm1.998-2h1.979l.002 2h-1.979zm3.962-20h.216c.564 2.393 2.374 8.755 5.804 9.829v12.171h-6.001zm7.02 8c-1.505 0-2.861-2.441-3.81-5h7.621c-.95 2.559-2.306 5-3.811 5zm1 1.829c3.43-1.073 5.241-7.435 5.804-9.829h.216l-.019 22h-6.001zm9.984 8.171h-1.979l.002-2h1.979zm.003-4h-1.979l.002-2h1.979zm.004-4h-1.979l.002-2h1.98zm.004-4h-1.98l.002-2h1.98zm.003-4h-1.98l.002-1.885c.661.079 1.322.205 1.98.37zm-1.995 18h1.979l-.002 2h-1.979zm3.996-18.89c1.413.545 2.766 1.282 4.001 2.175l-.021 18.715h-3.999zm2.001-15.11c0 1.084-.687 2-1.5 2h-1.004c.321-1.075.504-2.204.504-3.375v-.625h.5c.813 0 1.5.916 1.5 2zm-2.042-10h-1.958v-1c0-1.302-.839-2.402-2-2.816v-4.974c2.318 2.1 3.738 5.129 3.958 8.79zm-20.958-2c.551 0 1 .449 1 1v1h-2v-1c0-.551.449-1 1-1zm1-1.816v-6.425c1.712-.984 3.734-1.58 6-1.716v3.957h-4v2h4v2h-2v2h2v2h-4v-1c0-1.302-.839-2.402-2-2.816zm8 1.816h2v-2h-2v-2h4v-2h-4v-3.958c2.266.136 4.288.732 6 1.716v6.426c-1.161.414-2 1.514-2 2.816v1h-4zm6 1c0-.551.449-1 1-1s1 .449 1 1v1h-2zm-16-7.79v4.974c-1.161.414-2 1.514-2 2.816v1h-1.958c.22-3.661 1.64-6.69 3.958-8.79zm-6 12.79v-2h30v2h-2-2-22-2zm1.5 8c-.813 0-1.5-.916-1.5-2s.687-2 1.5-2h.5v.625c0 1.171.183 2.3.504 3.375zm2.5-3.375v-2.625h22v2.625c0 5.721-4.935 10.375-11 10.375s-11-4.654-11-10.375zm11 12.375c1.506 0 2.946-.257 4.292-.708l.681 2.724c-.123.58-.293 1.258-.505 1.983h-8.938c-.212-.725-.382-1.403-.505-1.983l.681-2.724c1.348.451 2.788.708 4.294.708zm-25 19h-6v-4h6v2zm0-24h-6v-4h6zm0 2v4h-6v-4zm0 6v4h-6v-4zm0 6v4h-6v-4zm0-24v4h-6v-4zm-6 40v-4h6v4zm8-8c0-3.495 1.578-6.604 3.971-9h.029v17h-4zm46 8h-4.021l.019-17.032c2.411 2.4 4.002 5.521 4.002 9.032z"/></svg>