<svg id="Layer_6" enable-background="new 0 0 64 64" height="512" viewBox="0 0 64 64" width="512" xmlns="http://www.w3.org/2000/svg"><path d="m48 34v1.29c0 .94 0 1.84-.21 2.69-.35 1.44-1.29 2.77-3.79 4.02h-4c-2.5-1.25-3.44-2.58-3.79-4.02-.21-.85-.21-1.75-.21-2.69v-1.29s2 2 6 2 6-2 6-2z" fill="#e6e9ed"/><g fill="#ccd1d9"><path d="m62 44v1h-8v-7-3.6c1.05.47 2.04 1.03 2.95 1.67 3 2.11 5.05 5.03 5.05 7.93z"/><path d="m40 42h4v16h-4z"/><path d="m30 38v9h-4v-3h-4c0-2.9 2.05-5.82 5.05-7.93.91-.64 1.9-1.2 2.95-1.67z"/></g><path d="m30 49v9h-4v-11h4z" fill="#f0d0b4"/><path d="m62 45v13h-8v-9-4z" fill="#f0d0b4"/><path d="m54 49v9h-10v-16c2.5-1.25 3.44-2.58 3.79-4.02l.21.02h6v7z" fill="#ff826e"/><path d="m30 49v-2-9h6l.21-.02c.35 1.44 1.29 2.77 3.79 4.02v16h-10z" fill="#ff826e"/><path d="m36 38h-6v-3.6c1.88-.83 3.94-1.34 6-1.4v1 1.29c0 .94 0 1.84.21 2.69z" fill="#fcd770"/><path d="m54 34.4v3.6h-6l-.21-.02c.21-.85.21-1.75.21-2.69v-1.29-1c2.06.06 4.12.57 6 1.4z" fill="#fcd770"/><path d="m45.38 22.2c.3.5.75.8 1.24.8h5.32c-.36 2.94-2.3 5.45-5.03 6.83-1.45.75-3.13 1.17-4.91 1.17s-3.46-.42-4.91-1.17c-2.73-1.38-4.67-3.89-5.03-6.83h5.32c.49 0 .94-.3 1.24-.8l1.38-2.4c.29-.5.75-.8 1.23-.8h1.54c.48 0 .94.3 1.23.8z" fill="#f0d0b4"/><path d="m48 33v1s-2 2-6 2-6-2-6-2v-1l1-3 .09-.17c1.45.75 3.13 1.17 4.91 1.17s3.46-.42 4.91-1.17l.09.17z" fill="#f0d0b4"/><path d="m30 34.4c-1.05.47-2.04 1.03-2.95 1.67l-.05-.07c-5 0-5-5.5-5-5.5 6 0 6-15.5 6-15.5 0-7.18 6.27-13 14-13s14 5.82 14 13c0 0 0 15.5 6 15.5 0 0 0 5.5-5 5.5l-.05.07c-.91-.64-1.9-1.2-2.95-1.67-1.88-.83-3.94-1.34-6-1.4l-1-3-.09-.17c2.73-1.38 4.67-3.89 5.03-6.83.04-.33.06-.66.06-1 0 0 .04-3.75 0-5l-5-4c-1.63 1.66-3.46 2-5 2s-3.37-.34-5-2l-5 4v5c0 .34.02.67.06 1 .36 2.94 2.3 5.45 5.03 6.83l-.09.17-1 3c-2.06.06-4.12.57-6 1.4z" fill="#b27946"/><path d="m51.94 23h-5.32c-.49 0-.94-.3-1.24-.8l-1.38-2.4c-.29-.5-.75-.8-1.23-.8h-1.54c-.48 0-.94.3-1.23.8l-1.38 2.4c-.3.5-.75.8-1.24.8h-5.32c-.04-.33-.06-.66-.06-1v-5l5-4c1.63 1.66 3.46 2 5 2s3.37-.34 5-2l5 4c.04 1.25 0 5 0 5 0 .34-.02.67-.06 1z" fill="#69d6f4"/><path d="m12.17 9.95-1.09-3.97-1.08-3.98h-4l.83 3.05 1.09 3.97 1.08 3.98h4z" fill="#fcd770"/><path d="m18 2-1.08 3.98-1.09 3.97-.83 3.05h4l1.08-3.98 1.09-3.97.83-3.05z" fill="#fcd770"/><path d="m15 13h4 3v9l-8 4-8-4v-9h3 4zm1 6c0-1.1-.9-2-2-2s-2 .9-2 2 .9 2 2 2 2-.9 2-2z" fill="#ccd1d9"/><path d="m26 58v4h-24v-18h4 4v6h4 4v-6h4 4v3z" fill="#d3a06c"/><path d="m10 44h8v6h-4-4z" fill="#b27946"/><path d="m42 28c1.654 0 3-1.346 3-3h-2c0 .551-.448 1-1 1s-1-.449-1-1h-2c0 1.654 1.346 3 3 3z"/><circle cx="48" cy="19" r="1"/><circle cx="36" cy="19" r="1"/><path d="m63 30.5v-1h-1c-4.076 0-4.998-10.738-5-14.5 0-7.72-6.729-14-15-14s-15 6.28-15 14c-.002 3.762-.924 14.5-5 14.5h-1v1c0 1.851.855 5.055 3.805 6.131-1.617 1.488-2.824 3.217-3.408 5.014l-3.554-4.442c.487-.584.849-1.275 1.023-2.039.348-1.522-.001-3.083-.956-4.281-.742-.93-1.769-1.553-2.91-1.783v-2.481l8-4v-10.619h-2.691l3-11h-6.073l-3 11h-.472l-3-11h-6.074l3 11h-2.69v10.618l8 4v4.382h1c.918 0 1.774.413 2.348 1.131.582.73.784 1.649.57 2.588-.071.31-.2.6-.367.868l-.208-.26c-.573-.715-1.427-1.126-2.343-1.126s-1.77.411-2.343 1.126l-.194.242c-.289-.468-.463-1.002-.463-1.569v-1h-2v1c0 1.187.417 2.307 1.161 3.197l-4.642 5.803h-4.519v20h26v-4h36v-15c0-2.61-1.49-5.237-3.805-7.369 2.95-1.076 3.805-4.28 3.805-6.131zm-45.287-23.648 2.068-.517-.494 1.812-2.068.517zm2.977-3.852-.306 1.123-2.068.517.448-1.64zm-4.074 7.877 2.068-.517-.448 1.64h-1.927zm-8.397-4.541 2.068.517.494 1.812-2.068-.517zm1.017-3.336.447 1.64-2.067-.517-.306-1.123zm.081 7.36 2.068.517.306 1.123h-1.927zm-2.317 3.64h14v7.382l-7 3.5-7-3.5zm22 22.041v9.959h-2v-3h-3.897c.488-2.631 2.824-5.232 5.897-6.959zm6.049.959h-4.049v-1.913c1.282-.509 2.633-.871 4-1.017v1.224c0 .566.003 1.137.049 1.706zm15.951-15h-4.385c-.116 0-.26-.117-.364-.299l-1.385-2.401c-.47-.814-1.255-1.3-2.096-1.3h-1.54c-.842 0-1.626.486-2.097 1.3l-1.385 2.401c-.103.182-.247.299-.363.299h-4.385v-4.52l3.958-3.167c1.392 1.134 3.05 1.687 5.042 1.687s3.65-.553 5.042-1.686l3.969 3.175c.021 1.493-.011 4.468-.011 4.511zm-13.615 2c.844 0 1.628-.486 2.097-1.3l1.385-2.399c.105-.183.248-.3.364-.3h1.539c.116 0 .259.118.364.299l1.385 2.4c.468.814 1.252 1.3 2.096 1.3h4.089c-1.003 3.445-4.519 6-8.704 6s-7.701-2.555-8.704-6zm15.615 13h-4.049c.046-.569.049-1.14.049-1.706v-1.224c1.367.146 2.718.508 4 1.017zm-12.751 4c-2.977-1.548-3.227-3.034-3.246-5.135 1.119.57 2.783 1.135 4.997 1.135s3.878-.565 4.998-1.135c-.02 2.101-.27 3.587-3.246 5.135zm-9.249 9h6v-2h-6v-9h4.479c.492 1.258 1.489 2.479 3.521 3.604v14.396h-8zm11-18c1.542 0 3.008-.292 4.341-.815l.659 1.976v.37c-.626.471-2.267 1.469-5 1.469s-4.374-.998-5-1.469v-.37l.659-1.976c1.333.523 2.799.815 4.341.815zm-27.22 4.577.207.258c-.088.03-.176.062-.267.082-.588.135-1.163.087-1.695-.097l.195-.243c.381-.478 1.179-.478 1.56 0zm-3.053 1.866c.704.36 1.48.556 2.279.556.384 0 .772-.043 1.159-.132.393-.09.764-.236 1.116-.414l3.638 4.547h-11.838zm1.273 8.557v2h-2v-4h6v4h-2v-2zm12 14h-22v-16h6v6h10v-6h6zm2-13h2v9h-2zm14 9v-14h2v14zm4-14.396c2.031-1.124 3.029-2.346 3.521-3.604h4.479v9h-6v2h6v7h-8zm10 14.396v-11h6v11zm6-13h-6v-7.959c3.463 1.946 6 5.003 6 7.959zm-3.901-9.01c-2.424-1.614-5.362-2.707-8.36-2.936l-.589-1.766c2.924-1.798 4.85-4.839 4.85-8.277.002-.154.041-3.787-.001-5.043l-.015-.46-6.064-4.852-.633.644c-1.141 1.159-2.504 1.7-4.287 1.7s-3.146-.541-4.287-1.701l-.633-.644-6.08 4.865v5.48c0 3.445 1.926 6.488 4.85 8.287l-.589 1.767c-2.999.228-5.936 1.321-8.361 2.936-2.828-.056-3.611-2.314-3.822-3.624 5.746-1.479 5.922-14.771 5.922-16.366 0-6.617 5.832-12 13-12s13 5.383 13 12c0 1.594.175 14.881 5.918 16.365-.216 1.294-1.004 3.568-3.819 3.625z"/><path d="m15 57h6v2h-6z"/><path d="m17 53h4v2h-4z"/><path d="m17 19c0-1.654-1.346-3-3-3s-3 1.346-3 3 1.346 3 3 3 3-1.346 3-3zm-4 0c0-.551.448-1 1-1s1 .449 1 1-.448 1-1 1-1-.449-1-1z"/></svg>