<svg id="Layer_6" enable-background="new 0 0 64 64" height="512" viewBox="0 0 64 64" width="512" xmlns="http://www.w3.org/2000/svg"><path d="m25 27v4h-19v6h8v23c0 .55-.22 1.05-.59 1.41-.36.37-.86.59-1.41.59-2 0-2-2-2-2v-15s0-2-2-2-2 2-2 2v7s0 2-2 2-2-2-2-2v-25z" fill="#69d6f4"/><path d="m25 34v3h-11-8v-6h19z" fill="#ccd1d9"/><path d="m19 49v13h-4v-2-11h2z" fill="#b27946"/><path d="m55 52h7v6h-7z" fill="#f0d0b4"/><path d="m55.07 36.86c3.99 2.02 6.93 5.44 6.93 8.9v.24 6h-7v-6-9z" fill="#fcd770"/><path d="m35 46v-10.93c.33-.04.67-.06 1-.07h1c0 2.76 2.24 5 5 5s5-2.24 5-5h1c.33.01.67.03 1 .07v10.93z" fill="#fcd770"/><path d="m49 35.07v10.93h-14v-10.93c-2.09.24-4.15 1-6 1.93v4 5 12h26v-6-6-9l.07-.14c-1.86-.95-3.95-1.59-6.07-1.79z" fill="#e6e9ed"/><path d="m51 54v4h-18v-4h4 10z" fill="#ff826e"/><circle cx="32" cy="46" fill="#fc6e51" r="2"/><circle cx="52" cy="46" fill="#fc6e51" r="2"/><g fill="#f0d0b4"><path d="m46.09 31.35.91 3.65c0 2.76-2.24 5-5 5s-5-2.24-5-5l.91-3.65c1.26.42 2.64.65 4.09.65s2.83-.23 4.09-.65z"/><path d="m54.87 23h-.87l-.33-.07c.22-.93.33-1.91.33-2.93v-3h.87c1.73 0 3.13 1.34 3.13 3s-1.4 3-3.13 3z"/><path d="m37.91 31.35c-3.83-1.29-6.66-4.4-7.58-8.42-.22-.93-.33-1.91-.33-2.93v-3c10 0 15-6 15-6s3.56 6 9 6v3c0 1.02-.11 2-.33 2.93-.92 4.02-3.75 7.13-7.58 8.42-1.26.42-2.64.65-4.09.65s-2.83-.23-4.09-.65z"/><path d="m30 20c0 1.02.11 2 .33 2.93l-.33.07h-.87c-1.73 0-3.13-1.34-3.13-3s1.4-3 3.13-3h.87z"/></g><path d="m58 16.5v3.5c0-1.66-1.4-3-3.13-3h-.87c-5.44 0-9-6-9-6s-5 6-15 6h-.87c-1.73 0-3.13 1.34-3.13 3 0-.17 0-3.83.01-4 .09-2.56 1.99-7 5.99-7 0-4 4.19-7 10-7 8.84 0 16 6.49 16 14.5z" fill="#656d78"/><path d="m11 60v-15c0-1.206-.799-3-3-3s-3 1.794-3 3v6.988c-.012.462-.194 1.012-1 1.012s-.988-.55-1-1v-24h23v-2h-25v26c0 1.206.799 3 3 3s3-1.794 3-3v-6.988c.012-.462.194-1.012 1-1.012s.988.55 1 1v15c0 1.206.799 3 3 3v-2c-.806 0-.988-.55-1-1z"/><path d="m45 26h-2c0 .552-.448 1-1 1s-1-.448-1-1h-2c0 1.654 1.346 3 3 3s3-1.346 3-3z"/><circle cx="36" cy="21" r="1"/><circle cx="48" cy="21" r="1"/><path d="m41 22h2v2h-2z"/><path d="m48 34h-.22l-.51-2.042c3.451-1.449 6.048-4.313 7.148-7.958h.457c2.274 0 4.125-1.794 4.125-4v-3.5c0-8.547-7.626-15.5-17-15.5-5.938 0-10.36 2.921-10.937 7.069-3.946.596-5.942 4.909-6.053 7.89-.008.202-.01 4.003-.01 4.041 0 2.206 1.851 4 4.125 4h.456c1.101 3.646 3.698 6.51 7.148 7.959l-.509 2.041h-.249c-1.856.055-3.861.543-5.971 1.44v-2.44h-4v-3h-21v8h21v-3h2v5h-12v8h-2v15h6v-15h-2v-6h10v17h35v-13.235c0-5.822-7.275-11.539-15-11.765zm-24 2h-17v-4h17zm-6 25h-2v-11h2zm43-15.235v5.235h-5v-12.478c2.958 1.883 5 4.579 5 7.243zm-9-2.765c-.771 0-1.468.301-2 .78v-7.565c1.39.237 2.744.656 4 1.227v6.338c-.532-.479-1.229-.78-2-.78zm1 3c0 .552-.448 1-1 1s-1-.448-1-1 .448-1 1-1 1 .448 1 1zm-5-9.998v8.998h-12v-9h.083c.478 2.834 2.949 5 5.917 5s5.439-2.166 5.917-5h.054c.009 0 .019.002.029.002zm6.875-14.002h-.031c.093-.651.156-1.315.156-2v-1.988c1.113.062 2 .926 2 1.988 0 1.103-.953 2-2.125 2zm-25.75 0c-1.172 0-2.125-.897-2.125-2 0-1.062.887-1.926 2-1.988v1.988c0 .685.063 1.349.156 2zm0-6h-.125v.012c-.73.022-1.407.23-1.995.574.001-.289.002-.497.003-.549.079-2.105 1.623-6.037 4.992-6.037h1v-1c0-3.477 3.785-6 9-6 8.271 0 15 6.056 15 13.5v.089c-.589-.346-1.268-.555-2-.577v-.012h-.125-.875c-4.798 0-8.107-5.456-8.141-5.511l-.724-1.214-.904 1.084c-.046.057-4.808 5.641-14.231 5.641zm1.875 4v-2.02c7.429-.286 12.026-3.716 13.86-5.412 1.271 1.705 4.146 4.9 8.14 5.373v2.059c0 6.271-4.729 11-11.001 11-6.27 0-10.999-4.729-10.999-11zm10.999 13c1.175 0 2.297-.155 3.365-.421l.627 2.507c-.047 2.166-1.814 3.914-3.991 3.914s-3.944-1.748-3.991-3.914l.627-2.507c1.067.266 2.189.421 3.363.421zm-11.999 8v-3.356c1.403-.661 2.741-1.123 4-1.381v7.517c-.532-.48-1.229-.78-2-.78s-1.468.301-2 .78v-1.78zm3 5c0 .552-.448 1-1 1s-1-.448-1-1 .448-1 1-1 1 .448 1 1zm-3 2.22c.532.48 1.229.78 2 .78 1.302 0 2.402-.839 2.816-2h14.369c.414 1.161 1.514 2 2.816 2 .771 0 1.468-.301 2-.78v8.78h-2v-4h-4v-2h-2v2h-8v-2h-2v2h-4v4h-2v-8.78zm20 6.78v2h-16v-2zm6 2v-4h5v4z"/></svg>