<svg id="Layer_6" enable-background="new 0 0 64 64" height="512" viewBox="0 0 64 64" width="512" xmlns="http://www.w3.org/2000/svg"><g fill="#ff826e"><path d="m59 46v6h-8v-6-4-5.95c4.32 1.77 8 5.6 8 9.95z"/><path d="m35 46v16h-6v-16-4-4h3 3v4z"/><path d="m13 46v6h-8v-6c0-4.35 3.68-8.18 8-9.95v5.95z"/></g><path d="m5 52h8v10h-8z" fill="#f0d0b4"/><path d="m51 52h8v10h-8z" fill="#f0d0b4"/><path d="m13 42h16v4h-16z" fill="#e6e9ed"/><path d="m35 42h16v4h-16z" fill="#e6e9ed"/><path d="m13 46h16v16h-16z" fill="#fcd770"/><path d="m35 46h16v16h-16z" fill="#fcd770"/><path d="m47 54v8h-8v-4-8h8z" fill="#e6e9ed"/><path d="m25 58v4h-8v-8-4h8z" fill="#e6e9ed"/><path d="m29 38v4h-16v-5.95c1.5-.62 3.08-.99 4.61-1.04l2.39 2.99z" fill="#fcd770"/><path d="m51 36.05v5.95h-16v-4h9l2.39-2.99c1.53.05 3.11.42 4.61 1.04z" fill="#fcd770"/><path d="m14 18v4h-4v-8h4z" fill="#aab2bd"/><path d="m54 14v8h-4v-4-4z" fill="#aab2bd"/><path d="m46 11v1h-14-14v-1s1-9 14-9 14 9 14 9z" fill="#aab2bd"/><path d="m45 31 1-2v-11-6h-14-14v6 11l1 2-3 2 1.61 2.01 2.39 2.99h24l2.39-2.99 1.61-2.01z" fill="#e6e9ed"/><path d="m42 28-7 10h-3-3l-7-10h10z" fill="#aab2bd"/><path d="m38 16h-4-2-2-4-4v4h4 4 2 2 4 4v-4z" fill="#ffeaa7"/><path d="m42 20v8h-10-10v-8h4 4 2 2 4z" fill="#69d6f4"/><path d="m48.301 34.225 1.161-1.451-3.173-2.116.711-1.422v-10.236h2v4h6v-10h-6v4h-2v-5-1l-.006-.11c-.012-.099-1.258-9.89-14.994-9.89s-14.982 9.791-14.994 9.89l-.001.11h-.005v6h-2v-4h-6v10h6v-4h2v10.236l.711 1.421-3.173 2.116 1.161 1.451c-5.752 1.071-11.699 5.918-11.699 11.776v17h56v-17c0-5.858-5.947-10.705-11.699-11.775zm2.699-19.225h2v6h-2zm-38 6h-2v-6h2zm45 25v5h-6v-13.343c3.331 1.813 6 4.919 6 8.343zm-18 13h4v-2h-4v-6h6v2h-4v2h4v6h-6zm-2-10v12h-2v-14h14v14h-2v-12zm-20 6h4v-2h-4v-2h6v6h-4v2h4v2h-6zm-2-6v12h-2v-14h14v14h-2v-12zm25-28v6h-18v-6zm0-2h-2v-2h2zm-4 0h-2v-2h2zm-4 0h-2v-2h2zm-4 0h-2v-2h2zm-4 0h-2v-2h2zm15.079 10-5.6 8h-4.959l-5.6-8zm9.921 16h-14v-2h14zm-22 0h-14v-2h14zm2-6h4v22h-4zm20-2.246v4.246h-14v-2h8.48l2.365-2.956c1.042.088 2.109.332 3.155.71zm-18-33.754c11.279 0 12.827 7.005 12.99 8h-25.979c.168-.96 1.782-8 12.989-8zm-11.711 28.343-1.289-2.579v-15.764h26v15.764l-1.289 2.579 2.827 1.884-3.018 3.773h-6.599l6.079-8.685v-7.315-1-5h-22v5 1 7.315l6.079 8.685h-6.599l-3.019-3.773zm-.769 7.657h8.48v2h-14v-4.246c1.046-.378 2.113-.622 3.155-.71zm-7.52-1.343v13.343h-6v-5c0-3.424 2.669-6.53 6-8.343zm-6 15.343h6v8h-6zm46 8v-8h6v8z"/></svg>