<svg id="Layer_6" enable-background="new 0 0 64 64" height="512" viewBox="0 0 64 64" width="512" xmlns="http://www.w3.org/2000/svg"><path d="m48 33v7l-6-3-6 3v-7c-7 .2-14 5.65-14 11v2h4v-2h4v-2h6 8 1c2.209 0 4 1.791 4 4v1h5 8v-3-.24c0-5.34-7-10.56-14-10.76z" fill="#b4dd7f"/><path d="m49 47h-5v-5h1c2.209 0 4 1.791 4 4z" fill="#b27946"/><path d="m44 53v4h-2-3v-4l.06-.16c.29.11.61.16.94.16z" fill="#838f9b"/><path d="m62 50v1c0 1.1-.9 2-2 2h-16-4c-.33 0-.65-.05-.94-.16-1.2-.39-2.06-1.51-2.06-2.84 0-.83.34-1.58.88-2.12s1.29-.88 2.12-.88h4 10 8z" fill="#f0d0b4"/><path d="m56 11v4h-4-20-4v-4h2 10 4 10z" fill="#fcd770"/><path d="m53.5 16c1.38 0 2.5 1.34 2.5 3s-1.12 3-2.5 3h-1.5-.02c.01-.21.02-.43.02-.64v-5.36z" fill="#f0d0b4"/><path d="m44 7v-4.88c6.03.75 10 4.81 10 8.88h-10z" fill="#ffeaa7"/><path d="m52 16v5.36c0 .21-.01.43-.02.64h-7.98v-1c0-1.1-.9-2-2-2-.55 0-1.05.22-1.41.59-.37.36-.59.86-.59 1.41v1h-7.98c-.01-.21-.02-.43-.02-.64v-5.36-1h20z" fill="#69d6f4"/><path d="m44 22h7.98c-.23 3.34-2.23 6.22-5.1 7.78-1.44.78-3.11 1.22-4.88 1.22s-3.44-.44-4.88-1.22c-2.87-1.56-4.87-4.44-5.1-7.78h7.98v-1c0-.55.22-1.05.59-1.41.36-.37.86-.59 1.41-.59 1.1 0 2 .9 2 2z" fill="#f0d0b4"/><path d="m48 33v7l-6-3z" fill="#ccd1d9"/><path d="m47 30 1 3-6 4-6-4 1-3 .12-.22c1.44.78 3.11 1.22 4.88 1.22s3.44-.44 4.88-1.22z" fill="#f0d0b4"/><path d="m44 42v5h-4c-.83 0-1.58.34-2.12.88s-.88 1.29-.88 2.12h-7v-2-4-2h6z" fill="#cf9e76"/><path d="m44 7v4h-4v-4-4.88c.65-.08 1.31-.12 2-.12s1.35.04 2 .12z" fill="#fcd770"/><path d="m42 37-6 3v-7z" fill="#ccd1d9"/><path d="m40 7v4h-10c0-4.07 3.97-8.13 10-8.88z" fill="#ffeaa7"/><path d="m32.02 22h-.02-1.5c-1.38 0-2.5-1.34-2.5-3s1.12-3 2.5-3h1.5v5.36c0 .21.01.43.02.64z" fill="#f0d0b4"/><path d="m30 44v4h-4v-2-2z" fill="#fcd770"/><g fill="#aab2bd"><path d="m14 46v2c-.78.78-1.22 1.22-2 2h-2v-2-4-2h2l2 2z"/><path d="m6 44h4v4h-4z"/><path d="m10 32v4c-.78.78-1.22 1.22-2 2h-2v-8h2z"/><path d="m10 20v4c-.78.78-1.22 1.22-2 2h-2v-8h2z"/><path d="m10 8v4c-.78.78-1.22 1.22-2 2h-2v-8h2c.78.78 1.22 1.22 2 2z"/></g><path d="m6 48v14h-4v-60h4v4 8 4 8 4 8 6z" fill="#b27946"/><path d="m45 25h-2c0 .551-.448 1-1 1s-1-.449-1-1h-2c0 1.654 1.346 3 3 3s3-1.346 3-3z"/><path d="m45 58v-4h15c1.654 0 3-1.346 3-3v-7.235c0-5.643-6.836-11.171-14.262-11.712l-.619-1.857c2.493-1.621 4.254-4.206 4.736-7.196h.645c1.93 0 3.5-1.794 3.5-4 0-1.2-.475-2.266-1.21-3h1.21v-6h-2.076c-.63-4.501-5.449-9-12.924-9s-12.294 4.499-12.924 9h-2.076v6h1.21c-.735.734-1.21 1.8-1.21 3 0 2.206 1.57 4 3.5 4h.645c.482 2.99 2.243 5.575 4.736 7.196l-.62 1.858c-7.303.556-14.261 6.294-14.261 11.946v1h-4v2h8v2h4v2h7.142c.271 1.043.949 1.913 1.858 2.444v4.556h3v2c0 .352.072.686.184 1h-34.184v-12h2v2h3.414l2.586-2.586v-4.828l-2.586-2.586h-3.414v2h-2v-4h1.414l2.586-2.586v-4.828l-2.586-2.586h-1.414v-2h1.414l2.586-2.586v-4.828l-2.586-2.586h-1.414v-2h1.414l2.586-2.586v-4.828l-2.586-2.586h-1.414v-4h-6v62h5 1 37 5c1.654 0 3-1.346 3-3v-1c0-.551.448-1 1-1h10v-2h-10c-1.654 0-3 1.346-3 3v1c0 .551-.448 1-1 1h-5c-.552 0-1-.449-1-1v-2zm-40 3h-2v-58h2zm6-18h.586l1.414 1.414v3.172l-1.414 1.414h-.586zm-2 2v2h-2v-2zm-1.414-14 1.414 1.414v3.172l-1.414 1.414h-.586v-6zm0-12 1.414 1.414v3.172l-1.414 1.414h-.586v-6zm0-12 1.414 1.414v3.172l-1.414 1.414h-.586v-6zm53.414 44c0 .551-.448 1-1 1h-20c-1.103 0-2-.897-2-2s.897-2 2-2h21zm-16-8h1c.082 0 2 .034 2 3h-3zm4-8.933c6.203.63 12 5.209 12 9.698v2.235h-6v-2h-2v2h-3c0-3.955-2.616-5-4-5h-1-1-7.764l5.764-2.882 7 3.5zm-12 .801 3.011 2.008-3.011 1.506zm6.989 2.008 3.011-2.008v3.513zm-10.989-20.876h18v5h-6c0-1.654-1.346-3-3-3s-3 1.346-3 3h-6zm20.5 5h-.5v-4h.5c.813 0 1.5.916 1.5 2s-.687 2-1.5 2zm-.608-11h-7.892v-2h2v-2h-2v-2.686c4.383.919 7.332 3.768 7.892 6.686zm-9.892-6.961v6.961h-2v-6.961c.329-.021.66-.039 1-.039s.671.018 1 .039zm-4 .275v2.686h-2v2h2v2h-7.892c.56-2.918 3.509-5.767 7.892-6.686zm-10 8.686h26v2h-26zm0 7c0-1.084.687-2 1.5-2h.5v4h-.5c-.813 0-1.5-.916-1.5-2zm4.168 4h7.832v-2c0-.551.448-1 1-1s1 .449 1 1v2h7.832c-.802 3.982-4.455 7-8.832 7s-8.03-3.018-8.832-7zm8.832 9c1.536 0 2.997-.308 4.326-.86l.484 1.452-4.81 3.206-4.81-3.207.484-1.452c1.329.553 2.79.861 4.326.861zm-19 13v-1c0-4.511 5.895-9.269 12-9.923v6.923h-6v2h-4v2zm4 2v-2h2v2zm9.142 2h-5.142v-6h12v3h-3c-1.859 0-3.411 1.28-3.858 3zm3.858 5h3v2h-3z"/></svg>