<svg id="Layer_6" enable-background="new 0 0 64 64" height="512" viewBox="0 0 64 64" width="512" xmlns="http://www.w3.org/2000/svg"><path d="m48 47v-5-5l.12-.53 5.93 1.32-.05.21v10.77l-6.89.75-.11.01v-.01c-.22-1.07-.85-1.98-1.71-2.52z" fill="#b4dd7f"/><path d="m32 42v4l-.04.48-5.96-.54v-7.94l-.05-.21 5.93-1.32.12.53z" fill="#b4dd7f"/><g fill="#ff826e"><path d="m48 42v5h-2.71c-.45-.28-.95-.46-1.5-.51l-5.34-.48c-.94-.08-1.81.24-2.5.83l-3.99-.36.04-.48v-4l8-2z"/><path d="m26 38v7.94l-7.03-.62v-.01l.03-.31c.44-2.91 3.12-6.42 6-7l.95-.21z"/><path d="m55 38c2.87.58 5.56 4.09 6 7l.46 2.95-.35.05-7.11.77v-10.77l.05-.21z"/></g><path d="m35.95 46.84c.69-.59 1.56-.91 2.5-.83l5.34.48c.55.05 1.05.23 1.5.51.86.54 1.49 1.45 1.71 2.52v.01l-4.26.53c-.24.03-.46.1-.67.21h-.01l-2.77-.27c-.45-.04-.85.36-.88.89l-.41 5.76c-.03.53.3.99.76 1.03l3.28.32c.45.04.85-.36.89-.89l.07-1.1c.15.02.31.02.47 0l3.23-.4-.21 2.82c-.16 2.14-1.88 3.73-3.86 3.56l-5.34-.48c-1.68-.14-3-1.53-3.24-3.27-.05-.3-.06-.61-.04-.92l.52-6.79.07-.96c.08-1.12.6-2.09 1.35-2.73z" fill="#838f9b"/><path d="m61.74 49.73.25 1.98c.13 1.1-.65 2.1-1.73 2.23l-13.45 1.66-.11.01-3.23.4c-.16.02-.32.02-.47 0-.04 0-.07 0-.1-.01-.84-.14-1.53-.83-1.65-1.73l-.24-1.98c-.1-.85.34-1.64 1.05-2.02h.01c.21-.11.43-.18.67-.21l4.26-.53.11-.01 6.89-.75 7.11-.77.35-.05z" fill="#f0d0b4"/><path d="m26 45.94 5.96.54 3.99.36c-.75.64-1.27 1.61-1.35 2.73l-.07.96-29.02-2.53-.37 4.82-3.14-.24.5-6.8c.08-1.07.93-1.86 1.9-1.77l14.57 1.3v.01z" fill="#cf9e76"/><path d="m5.14 52.82.37-4.82 29.02 2.53-.52 6.79c-.02.31-.01.62.04.92l-1.99.76-2.04-1.63-2.49.95-2.04-1.64-2.49.96-2.04-1.64-2.48.95-2.04-1.63-2.49.95-2.04-1.63-2.5.95-2.04-1.64-2.37.76z" fill="#e6e9ed"/><path d="m34 36 6 4-8 2v-5l-.12-.53z" fill="#e6e9ed"/><path d="m48 37v5l-8-2 6-4 2.12.47z" fill="#e6e9ed"/><path d="m34 32.79c1.77.77 3.82 1.21 6 1.21s4.23-.44 6-1.21v.21 3l-6 4-6-4v-3z" fill="#f0d0b4"/><path d="m42 25c2.21 0 4 1.79 4 4v3.79c-1.77.77-3.82 1.21-6 1.21s-4.23-.44-6-1.21v-3.79c0-1.1.45-2.1 1.17-2.83.73-.72 1.73-1.17 2.83-1.17h2z" fill="#cf9e76"/><path d="m53.5 20c1.38 0 2.5 1.12 2.5 2.5s-1.12 2.5-2.5 2.5h-1.5v-5z" fill="#f0d0b4"/><path d="m46 21c-.55 0-1 .45-1 1s.45 1 1 1 1-.45 1-1-.45-1-1-1zm-12 0c-.55 0-1 .45-1 1s.45 1 1 1 1-.45 1-1-.45-1-1-1zm6 4h-2c-1.1 0-2.1.45-2.83 1.17-.72.73-1.17 1.73-1.17 2.83v3.79c-3.58-1.55-6-4.46-6-7.79v-5-2h24v2 5c0 3.33-2.42 6.24-6 7.79v-3.79c0-2.21-1.79-4-4-4z" fill="#f0d0b4"/><path d="m28 20v5h-1.5c-1.38 0-2.5-1.12-2.5-2.5s1.12-2.5 2.5-2.5z" fill="#f0d0b4"/><path d="m48 4.29v9.71h-16v-9.71c1.47-.93 3.16-1.64 5.04-2l.96 7.71h4l.96-7.71c1.88.36 3.57 1.07 5.04 2z" fill="#ffeaa7"/><path d="m32 4.29v9.71h-6c0-3.46 2.25-7.33 6-9.71z" fill="#fcd770"/><path d="m54 14h-6v-9.71c3.75 2.38 6 6.25 6 9.71z" fill="#fcd770"/><path d="m38 10-.96-7.71c.94-.19 1.93-.29 2.96-.29s2.02.1 2.96.29l-.96 7.71z" fill="#ffc729"/><path d="m56 14v4h-4-24-4v-4h2 6 16 6z" fill="#fcd770"/><path d="m40 31c1.654 0 3-1.346 3-3h-2c0 .551-.449 1-1 1s-1-.449-1-1h-2c0 1.654 1.346 3 3 3z"/><circle cx="46" cy="22" r="1"/><circle cx="34" cy="22" r="1"/><path d="m62.978 51.585-.252-2.009-.737-4.726c-.477-3.155-3.383-7.147-6.772-7.827l-8.217-1.825v-1.784c3.258-1.61 5.53-4.3 5.934-7.413h.566c1.93 0 3.5-1.57 3.5-3.5s-1.57-3.501-3.5-3.501h3.5v-6h-2.062c-.618-5.868-6.575-12-14.938-12s-14.32 6.132-14.938 12h-2.062v6h3.5c-1.93 0-3.5 1.57-3.5 3.5s1.57 3.5 3.5 3.5h.566c.404 3.113 2.676 5.804 5.934 7.413v1.784l-8.196 1.822c-3.188.638-5.939 4.176-6.67 7.215l-13.642-1.223c-.714-.065-1.404.16-1.958.631-.594.504-.969 1.254-1.028 2.06l-.577 7.795 3.142.243-.18 2.378 3.271-1.048 2.074 1.655 2.491-.95 2.042 1.635 2.491-.95 2.04 1.633 2.485-.951 2.041 1.634 2.489-.951 2.039 1.633 2.489-.95 2.039 1.633 1.513-.579c.651 1.605 2.069 2.796 3.809 2.946l5.345.48c.125.011.25.017.375.017 1.037 0 2.037-.371 2.853-1.065.985-.838 1.608-2.09 1.709-3.434l.149-2 12.743-1.57c1.627-.2 2.794-1.698 2.6-3.351zm-2.966-6.431.301 1.927-5.313.577v-8.624c2.41.623 4.652 3.736 5.012 6.12zm-24.339.653-2.673-.239v-2.788l7-1.75 7 1.75v3.22h-1.475c-.508-.271-1.06-.455-1.645-.506l-5.345-.48c-1.024-.089-2.016.203-2.862.793zm-8.673-7.227 4-.889v7.697l-4-.359zm6.801-1.511 3.764 2.509-4.565 1.142v-3.473zm12.398 0 .801.178v3.473l-4.565-1.141zm1.51 11.38c-.063-.154-.133-.304-.209-.449h1.5v-10.309l4 .889v9.295zm-5.709-22.449c1.654 0 3 1.346 3 3v3.117c-1.502.56-3.199.883-5 .883s-3.498-.323-5-.883v-3.117c0-1.654 1.346-3 3-3zm13-3.5c0 .827-.673 1.5-1.5 1.5h-.5v-3h.5c.827 0 1.5.673 1.5 1.5zm-2.068-9.5h-3.932v-6.687c2.183 1.868 3.615 4.295 3.932 6.687zm-15.815-2h5.766l.933-7.466c1.145.325 2.209.792 3.184 1.36v8.106h-14v-8.105c.975-.568 2.039-1.035 3.184-1.36zm1.516-4h2.734l-.25 2h-2.234zm3.217-3.864-.233 1.864h-3.234l-.233-1.864c.603-.08 1.217-.136 1.85-.136s1.247.056 1.85.136zm-10.85 3.177v6.687h-3.932c.317-2.392 1.749-4.819 3.932-6.687zm-6 10.687v-2h30v2zm0 5.5c0-.827.673-1.5 1.5-1.5h.5v3h-.5c-.827 0-1.5-.673-1.5-1.5zm4 2.5v-6h22v6c0 2.479-1.559 4.698-4 6.166v-2.166c0-2.757-2.243-5-5-5h-1v-2h-2v2h-1c-2.757 0-5 2.243-5 5v2.166c-2.441-1.468-4-3.687-4-6.166zm11 10c1.771 0 3.46-.276 5-.771v1.236l-5 3.333-5-3.333v-1.236c1.54.495 3.229.771 5 .771zm-15 4.035v5.816l-4.843-.434c.646-2.242 2.666-4.81 4.843-5.382zm-21.929 12.621.429-5.806c.021-.274.14-.523.328-.684.101-.085.27-.182.485-.163l29.776 2.671c-.261.549-.429 1.149-.482 1.772l-29.02-2.529-.366 4.829zm29.166 6.205-2.039-1.633-2.489.95-2.039-1.633-2.49.951-2.041-1.634-2.485.951-2.039-1.633-2.491.95-2.042-1.633-2.493.95-2.019-1.612-1.463.47.32-4.223 27.023 2.355-.437 5.806c-.008.108.008.21.006.317zm13.253.493c-.061.814-.43 1.565-1.011 2.061-.502.428-1.123.639-1.756.579l-5.345-.48c-1.426-.123-2.488-1.521-2.369-3.118l.583-7.75c.061-.814.43-1.565 1.011-2.061.503-.428 1.128-.635 1.756-.579l5.344.48c.771.068 1.458.533 1.895 1.213l-2.975.368c-.243.029-.474.096-.699.181l-2.545-.245c-.46-.043-.925.109-1.292.425-.399.344-.647.854-.68 1.391l-.406 5.771c-.065 1.082.667 1.998 1.658 2.084l3.292.321c.051.005.102.007.152.007.413 0 .812-.15 1.139-.432.399-.344.647-.854.68-1.394l.015-.218 1.672-.206zm-5.469-5.944.24 1.99c.136 1.026.793 1.893 1.685 2.326l-.018.258-2.93-.286.403-5.683.754.072c-.136.416-.187.865-.134 1.323zm20.112.538-16.813 2.073c-.075.011-.154.01-.253-.008-.425-.07-.763-.431-.821-.864l-.238-1.976c-.049-.417.163-.828.515-1.019.103-.054.215-.088.345-.104l4.351-.538 13.403-1.455.372 2.769c.064.554-.321 1.057-.861 1.122z"/></svg>