<svg id="Layer_6" enable-background="new 0 0 64 64" height="512" viewBox="0 0 64 64" width="512" xmlns="http://www.w3.org/2000/svg"><path d="m40 2v4h-36-2v-4z" fill="#aab2bd"/><path d="m28.07 33.97c1.04 2.45 2.79 4.52 4.98 5.95l-.05.08-1 4c-2.92.09-5.53.8-7.69 2h-20.31v-40h36c-1.76 0-3.48.23-5.1.66-6.77 1.81-11.9 7.18-11.9 14.34h-2v4h2v6c0 1.66 1.12 3 2.5 3h2.5z" fill="#e6e9ed"/><path d="m18 14-2.5 4h-5l-2.5-4 2.5-4h5z" fill="#ff826e"/><path d="m25 58v4h-7v-5.51c0-4.58 2.41-8.33 6.31-10.49h.69v8z" fill="#4fc1e9"/><path d="m34 51 6-3 6 3 .01.01c-1.12 1-2.57 1.7-4.01 1.99v1 4 4h-4v-4-4-1c-1.44-.29-2.9-.99-4.01-1.99z" fill="#4fc1e9"/><path d="m62 56.49v5.51h-7v-4-4-8l.15-.29c4.22 2.11 6.85 6 6.85 10.78z" fill="#4fc1e9"/><path d="m55 54v4h-9v-4h5z" fill="#e6e9ed"/><path d="m42 54h4v4h-4z" fill="#e6e9ed"/><path d="m34 54h4v4h-4z" fill="#e6e9ed"/><path d="m34 54v4h-9v-4h4z" fill="#e6e9ed"/><g fill="#ff826e"><path d="m33.99 51.01c1.11 1 2.57 1.7 4.01 1.99v1h-4-5-4v-8h-.69c2.16-1.2 4.77-1.91 7.69-2v3c0 1.58.8 2.96 1.99 4.01z"/><path d="m34 58h4v4h-4z"/><path d="m25 58h9v4h-9z"/><path d="m46 58h9v4h-9z"/><path d="m42 58h4v4h-4z"/><path d="m48 44c2.68.08 5.1.69 7.15 1.71l-.15.29v8h-4-5-4v-1c1.44-.29 2.89-.99 4.01-1.99 1.19-1.05 1.99-2.43 1.99-4.01z"/></g><path d="m48 44v3c0 1.58-.8 2.96-1.99 4.01l-.01-.01-6-3z" fill="#ccd1d9"/><path d="m32 44 8 4-6 3-.01.01c-1.19-1.05-1.99-2.43-1.99-4.01z" fill="#ccd1d9"/><path d="m47 40 1 4-8 4-8-4 1-4 .05-.08c2.01 1.31 4.39 2.08 6.95 2.08s4.94-.77 6.95-2.08z" fill="#f0d0b4"/><path d="m52.83 30.84c.11-.68.17-1.39.17-2.1v-.74h1.5c1.38 0 2.5 1.34 2.5 3s-1.12 3-2.5 3h-2.5l-.07-.03c.42-.99.73-2.04.9-3.13z" fill="#f0d0b4"/><path d="m40 29.04c2 0 3.88-.86 6-2.93.9-.88 5.86 3.79 6.83 4.73-.17 1.09-.48 2.14-.9 3.13-1.04 2.45-2.79 4.52-4.98 5.95-2.01 1.31-4.39 2.08-6.95 2.08s-4.94-.77-6.95-2.08c-2.19-1.43-3.94-3.5-4.98-5.95-.42-.99-.73-2.04-.9-3.13.97-.94 5.93-5.61 6.83-4.73 2.12 2.07 4 2.93 6 2.93z" fill="#f0d0b4"/><path d="m27.17 30.84c.17 1.09.48 2.14.9 3.13l-.07.03h-2.5c-1.38 0-2.5-1.34-2.5-3s1.12-3 2.5-3h1.5v.74c0 .71.06 1.42.17 2.1z" fill="#f0d0b4"/><path d="m57 25v6c0-1.66-1.12-3-2.5-3h-1.5v-1.13-1.87z" fill="#b27946"/><path d="m27 25h26v1.87 1.13.74c0 .71-.06 1.42-.17 2.1-.97-.94-5.93-5.61-6.83-4.73-2.12 2.07-4 2.93-6 2.93s-3.88-.86-6-2.93c-.9-.88-5.86 3.79-6.83 4.73-.11-.68-.17-1.39-.17-2.1v-.74-1.13z" fill="#b27946"/><path d="m23 25h4v1.87 1.13h-1.5c-1.38 0-2.5 1.34-2.5 3z" fill="#b27946"/><path d="m57 21h-5v-4h-4v4h-6v-4h-4v4h-6v-4h-4v4h-5c0-7.16 5.13-12.53 11.9-14.34l.1.34 2 6h6l2-6 .1-.34c6.77 1.81 11.9 7.18 11.9 14.34z" fill="#ffeaa7"/><path d="m23 21h5 4 6 4 6 4 5 2v4h-2-4-26-4-2v-4z" fill="#fcd770"/><path d="m48 17h4v4h-4z" fill="#ffc729"/><path d="m38 17h4v4h-4z" fill="#ffc729"/><path d="m28 17h4v4h-4z" fill="#ffc729"/><path d="m45.1 6.66-.1.34-2 6h-6l-2-6-.1-.34c1.62-.43 3.34-.66 5.1-.66s3.48.23 5.1.66z" fill="#fcd770"/><path d="m40 37c-.552 0-1-.449-1-1h-2c0 1.654 1.346 3 3 3s3-1.346 3-3h-2c0 .551-.448 1-1 1z"/><circle cx="34" cy="31" r="1"/><circle cx="46" cy="31" r="1"/><path d="m39 32h2v2h-2z"/><path d="m48.794 43.053-.679-2.715c1.884-1.372 3.415-3.205 4.445-5.338h1.94c1.93 0 3.5-1.794 3.5-4v-5h2v-6h-2.055c-.546-8.191-7.712-14.524-16.945-14.957v-4.043h-40v6h2v40h18.15c-2.622 2.378-4.15 5.671-4.15 9.492v6.508h46v-6.508c0-7.447-5.807-12.877-14.206-13.439zm-5.794 11.947h2v2h-2zm4 0h7v2h-7zm7 4v2h-7v-2zm-5-13.941c1.831.157 3.51.581 5 1.225v6.716h-2v-2h-2v2h-5.124c2.274-1.224 4.124-3.354 4.124-6zm-3.185 4.731-3.579-1.79 4.764-2.382v1.382c0 1.037-.463 1.991-1.185 2.79zm1.021-6.326-6.836 3.418-6.836-3.418.505-2.022c1.904.989 4.052 1.558 6.331 1.558s4.427-.569 6.33-1.558zm-13.836 11.536v2h-7v-2zm4 2h-2v-2h2zm-11 2h7v2h-7zm9 0h2v2h-2zm-5-6v-2h-2v2h-2v-6.708c1.49-.644 3.169-1.065 5-1.222v1.93c0 2.646 1.85 4.776 4.124 6zm4.185-3.21c-.722-.799-1.185-1.753-1.185-2.79v-1.382l4.764 2.382zm5.815-8.79c-5.794 0-10.641-4.216-11.758-9.804 2.199-2.087 4.439-3.85 5.286-4.152 2.162 2.045 4.226 3 6.472 3s4.31-.955 6.472-3c.847.303 3.087 2.065 5.286 4.152-1.117 5.588-5.964 9.804-11.758 9.804zm-14-15v1h-.5c-.539 0-1.044.151-1.5.401v-1.401zm26 2.686c-1.388-1.261-2.483-2.121-3.345-2.686h3.345zm-24-2.686h3.345c-.862.564-1.957 1.424-3.345 2.686zm-2.5 3h.513c.025 1.39.236 2.734.626 4h-1.139c-.813 0-1.5-.916-1.5-2s.687-2 1.5-2zm9.853-3h9.294c-1.607 1.406-3.066 2.044-4.647 2.044s-3.04-.638-4.647-2.044zm19.147 7h-1.139c.39-1.266.601-2.61.626-4h.513c.813 0 1.5.916 1.5 2s-.687 2-1.5 2zm1.5-5.599c-.456-.25-.961-.401-1.5-.401h-.5v-1h2zm2-3.401h-36v-2h36zm-27-4h-2v-2h2zm10 0h-2v-2h2zm10 0h-2v-2h2zm4.944 0h-2.944v-4h-6v4h-4v-4h-6v4h-4v-4h-6v4h-2.944c.435-5.615 4.486-10.213 10.195-12.085l2.028 6.085h7.441l2.028-6.085c5.71 1.872 9.761 6.47 10.196 12.085zm-15.944-13c1.321 0 2.592.148 3.813.4l-1.534 4.6h-4.559l-1.534-4.6c1.222-.252 2.493-.4 3.814-.4zm-37-4h36v2h-36zm2 42v-38h26.173c-5.207 2.555-8.74 7.337-9.117 13h-2.056v6h2v5c0 2.206 1.57 4 3.5 4h1.94c1.029 2.134 2.561 3.967 4.445 5.338l-.679 2.715c-2.692.18-5.113.859-7.165 1.947zm14 11.492c0-3.861 1.883-7.081 5-9.125v13.633h-5zm22-4.311v8.819h-2v-8.819l-.803-.162c-.778-.157-1.563-.454-2.28-.86l4.083-2.041 4.082 2.041c-.717.406-1.502.704-2.28.86zm2 6.819h2v2h-2zm18 2h-5v-13.646c3.121 2.044 5 5.274 5 9.137z"/><path d="m7 41h2v2h-2z"/><path d="m7 37h2v2h-2z"/><path d="m11 41h4v2h-4z"/><path d="m11 37h4v2h-4z"/><path d="m17 37h10v2h-10z"/><path d="m17 41h10v2h-10z"/><path d="m7 25h6v2h-6z"/><path d="m7 21h6v2h-6z"/><path d="m21 9h2v2h-2z"/><path d="m21 15v-2h-2.445l-2.5-4h-6.11l-3.125 5 3.125 5h6.109l2.5-4zm-6.055 2h-3.891l-1.874-3 1.875-3h3.891l1.25 2h-3.196v2h3.195z"/></svg>