<svg id="Layer_6" enable-background="new 0 0 64 64" height="512" viewBox="0 0 64 64" width="512" xmlns="http://www.w3.org/2000/svg"><path d="m38 23v3c0 1.1-.45 2.1-1.17 2.83-.73.72-1.73 1.17-2.83 1.17v6h-4v-6c-1.1 0-2.1-.45-2.83-1.17-.72-.73-1.17-1.73-1.17-2.83v-3s1 3 6 3 6-3 6-3z" fill="#ffeaa7"/><path d="m7 48v6 4 4h-5v-5.94c0-3.55 2.02-6.63 4.98-8.11z" fill="#b4dd7f"/><path d="m23 48v3c0 1.1-.45 2.1-1.17 2.83-.73.72-1.73 1.17-2.83 1.17v3 4h-4v-4-3c-1.1 0-2.1-.45-2.83-1.17-.72-.73-1.17-1.73-1.17-2.83v-3s1 3 6 3 6-3 6-3z" fill="#b4dd7f"/><path d="m27 54v-6l.03-.06c2.96 1.46 4.97 4.5 4.97 8.06v.06 5.94h-5v-4z" fill="#b4dd7f"/><path d="m37 48v6 4 4h-5v-5.94c0-.02 0-.04 0-.06.02-3.53 2.03-6.58 4.98-8.05z" fill="#69d6f4"/><path d="m53 48v3c0 1.1-.45 2.1-1.17 2.83-.73.72-1.73 1.17-2.83 1.17v3 4h-4v-4-3c-1.1 0-2.1-.45-2.83-1.17-.72-.73-1.17-1.73-1.17-2.83v-3s1 3 6 3 6-3 6-3z" fill="#69d6f4"/><path d="m57.02 47.95c2.96 1.48 4.98 4.56 4.98 8.11v5.94h-5v-4-4-6z" fill="#69d6f4"/><path d="m37 29h4c-1.08.82-1.99 1.84-2.67 3.02-.69 1.19-1.14 2.54-1.28 3.98h-3.05v-6c1.1 0 2.1-.45 2.83-1.17z" fill="#e6e9ed"/><path d="m27.17 28.83c.73.72 1.73 1.17 2.83 1.17v6h-3.05c-.14-1.44-.59-2.79-1.28-3.98-.68-1.18-1.59-2.2-2.67-3.02h4z" fill="#e6e9ed"/><path d="m12.17 53.83c.73.72 1.73 1.17 2.83 1.17v3h-8v-4h5z" fill="#e6e9ed"/><path d="m27 54v4h-8v-3c1.1 0 2.1-.45 2.83-1.17l.17.17z" fill="#e6e9ed"/><path d="m42.17 53.83c.73.72 1.73 1.17 2.83 1.17v3h-8v-4h5z" fill="#e6e9ed"/><path d="m57 54v4h-8v-3c1.1 0 2.1-.45 2.83-1.17l.17.17z" fill="#e6e9ed"/><g fill="#ff826e"><path d="m38 22c3.54 0 6.51 2.03 8 5v.05c-.34.03-.68.08-1 .15-1.48.3-2.84.93-4 1.8h-4l-.17-.17c.72-.73 1.17-1.73 1.17-2.83v-3z"/><path d="m18 27c1.49-2.97 4.46-5 8-5v1 3c0 1.1.45 2.1 1.17 2.83l-.17.17h-4c-1.16-.87-2.52-1.5-4-1.8-.32-.07-.66-.12-1-.15z"/><path d="m11 51c0 1.1.45 2.1 1.17 2.83l-.17.17h-5v-6l-.02-.05c1.21-.61 2.57-.95 4.02-.95v1z"/><path d="m7 58h8v4h-8z"/><path d="m19 58h8v4h-8z"/><path d="m27 54h-5l-.17-.17c.72-.73 1.17-1.73 1.17-2.83v-3-1c1.45 0 2.82.34 4.03.94l-.03.06z"/><path d="m37 58h8v4h-8z"/><path d="m41 51c0 1.1.45 2.1 1.17 2.83l-.17.17h-5v-6l-.02-.05c1.21-.61 2.57-.95 4.02-.95v1z"/><path d="m49 58h8v4h-8z"/><path d="m51.83 53.83c.72-.73 1.17-1.73 1.17-2.83v-3-1c1.45 0 2.81.34 4.02.95l-.02.05v6h-5z"/></g><path d="m17 47c2.25 0 4.33-.75 6-2v2 1s-1 3-6 3-6-3-6-3v-1-2c1.67 1.25 3.75 2 6 2z" fill="#f0d0b4"/><path d="m26.95 36c.03.33.05.66.05 1 0 3.27-1.57 6.17-4 8-1.67 1.25-3.75 2-6 2s-4.33-.75-6-2c-2.43-1.83-4-4.73-4-8 0-.34.02-.67.05-1h3.95 4 4 4z" fill="#f0d0b4"/><path d="m53 47v1s-1 3-6 3-6-3-6-3v-1-2c1.67 1.25 3.75 2 6 2s4.33-.75 6-2z" fill="#f0d0b4"/><path d="m56.95 36c.03.33.05.66.05 1 0 3.27-1.57 6.17-4 8-1.67 1.25-3.75 2-6 2s-4.33-.75-6-2c-2.43-1.83-4-4.73-4-8 0-.34.02-.67.05-1h3.95 4 4 4z" fill="#f0d0b4"/><path d="m38 22v1s-1 3-6 3-6-3-6-3v-1-2c1.67 1.25 3.75 2 6 2s4.33-.75 6-2z" fill="#f0d0b4"/><path d="m41.95 11c.03.33.05.66.05 1 0 3.27-1.57 6.17-4 8-1.67 1.25-3.75 2-6 2s-4.33-.75-6-2c-2.43-1.83-4-4.73-4-8 0-.34.02-.67.05-1h3.95 4 4 4z" fill="#f0d0b4"/><path d="m15 27.2v8.8h-4v-1c0-1.55-1.17-2.82-2.67-2.98 1.41-2.44 3.82-4.24 6.67-4.82z" fill="#ffeaa7"/><path d="m23 29c1.08.82 1.99 1.84 2.67 3.02-1.5.16-2.67 1.43-2.67 2.98v1h-4v-8.8c1.48.3 2.84.93 4 1.8z" fill="#ffeaa7"/><path d="m49 27.2c2.85.58 5.26 2.38 6.67 4.82-1.5.16-2.67 1.43-2.67 2.98v1h-4z" fill="#ffeaa7"/><path d="m45 27.2v8.8h-4v-1c0-1.55-1.17-2.82-2.67-2.98.68-1.18 1.59-2.2 2.67-3.02 1.16-.87 2.52-1.5 4-1.8z" fill="#ffeaa7"/><path d="m34 2.2c2.85.58 5.26 2.38 6.67 4.82-1.5.16-2.67 1.43-2.67 2.98v1h-4z" fill="#ffeaa7"/><path d="m30 2.2v8.8h-4v-1c0-1.55-1.17-2.82-2.67-2.98 1.41-2.44 3.82-4.24 6.67-4.82z" fill="#ffeaa7"/><path d="m41.95 11h-3.95v-1c0-1.55 1.17-2.82 2.67-2.98.69 1.19 1.14 2.54 1.28 3.98z" fill="#fcd770"/><path d="m34 2.2v8.8h-4v-8.8c.64-.13 1.31-.2 2-.2s1.36.07 2 .2z" fill="#fcd770"/><path d="m26 10v1h-3.95c.14-1.44.59-2.79 1.28-3.98 1.5.16 2.67 1.43 2.67 2.98z" fill="#fcd770"/><path d="m26.95 36h-3.95v-1c0-1.55 1.17-2.82 2.67-2.98.69 1.19 1.14 2.54 1.28 3.98z" fill="#fcd770"/><path d="m19 27.2v8.8h-4v-8.8c.64-.13 1.31-.2 2-.2.34 0 .67.02 1 .05.34.03.68.08 1 .15z" fill="#fcd770"/><path d="m11 35v1h-3.95c.14-1.44.59-2.79 1.28-3.98 1.5.16 2.67 1.43 2.67 2.98z" fill="#fcd770"/><path d="m41 35v1h-3.95c.14-1.44.59-2.79 1.28-3.98 1.5.16 2.67 1.43 2.67 2.98z" fill="#fcd770"/><path d="m56.95 36h-3.95v-1c0-1.55 1.17-2.82 2.67-2.98.69 1.19 1.14 2.54 1.28 3.98z" fill="#fcd770"/><path d="m49 27.2v8.8h-4v-8.8c.32-.07.66-.12 1-.15.33-.03.66-.05 1-.05.69 0 1.36.07 2 .2z" fill="#fcd770"/><path d="m54 46.051v-.572c2.441-2.019 4-5.07 4-8.479h2v-2h-2.191c-.944-5.112-5.427-9-10.809-9-.142 0-.279.016-.419.021-1.626-2.809-4.422-4.63-7.581-4.951v-.592c2.441-2.019 4-5.07 4-8.479h2v-2h-2.191c-.944-5.111-5.427-8.999-10.809-8.999s-9.865 3.888-10.809 9h-2.191v2h2c0 3.408 1.559 6.459 4 8.479v.592c-3.159.321-5.955 2.142-7.581 4.951-.14-.006-.277-.022-.419-.022-5.382 0-9.865 3.888-10.809 9h-2.191v2h2c0 3.408 1.559 6.459 4 8.479v.572c-5.046.507-9 4.803-9 10.013v6.936h62v-6.936c0-5.21-3.954-9.506-9-10.013zm-40 10.949h-6v-2h4v-.024c.584.442 1.257.772 2 .923zm-2-10v-.214c1.502.77 3.199 1.214 5 1.214s3.498-.444 5-1.214v.214.796c-.236.462-1.37 2.204-5 2.204-3.631 0-4.754-1.717-5-2.206zm12.107-15.502c-1.248.678-2.107 1.985-2.107 3.502h-2v-6.475c1.64.582 3.059 1.623 4.107 2.973zm1.039 1.701c.268.571.479 1.173.622 1.801h-1.768c0-.796.471-1.48 1.146-1.801zm.333-3.199h1.521v-.024c.584.442 1.257.772 2 .923v4.101h-1.191c-.346-1.875-1.161-3.587-2.33-5zm1.521-8.214c1.502.77 3.199 1.214 5 1.214s3.498-.444 5-1.214v.214.796c-.236.462-1.37 2.204-5 2.204-3.631 0-4.754-1.717-5-2.206v-.794zm15 13.214c0-1.517-.859-2.824-2.107-3.502 1.047-1.35 2.467-2.391 4.107-2.973v6.475zm-12-6c-1.654 0-3-1.346-3-3v-.344c1.057.727 2.641 1.344 5 1.344s3.943-.617 5-1.344v.344c0 1.654-1.346 3-3 3h-1v6h-2v-6zm5 1.899c.743-.151 1.416-.481 2-.923v.024h1.521c-1.169 1.413-1.984 3.125-2.33 5h-1.191zm3.854 2.3c.675.321 1.146 1.005 1.146 1.801h-1.768c.143-.628.354-1.23.622-1.801zm1.841-5.199h-2.131c.271-.615.436-1.286.436-2v-2.937c.695.089 1.364.276 2 .54v4.189c-.103.068-.204.137-.305.208zm-4.695 9c0 3.408 1.559 6.459 4 8.479v.572c-3.526.354-6.508 2.564-7.991 5.637-1.477-3.073-4.469-5.284-8.009-5.637v-.572c2.441-2.019 4-5.07 4-8.479zm2 11.593c.631-.259 1.301-.442 2-.531v2.938c0 .714.165 1.385.436 2h-2.436zm-14 2.407v-2.941c.702.084 1.37.26 2 .508v4.433h-2.436c.271-.615.436-1.286.436-2zm2 4v2h-6v-1.101c.743-.151 1.416-.481 2-.923v.024zm-6 4h6v2h-6zm8-9.287c1.838 1.454 3 3.709 3 6.287h.003c0 .022-.003.042-.003.064v4.936h-3zm5 6.351c0-2.54 1.173-4.807 3-6.287v11.223h-3zm5 2.936h6v2h-6zm6-2h-6v-2h4v-.024c.584.442 1.257.772 2 .923zm-2-10v-.214c1.502.77 3.199 1.214 5 1.214s3.498-.444 5-1.214v.214.796c-.236.462-1.37 2.204-5 2.204-3.631 0-4.754-1.717-5-2.206zm14 8v2h-6v-1.101c.743-.151 1.416-.481 2-.923v.024zm0-2h-2.436c.271-.615.436-1.286.436-2v-2.938c.699.088 1.369.272 2 .531zm-9-7c-4.963 0-9-4.038-9-9h18c0 4.962-4.037 9-9 9zm7-11c0-.796.471-1.48 1.146-1.801.268.571.479 1.173.622 1.801zm.107-3.502c-1.248.678-2.107 1.985-2.107 3.502h-2v-6.475c1.64.582 3.059 1.623 4.107 2.973zm-6.107-3.439v6.941h-2v-6.941c.329-.037.662-.059 1-.059s.671.022 1 .059zm-3.592-1.738c-.482.117-.952.264-1.408.443v-1.946c.525.434.998.936 1.408 1.503zm-4.262-18.122c.268.571.479 1.173.622 1.801h-1.768c0-.796.471-1.48 1.146-1.801zm-1.039-1.701c-1.248.678-2.107 1.985-2.107 3.502h-2v-6.475c1.64.582 3.059 1.623 4.107 2.973zm-6.107-3.439v6.941h-2v-6.941c.329-.037.662-.059 1-.059s.671.022 1 .059zm-4 .466v6.475h-2c0-1.517-.859-2.824-2.107-3.502 1.048-1.35 2.467-2.391 4.107-2.973zm-5.146 4.674c.675.321 1.146 1.005 1.146 1.801h-1.768c.143-.628.354-1.23.622-1.801zm-.854 3.801h18c0 4.962-4.037 9-9 9s-9-4.038-9-9zm2.436 16h-2.131c-.101-.071-.202-.14-.305-.208v-4.189c.636-.264 1.305-.451 2-.54v2.937c0 .714.165 1.385.436 2zm-4.436-3.182v1.946c-.455-.179-.925-.325-1.408-.443.41-.567.883-1.069 1.408-1.503zm-3 3.241v6.941h-2v-6.941c.329-.037.662-.059 1-.059s.671.022 1 .059zm-4 .466v6.475h-2c0-1.517-.859-2.824-2.107-3.502 1.048-1.35 2.467-2.391 4.107-2.973zm-5.146 4.674c.675.321 1.146 1.005 1.146 1.801h-1.768c.143-.628.354-1.23.622-1.801zm-.854 3.801h18c0 4.962-4.037 9-9 9s-9-4.038-9-9zm2.436 16h-2.436v-4.407c.631-.259 1.301-.442 2-.531v2.938c0 .714.165 1.385.436 2zm-7.436 3.064c0-2.54 1.173-4.807 3-6.287v11.223h-3zm5 4.936v-2h6v2zm7-7c-1.654 0-3-1.346-3-3v-.344c1.057.727 2.641 1.344 5 1.344s3.943-.617 5-1.344v.344c0 1.654-1.346 3-3 3h-1v7h-2v-7zm33 7h-2v-7h-1c-1.654 0-3-1.346-3-3v-.344c1.057.727 2.641 1.344 5 1.344s3.943-.617 5-1.344v.344c0 1.654-1.346 3-3 3h-1zm2-2h6v2h-6zm11 2h-3v-11.223c1.827 1.479 3 3.747 3 6.287z"/></svg>