<svg id="Layer_6" enable-background="new 0 0 64 64" height="512" viewBox="0 0 64 64" width="512" xmlns="http://www.w3.org/2000/svg"><path d="m20.18 46.95-.48-1.87.3-.08c1.19-.82 2.54-1.46 4-1.94v2.94 12h-1z" fill="#4fc1e9"/><path d="m46 43v2c0 .34-.03.67-.08.99-.47 2.97-2.98 5.42-5.92 6.01v10h-4v-10c-2.94-.59-5.45-3.04-5.92-6.01-.05-.32-.08-.65-.08-.99v-2s4 2 8 2 8-2 8-2z" fill="#4fc1e9"/><path d="m62 55.89v.11h-6v-10.93c3.68 2.47 6 6.28 6 10.82z" fill="#4fc1e9"/><path d="m36 52v10h-9v-4h-3v-12h6l.08-.01c.47 2.97 2.98 5.42 5.92 6.01z" fill="#e6e9ed"/><path d="m52 46v16h-12v-10c2.94-.59 5.45-3.04 5.92-6.01l.08.01z" fill="#e6e9ed"/><path d="m30 45c0 .34.03.67.08.99l-.08.01h-6v-2.94c1.86-.63 3.91-.97 6-1.03v.97z" fill="#fcd770"/><path d="m52 43.1v2.9h-6l-.08-.01c.05-.32.08-.65.08-.99v-2-.97c2.13.07 4.16.44 6 1.07z" fill="#fcd770"/><path d="m52 43.1c1.45.5 2.8 1.16 4 1.97v10.93 6h-4v-16z" fill="#ccd1d9"/><g fill="#f0d0b4"><path d="m56 56h6v6h-6z"/><path d="m46 42v.03.97s-4 2-8 2-8-2-8-2v-.97-.03l.97-2.9c2.07 1.21 4.47 1.9 7.03 1.9s4.96-.69 7.03-1.9z"/><path d="m51.96 28c.03-.33.04-.66.04-1v-1h1c1.66 0 3 1.34 3 3s-1.34 3-3 3h-1.93c.49-1.26.8-2.6.89-4z"/><path d="m43 23c.96 3.83 8.35 4.91 8.96 5-.09 1.4-.4 2.74-.89 4-1.14 3.01-3.29 5.51-6.04 7.1-2.07 1.21-4.47 1.9-7.03 1.9s-4.96-.69-7.03-1.9c-2.75-1.59-4.9-4.09-6.04-7.1-.49-1.26-.8-2.6-.89-4 .61-.09 8-1.17 8.96-5z"/><path d="m24.04 28c.09 1.4.4 2.74.89 4h-1.93c-1.66 0-3-1.34-3-3s1.34-3 3-3h1v1c0 .34.01.67.04 1z"/></g><path d="m56 23v6c0-1.66-1.34-3-3-3h-1v-3z" fill="#b27946"/><path d="m52 26v1c0 .34-.01.67-.04 1-.61-.09-8-1.17-8.96-5h9z" fill="#b27946"/><path d="m24 23h9c-.96 3.83-8.35 4.91-8.96 5-.03-.33-.04-.66-.04-1v-1z" fill="#b27946"/><path d="m20 29-.01-6h4.01v3h-1c-1.66 0-3 1.34-3 3z" fill="#b27946"/><path d="m50.25 6.73c3.54 3.19 5.75 7.64 5.75 12.27h-8v-9h2v-3z" fill="#ffeaa7"/><path d="m48 10v9h-20v-9h2v-6l-.05-.1c1.85-.93 3.89-1.55 6.05-1.79v3.89 4 4h4v-4-4-3.89c2.16.24 4.2.86 6.05 1.79l-.05.1v6z" fill="#ffeaa7"/><path d="m26 7v3h2v9h-8c0-4.63 2.21-9.08 5.75-12.27z" fill="#ffeaa7"/><path d="m20 19h8 20 8 2v4h-2-4-9-10-9-4.01-1.99v-4z" fill="#fcd770"/><path d="m50.25 6.73-.25.27v3h-2-2v-6l.05-.1c1.54.75 2.95 1.71 4.2 2.83z" fill="#fcd770"/><path d="m30 4v6h-2-2v-3l-.25-.27c1.25-1.12 2.66-2.08 4.2-2.83z" fill="#fcd770"/><path d="m38 2c-.68 0-1.34.04-2 .11v3.89 4 4h4v-4-4-3.89c-.66-.07-1.32-.11-2-.11z" fill="#fcd770"/><path d="m16.36 32 2.8 10.96-.16.04h-9l-.16-.04 2.8-10.96z" fill="#ff826e"/><path d="m20.18 46.95 2.82 11.05h-17l2.82-11.05.18.05h11z" fill="#ff826e"/><path d="m19.7 45.08.48 1.87-.18.05h-11l-.18-.05 1.02-3.99.16.04h9l.16-.04z" fill="#fc6e51"/><path d="m24 58h3v4h-25v-4h4 17z" fill="#fc6e51"/><path d="m46.746 41.076-.516-1.549c2.412-1.59 4.338-3.855 5.509-6.527h1.261c2.206 0 4-1.794 4-4v-5h2v-6h-2.057c-.592-9.164-9.176-17-18.943-17s-18.351 7.836-18.943 17h-2.057v6h1.991l.009 5.002c.001 2.205 1.795 3.998 4 3.998h1.261c1.171 2.672 3.097 4.937 5.509 6.527l-.515 1.545c-3.324.203-6.423 1.082-8.902 2.53l-3.219-12.602h-5.268l-6.642 26h-4.224v6h62v-7.112c0-8.1-6.796-14.229-16.254-14.812zm14.207 13.924h-3.953v-7.911c2.298 2.069 3.722 4.804 3.953 7.911zm-7.953-10.446c.702.307 1.375.647 2 1.035v15.411h-2zm-6-1.471c1.411.112 2.747.37 4 .742v1.175h-4zm4-16.262c-1.963-.388-4.927-1.278-6.322-2.821h6.322zm2 4.179h-.558c.354-1.276.558-2.613.558-4 1.103 0 2 .897 2 2s-.897 2-2 2zm2-5.444c-.591-.344-1.268-.556-2-.556v-1h2zm-.058-7.556h-5.942v-7h2v-2.058c2.252 2.54 3.697 5.697 3.942 9.058zm-27.942-9v-1.966c.631-.52 1.298-.997 2-1.428v3.394zm4 2v-6.454c1.268-.574 2.608-1.004 4-1.259v11.713h6v-11.713c1.392.255 2.732.686 4 1.259v6.454h2v7h-18v-7zm6 0h2v2h-2zm2-2h-2v-2h2zm8 0v-3.395c.702.432 1.369.909 2 1.428v1.967zm-8-5.949v1.949h-2v-1.949c.333-.02.664-.051 1-.051s.667.031 1 .051zm-14 5.891v2.058h2v7h-5.942c.245-3.361 1.69-6.518 3.942-9.058zm-6 11.058h38v2h-38zm6 4h6.32c-1.395 1.539-4.358 2.431-6.32 2.82zm-2 0v1c-.734 0-1.414.213-2.006.56l-.003-1.56zm0 7c-1.103 0-2-.897-2-2s.897-2 2-2c0 1.387.204 2.724.558 4zm2.144-2.17c2.212-.405 7.12-1.646 8.557-4.83h8.597c1.437 3.185 6.345 4.425 8.557 4.83-.894 6.303-6.309 11.17-12.855 11.17s-11.961-4.867-12.856-11.17zm12.856 13.17c2.312 0 4.495-.541 6.453-1.479l.547 1.642v.195c-1.184.514-4.11 1.642-7 1.642-2.88 0-5.813-1.13-7-1.643v-.194l.547-1.642c1.958.938 4.141 1.479 6.453 1.479zm-9 3h-4v-1.199c1.259-.361 2.601-.61 4-.719zm-6-.491v9.452l-2.128-8.329c.655-.423 1.367-.798 2.128-1.123zm-4.098 1.491h-8.804l.511-2h7.782zm-5.482-13h2.16l2.3 9h-6.76zm-3.833 15h9.826l2.3 9h-14.426zm16.413 13h-23v-2h23zm-1-4v-10h4.28c.745 2.669 2.926 4.918 5.72 5.776v8.224h-7v-4zm14-5.817v9.817h-2v-9.817l-.801-.163c-2.915-.592-5.199-3.237-5.199-6.02v-.479c1.588.622 4.269 1.479 7 1.479s5.412-.857 7-1.479v.479c0 2.783-2.284 5.428-5.199 6.02zm2 1.593c2.794-.858 4.975-3.108 5.72-5.776h4.28v14h-10zm16 8.224v-4h4v4z"/><path d="m41 35h-2c0 .552-.449 1-1 1s-1-.448-1-1h-2c0 1.654 1.346 3 3 3s3-1.346 3-3z"/><circle cx="32" cy="29" r="1"/><circle cx="44" cy="29" r="1"/><path d="m37 30h2v2h-2z"/></svg>