<svg id="Layer_6" enable-background="new 0 0 64 64" height="512" viewBox="0 0 64 64" width="512" xmlns="http://www.w3.org/2000/svg"><path d="m55.33 38.04c2.87.58 5.08 2.9 5.52 5.81l.62 4.08-.47.07-6 .66v-10.66l.01-.03z" fill="#ccd1d9"/><path d="m35 49.8 6.1 6.1-.1.1h-18v-2h-6v-5.28l3.72 1.73 1.06-4.08 4.21-1.03-2.22-3.61 2.23-3.61-.73-.18 8.73-1.94v6 3l-.5.5 2.9 2.9z" fill="#b4dd7f"/><path d="m40 45h6v-3-6l9.01 1.97-.01.03v10.66l-7.89.86-4.37.54c-.24.03-.47.1-.68.21-.17.09-.33.21-.47.34l-3.79-3.61-1.4 1.4-2.9-2.9.5-.5h2.94z" fill="#b4dd7f"/><path d="m9.77 42h7.23v6.72 5.28h-2v2h-10v-14z" fill="#e6e9ed"/><path d="m23 60v2h-8v-2-4-2h2 6v2z" fill="#cf9e76"/><path d="m15 56v4h-14v-4h4z" fill="#b27946"/><path d="m41.1 55.9 4 4-.1.1h-22v-4h18z" fill="#b27946"/><path d="m25.27 37.94.73.18-2.23 3.61 2.22 3.61-4.21 1.03-1.06 4.08-3.72-1.73v-6.72h-7.23v-.28l-1.77-3.61 4.21-1.03 1.07-4.08 3.72 2.16 3.73-2.15 1.06 4.08z" fill="#ff826e"/><path d="m42.74 50.06 4.37-.54 7.89-.86 6-.66.47-.07.27 1.8.25 1.98c.13 1.1-.65 2.1-1.73 2.23l-13.31 1.64-.14.02-3.34.41c-.2.03-.39.02-.57-.01-.84-.14-1.53-.83-1.65-1.73l-.24-1.98c-.08-.64.16-1.25.58-1.68.14-.13.3-.25.47-.34.21-.11.44-.18.68-.21z" fill="#f0d0b4"/><path d="m46.2 61-1.1-1.1-4-4-6.1-6.1 1.4-1.4 1.4-1.4 3.79 3.61c-.42.43-.66 1.04-.58 1.68l.24 1.98c.12.9.81 1.59 1.65 1.73.18.03.37.04.57.01l3.34-.41.14-.02.05.42 2 2.2-1.4 1.4z" fill="#838f9b"/><path d="m40 39v6h-3.06-2.94v-3z" fill="#ccd1d9"/><path d="m46 42v3h-6v-6l.09.04z" fill="#ccd1d9"/><path d="m40.11 39-.02.04-.09-.04-6 3v-6z" fill="#ff826e"/><path d="m46 36v6l-5.91-2.96.02-.04z" fill="#ff826e"/><path d="m43 33c1.05 0 2.05-.16 3-.46v3.46l-5.89 3-6.11-3v-.23-3.23c.95.3 1.95.46 3 .46h1 4z" fill="#f0d0b4"/><g fill="#ccd1d9"><path d="m27 14v6h-3c-.55 0-1-.45-1-1v-4c0-.55.45-1 1-1z"/><path d="m57 15v4c0 .55-.45 1-1 1h-3v-6h3c.55 0 1 .45 1 1z"/><path d="m52.13 7.94-.13.06h-24l-.13-.06c1.55-3.5 5.06-5.94 9.13-5.94h6c4.07 0 7.58 2.44 9.13 5.94z"/></g><path d="m52.13 7.94-.13.06h-24l-.13-.06c-.56 1.24-.87 2.61-.87 4.06v2 6 3c0 4.47 2.94 8.26 7 9.54.95.3 1.95.46 3 .46h1 4 1c1.05 0 2.05-.16 3-.46 4.06-1.28 7-5.07 7-9.54v-3-6-2c0-1.45-.31-2.82-.87-4.06z" fill="#e6e9ed"/><path d="m38 22h4v11h-4z" fill="#ffeaa7"/><path d="m49 12v10h-7-4-7v-10z" fill="#69d6f4"/><path d="m8 45h2v2h-2z"/><path d="m12 45h2v6h-2z"/><path d="m8 51h2v2h-2z"/><path d="m58 56c-1.654 0-3 1.346-3 3v1c0 .551-.449 1-1 1h-3.171c-.267 0-.519-.104-.708-.293l-1.107-1.107 1.367-1.367-1.69-1.859 11.684-1.441c1.629-.195 2.798-1.693 2.603-3.347l-.252-2.005-.888-5.876c-.501-3.318-3.038-5.988-6.295-6.641l-8.543-1.869v-1.959c4.091-1.605 7-5.583 7-10.236v-2h2c1.103 0 2-.897 2-2v-4c0-1.103-.897-2-2-2h-2v-1c0-6.065-4.935-11-11-11h-6c-6.065 0-11 4.935-11 11v1h-2c-1.103 0-2 .897-2 2v4c0 1.103.897 2 2 2h2v2c0 4.653 2.909 8.631 7 10.236v1.962l-7.719 1.715-2.674-.654-1.237-4.778-4.367 2.526-4.363-2.532-1.243 4.776-4.842 1.177 1.75 3.572h-4.305v14h-3v2h13v2h-13v2h13v2h10v-2h20.786l1.414 1.414 1.4-1.4 1.107 1.107c.566.567 1.32.879 2.122.879h3.171c1.654 0 3-1.346 3-3v-1c0-.551.449-1 1-1h5v-2zm2.993-4.173c.065.554-.319 1.056-.859 1.121l-16.814 2.073c-.075.011-.154.009-.253-.007-.425-.071-.764-.431-.821-.863l-.238-1.977c-.049-.417.162-.828.516-1.019.102-.054.213-.087.343-.103l4.352-.538 13.404-1.467zm-42.993 1.173v-2.709l3.384 1.568 1.213-4.661 4.969-1.208-2.624-4.261 1.93-3.122 6.128-1.361v6.339l-2.586-2.585h-3.414v2h2.586l5.4 5.4-1.4 1.4 5.2 5.2h-14.786v-2zm36-5.24-7.013.767-4.362.54c-.323.039-.628.135-.919.272l-3.506-3.339h8.8v-8.758l7 1.531zm-17.6-.774-.986-.986h1.972zm2.6-2.986h-4v-1.382l4-2zm2-3.382 4 2v1.382h-4zm4-.236-2.726-1.363 2.726-1.388zm-10 0v-2.776l2.801 1.376zm1.414 9.418 1.403-1.403 2.477 2.359c-.237.502-.34 1.07-.272 1.654l.137 1.134zm23.447-5.797.463 3.065-4.324.473v-8.274c2.024.741 3.531 2.55 3.861 4.736zm-3.861-29.003v4h-2v-4zm-32 4v-4h2v4zm4 4v-11c0-1.053.191-2.06.525-3h7.475v-2h-6.478c1.617-2.41 4.365-4 7.478-4h6c4.962 0 9 4.038 9 9v11c0 4.962-4.038 9-9 9v-9h7v-12h-20v12h7v9c-4.962 0-9-4.038-9-9zm4-2v-8h16v8zm9 2v9h-2v-9zm-4 11h6c.684 0 1.35-.071 2-.191v1.578l-4.902 2.495-5.098-2.505v-1.568c.65.12 1.316.191 2 .191zm-27.554 4.783 3.584-.871.882-3.386 3.089 1.793 3.093-1.789.877 3.388 3.455.846-1.833 2.965 1.828 2.969-3.458.841-.912 3.501-2.051-.953v-7.087h-7.468zm-3.446 16.217v-12h10v10h-2v2zm16 6h-6v-6h6zm2-2v-2h16.786l2 2zm19.614-2 2.647-.326 1.358 1.494-1.419 1.418z"/><path d="m38 7h10v2h-10z"/></svg>