<svg id="Layer_6" enable-background="new 0 0 64 64" height="512" viewBox="0 0 64 64" width="512" xmlns="http://www.w3.org/2000/svg"><path d="m18 43.2v7.8c0 2.76 0 5-2 6v5h-8v-6.11c0-4.23 2.39-8.12 6.14-10.69 1.17-.81 2.46-1.49 3.86-2z" fill="#e6e9ed"/><path d="m32 46s0 4 4 4 4-4 4-4v8h-8-8v-8s0 4 4 4 4-4 4-4z" fill="#e6e9ed"/><path d="m56 55.89v6.11h-8v-5c-2-1-2-3.24-2-6v-7.82c1.41.51 2.71 1.18 3.88 1.99 3.75 2.57 6.12 6.47 6.12 10.72z" fill="#e6e9ed"/><path d="m48 57v5h-6v-4h-10-10v4h-6v-5c2-1 2-3.24 2-6v-7.8c1.85-.69 3.88-1.1 6-1.17v2.97 1 8h8 8v-8-1-2.97c2.13.07 4.16.47 6 1.15v7.82c0 2.76 0 5 2 6z" fill="#b4dd7f"/><path d="m24.01 42.01 7.99 3.99s0 4-4 4-4-4-4-4v-1-2.97z" fill="#ff826e"/><path d="m40 45v1s0 4-4 4-4-4-4-4l7.99-3.99.01.02z" fill="#ff826e"/><path d="m42 58v4h-20v-4h10z" fill="#69d6f4"/><path d="m39.03 38.1.97 3.9-.01.01-7.99 3.99-7.99-3.99-.01-.01.97-3.9c2.07 1.21 4.47 1.9 7.03 1.9s4.96-.69 7.03-1.9z" fill="#f0d0b4"/><path d="m31 27h2c.63 0 1.22.3 1.6.8l1.8 2.4c.38.5.97.8 1.6.8h7l.06.03c-1.15 2.99-3.29 5.49-6.03 7.07-2.07 1.21-4.47 1.9-7.03 1.9s-4.96-.69-7.03-1.9c-2.74-1.58-4.88-4.08-6.03-7.07l.06-.03h7c.63 0 1.22-.3 1.6-.8l1.8-2.4c.38-.5.97-.8 1.6-.8z" fill="#f0d0b4"/><path d="m24 42 .01.01-.01.02c-2.12.07-4.15.48-6 1.17-1.4.51-2.69 1.19-3.86 2l-.14-.2v-22h4v3c0 1.77.33 3.47.94 5.03 1.15 2.99 3.29 5.49 6.03 7.07z" fill="#656d78"/><path d="m46 43.18c-1.84-.68-3.87-1.08-6-1.15l-.01-.02.01-.01-.97-3.9c2.74-1.58 4.88-4.08 6.03-7.07.61-1.56.94-3.26.94-5.03v-3h4v22l-.12.17c-1.17-.81-2.47-1.48-3.88-1.99z" fill="#656d78"/><path d="m18 23h28v3c0 1.77-.33 3.47-.94 5.03l-.06-.03h-7c-.63 0-1.22-.3-1.6-.8l-1.8-2.4c-.38-.5-.97-.8-1.6-.8h-2c-.63 0-1.22.3-1.6.8l-1.8 2.4c-.38.5-.97.8-1.6.8h-7l-.06.03c-.61-1.56-.94-3.26-.94-5.03z" fill="#69d6f4"/><path d="m30 2.11v16.89h-6v-2c0-2.21-1.79-4-4-4h-4.85c2.34-5.86 8.02-10.18 14.85-10.89z" fill="#fcd770"/><path d="m48.85 13h-4.85c-2.21 0-4 1.79-4 4v2h-6v-16.89c6.83.71 12.51 5.03 14.85 10.89z" fill="#fcd770"/><g fill="#ffeaa7"><path d="m14 19h10 6 4 6 10 2v4h-2-4-28-4-2v-4z"/><path d="m50 19h-10v-2c0-2.21 1.79-4 4-4h4.85c.74 1.87 1.15 3.89 1.15 6z"/><path d="m24 17v2h-10c0-2.11.41-4.13 1.15-6h4.85c2.21 0 4 1.79 4 4z"/><path d="m34 2.11v16.89h-4v-16.89c.66-.07 1.32-.11 2-.11s1.34.04 2 .11z"/></g><path d="m31 30h2v2h-2z"/><path d="m32 37c1.654 0 3-1.346 3-3h-2c0 .551-.448 1-1 1s-1-.449-1-1h-2c0 1.654 1.346 3 3 3z"/><path d="m51 44.784v-20.784h2v-6h-2.053c-.553-9.459-8.827-17-18.947-17s-18.394 7.541-18.947 17h-2.053v6h2v20.787c-3.665 2.745-6 6.732-6 11.101v7.112h50v-7.112c0-4.371-2.335-8.359-6-11.104zm-2-1.29c-2.4-1.344-5.197-2.202-8.199-2.41l-.63-2.521c4.105-2.68 6.829-7.306 6.829-12.563v-2h2zm-2 14.075v3.431h-4v-4h-22v4h-4v-3.431c2-1.379 2-3.906 2-6.569v-7.095c1.265-.412 2.605-.696 4-.818v11.913h18v-11.913c1.395.122 2.735.405 4 .817v7.096c0 2.664 0 5.19 2 6.569zm-6 3.431h-18v-2h18zm4-37v2c0 1.396-.227 2.739-.636 4h-6.364c-.313 0-.612-.149-.8-.4l-1.8-2.4c-.563-.751-1.46-1.2-2.4-1.2h-2c-.94 0-1.837.449-2.399 1.2l-1.802 2.401c-.187.25-.486.399-.799.399h-6.364c-.409-1.261-.636-2.604-.636-4v-2zm-19 8c.94 0 1.837-.449 2.399-1.2l1.802-2.401c.187-.25.486-.399.799-.399h2c.313 0 .612.149.8.4l1.8 2.4c.563.751 1.46 1.2 2.4 1.2h5.521c-2.172 4.154-6.517 7-11.521 7s-9.349-2.846-11.521-7zm-1 11.618 5.941 2.97c-.16.911-.753 2.412-2.941 2.412-2.823 0-2.994-2.503-3-3.005zm0 6.503c.735.528 1.711.879 3 .879 1.994 0 3.246-.831 4-1.877.754 1.046 2.006 1.877 4 1.877 1.289 0 2.265-.351 3-.879v2.879h-14zm11-1.121c-2.188 0-2.781-1.501-2.941-2.411l5.941-2.971v2.376c-.006.503-.177 3.006-3 3.006zm-4-8c2.276 0 4.427-.524 6.361-1.435l.475 1.899-6.836 3.418-6.836-3.418.475-1.899c1.934.911 4.085 1.435 6.361 1.435zm16.946-23h-7.946v-1c0-1.654 1.346-3 3-3h4.138c.446 1.271.716 2.612.808 4zm-1.683-6h-3.263c-2.757 0-5 2.243-5 5v1h-4v-14.735c5.405.911 9.92 4.229 12.263 8.735zm-14.263-8.952v14.952h-2v-14.952c.333-.019.662-.048 1-.048s.667.029 1 .048zm-4 .217v14.735h-4v-1c0-2.757-2.243-5-5-5h-3.263c2.343-4.506 6.858-7.824 12.263-8.735zm-13.138 10.735h4.138c1.654 0 3 1.346 3 3v1h-7.946c.092-1.388.362-2.729.808-4zm-2.862 6h38v2h-38zm2 4h2v2c0 5.257 2.724 9.883 6.829 12.562l-.63 2.522c-3.002.209-5.799 1.068-8.199 2.412zm-6 31.888c0-4.737 3.249-8.952 8-11.185v6.297c0 2.799-.067 4.416-1.447 5.105l-.553.277v4.618h-6zm46 5.112h-6v-4.618l-.553-.276c-1.38-.69-1.447-2.307-1.447-5.106v-6.299c4.751 2.233 8 6.449 8 11.187z"/><circle cx="24" cy="27" r="1"/><circle cx="40" cy="27" r="1"/></svg>